<?xml version="1.0" encoding="utf-8" standalone="no"?>
<!DOCTYPE svg PUBLIC "-//W3C//DTD SVG 1.1//EN"
  "http://www.w3.org/Graphics/SVG/1.1/DTD/svg11.dtd">
<!-- Created with matplotlib (http://matplotlib.org/) -->
<svg height="432pt" version="1.1" viewBox="0 0 576 432" width="576pt" xmlns="http://www.w3.org/2000/svg" xmlns:xlink="http://www.w3.org/1999/xlink">
 <defs>
  <style type="text/css">
*{stroke-linecap:butt;stroke-linejoin:round;stroke-miterlimit:100000;}
  </style>
 </defs>
 <g id="figure_1">
  <g id="patch_1">
   <path d="M 0 432 
L 576 432 
L 576 0 
L 0 0 
z
" style="fill:#ffffff;"/>
  </g>
  <g id="axes_1">
   <g id="patch_2">
    <path d="M 72 388.8 
L 518.4 388.8 
L 518.4 43.2 
L 72 43.2 
z
" style="fill:#ffffff;"/>
   </g>
   <g id="line2d_1">
    <path clip-path="url(#p8086017bd6)" d="M 76.464 227.52 
L 80.928 239.04 
L 85.392 250.56 
L 89.856 239.04 
L 94.32 250.56 
L 98.784 239.04 
L 103.248 250.56 
L 107.712 262.08 
L 112.176 273.6 
L 116.64 285.12 
L 121.104 296.64 
L 125.568 285.12 
L 130.032 296.64 
L 134.496 285.12 
L 138.96 273.6 
L 143.424 285.12 
L 147.888 273.6 
L 152.352 285.12 
L 156.816 273.6 
L 161.28 262.08 
L 165.744 250.56 
L 170.208 262.08 
L 174.672 273.6 
L 179.136 285.12 
L 183.6 273.6 
L 188.064 262.08 
L 192.528 273.6 
L 196.992 285.12 
L 201.456 273.6 
L 205.92 285.12 
L 210.384 296.64 
L 214.848 308.16 
L 219.312 319.68 
L 223.776 308.16 
L 228.24 319.68 
L 232.704 308.16 
L 237.168 319.68 
L 241.632 331.2 
L 246.096 319.68 
L 250.56 308.16 
L 255.024 296.64 
L 259.488 285.12 
L 263.952 273.6 
L 268.416 262.08 
L 272.88 250.56 
L 277.344 262.08 
L 281.808 273.6 
L 286.272 285.12 
L 290.736 296.64 
L 295.2 285.12 
L 299.664 273.6 
L 304.128 285.12 
L 308.592 296.64 
L 313.056 308.16 
L 317.52 319.68 
L 321.984 331.2 
L 326.448 319.68 
L 330.912 331.2 
L 335.376 319.68 
L 339.84 331.2 
L 344.304 342.72 
L 348.768 354.24 
L 353.232 342.72 
L 357.696 354.24 
L 362.16 342.72 
L 366.624 354.24 
L 371.088 365.76 
L 375.552 377.28 
L 380.016 365.76 
L 384.48 354.24 
L 388.944 342.72 
L 393.408 331.2 
L 397.872 319.68 
L 402.336 308.16 
L 406.8 319.68 
L 411.264 331.2 
L 415.728 319.68 
L 420.192 331.2 
L 424.656 342.72 
L 429.12 331.2 
L 433.584 342.72 
L 438.048 331.2 
L 442.512 319.68 
L 446.976 331.2 
L 451.44 342.72 
L 455.904 331.2 
L 460.368 319.68 
L 464.832 331.2 
L 469.296 319.68 
L 473.76 331.2 
L 478.224 319.68 
L 482.688 331.2 
L 487.152 319.68 
L 491.616 331.2 
L 496.08 319.68 
L 500.544 331.2 
L 505.008 319.68 
L 509.472 331.2 
L 513.936 342.72 
" style="fill:none;stroke:#0000ff;stroke-linecap:square;"/>
   </g>
   <g id="line2d_2">
    <path clip-path="url(#p8086017bd6)" d="M 76.464 227.52 
L 80.928 216 
L 85.392 227.52 
L 89.856 216 
L 94.32 227.52 
L 98.784 239.04 
L 103.248 227.52 
L 107.712 216 
L 112.176 227.52 
L 116.64 239.04 
L 121.104 227.52 
L 125.568 216 
L 130.032 204.48 
L 134.496 216 
L 138.96 227.52 
L 143.424 239.04 
L 147.888 227.52 
L 152.352 239.04 
L 156.816 227.52 
L 161.28 239.04 
L 165.744 227.52 
L 170.208 216 
L 174.672 204.48 
L 179.136 216 
L 183.6 204.48 
L 188.064 192.96 
L 192.528 204.48 
L 196.992 216 
L 201.456 204.48 
L 205.92 216 
L 210.384 204.48 
L 214.848 192.96 
L 219.312 204.48 
L 223.776 216 
L 228.24 227.52 
L 232.704 216 
L 237.168 204.48 
L 241.632 216 
L 246.096 204.48 
L 250.56 216 
L 255.024 227.52 
L 259.488 239.04 
L 263.952 250.56 
L 268.416 262.08 
L 272.88 250.56 
L 277.344 262.08 
L 281.808 273.6 
L 286.272 262.08 
L 290.736 250.56 
L 295.2 262.08 
L 299.664 250.56 
L 304.128 262.08 
L 308.592 250.56 
L 313.056 239.04 
L 317.52 227.52 
L 321.984 216 
L 326.448 204.48 
L 330.912 192.96 
L 335.376 181.44 
L 339.84 192.96 
L 344.304 181.44 
L 348.768 192.96 
L 353.232 181.44 
L 357.696 192.96 
L 362.16 181.44 
L 366.624 192.96 
L 371.088 181.44 
L 375.552 192.96 
L 380.016 204.48 
L 384.48 192.96 
L 388.944 181.44 
L 393.408 169.92 
L 397.872 181.44 
L 402.336 192.96 
L 406.8 204.48 
L 411.264 216 
L 415.728 227.52 
L 420.192 239.04 
L 424.656 250.56 
L 429.12 262.08 
L 433.584 273.6 
L 438.048 285.12 
L 442.512 273.6 
L 446.976 285.12 
L 451.44 296.64 
L 455.904 308.16 
L 460.368 296.64 
L 464.832 285.12 
L 469.296 273.6 
L 473.76 262.08 
L 478.224 250.56 
L 482.688 239.04 
L 487.152 250.56 
L 491.616 262.08 
L 496.08 250.56 
L 500.544 239.04 
L 505.008 250.56 
L 509.472 239.04 
L 513.936 250.56 
" style="fill:none;stroke:#008000;stroke-linecap:square;"/>
   </g>
   <g id="line2d_3">
    <path clip-path="url(#p8086017bd6)" d="M 76.464 227.52 
L 80.928 239.04 
L 85.392 227.52 
L 89.856 239.04 
L 94.32 250.56 
L 98.784 239.04 
L 103.248 250.56 
L 107.712 239.04 
L 112.176 227.52 
L 116.64 239.04 
L 121.104 250.56 
L 125.568 262.08 
L 130.032 273.6 
L 134.496 285.12 
L 138.96 273.6 
L 143.424 285.12 
L 147.888 273.6 
L 152.352 262.08 
L 156.816 250.56 
L 161.28 239.04 
L 165.744 227.52 
L 170.208 239.04 
L 174.672 250.56 
L 179.136 262.08 
L 183.6 273.6 
L 188.064 285.12 
L 192.528 273.6 
L 196.992 285.12 
L 201.456 273.6 
L 205.92 262.08 
L 210.384 273.6 
L 214.848 262.08 
L 219.312 250.56 
L 223.776 262.08 
L 228.24 273.6 
L 232.704 262.08 
L 237.168 273.6 
L 241.632 262.08 
L 246.096 250.56 
L 250.56 239.04 
L 255.024 227.52 
L 259.488 239.04 
L 263.952 250.56 
L 268.416 262.08 
L 272.88 250.56 
L 277.344 239.04 
L 281.808 250.56 
L 286.272 239.04 
L 290.736 250.56 
L 295.2 239.04 
L 299.664 250.56 
L 304.128 239.04 
L 308.592 227.52 
L 313.056 239.04 
L 317.52 227.52 
L 321.984 216 
L 326.448 204.48 
L 330.912 192.96 
L 335.376 204.48 
L 339.84 192.96 
L 344.304 181.44 
L 348.768 169.92 
L 353.232 181.44 
L 357.696 169.92 
L 362.16 158.4 
L 366.624 169.92 
L 371.088 158.4 
L 375.552 169.92 
L 380.016 158.4 
L 384.48 146.88 
L 388.944 158.4 
L 393.408 169.92 
L 397.872 181.44 
L 402.336 192.96 
L 406.8 181.44 
L 411.264 192.96 
L 415.728 181.44 
L 420.192 169.92 
L 424.656 181.44 
L 429.12 169.92 
L 433.584 158.4 
L 438.048 169.92 
L 442.512 158.4 
L 446.976 146.88 
L 451.44 135.36 
L 455.904 123.84 
L 460.368 135.36 
L 464.832 146.88 
L 469.296 135.36 
L 473.76 123.84 
L 478.224 112.32 
L 482.688 100.8 
L 487.152 89.28 
L 491.616 77.76 
L 496.08 89.28 
L 500.544 77.76 
L 505.008 89.28 
L 509.472 77.76 
L 513.936 89.28 
" style="fill:none;stroke:#ff0000;stroke-linecap:square;"/>
   </g>
   <g id="line2d_4">
    <path clip-path="url(#p8086017bd6)" d="M 76.464 227.52 
L 80.928 239.04 
L 85.392 227.52 
L 89.856 239.04 
L 94.32 227.52 
L 98.784 216 
L 103.248 227.52 
L 107.712 216 
L 112.176 227.52 
L 116.64 239.04 
L 121.104 250.56 
L 125.568 239.04 
L 130.032 250.56 
L 134.496 239.04 
L 138.96 227.52 
L 143.424 239.04 
L 147.888 227.52 
L 152.352 216 
L 156.816 227.52 
L 161.28 239.04 
L 165.744 250.56 
L 170.208 262.08 
L 174.672 273.6 
L 179.136 262.08 
L 183.6 250.56 
L 188.064 239.04 
L 192.528 227.52 
L 196.992 239.04 
L 201.456 227.52 
L 205.92 239.04 
L 210.384 227.52 
L 214.848 239.04 
L 219.312 227.52 
L 223.776 239.04 
L 228.24 250.56 
L 232.704 239.04 
L 237.168 227.52 
L 241.632 216 
L 246.096 227.52 
L 250.56 216 
L 255.024 227.52 
L 259.488 239.04 
L 263.952 250.56 
L 268.416 239.04 
L 272.88 227.52 
L 277.344 239.04 
L 281.808 227.52 
L 286.272 239.04 
L 290.736 227.52 
L 295.2 216 
L 299.664 204.48 
L 304.128 216 
L 308.592 227.52 
L 313.056 216 
L 317.52 204.48 
L 321.984 192.96 
L 326.448 204.48 
L 330.912 192.96 
L 335.376 204.48 
L 339.84 216 
L 344.304 204.48 
L 348.768 216 
L 353.232 204.48 
L 357.696 192.96 
L 362.16 204.48 
L 366.624 192.96 
L 371.088 204.48 
L 375.552 216 
L 380.016 204.48 
L 384.48 216 
L 388.944 227.52 
L 393.408 239.04 
L 397.872 250.56 
L 402.336 239.04 
L 406.8 250.56 
L 411.264 262.08 
L 415.728 273.6 
L 420.192 285.12 
L 424.656 273.6 
L 429.12 262.08 
L 433.584 273.6 
L 438.048 262.08 
L 442.512 273.6 
L 446.976 262.08 
L 451.44 273.6 
L 455.904 262.08 
L 460.368 250.56 
L 464.832 262.08 
L 469.296 250.56 
L 473.76 262.08 
L 478.224 250.56 
L 482.688 239.04 
L 487.152 227.52 
L 491.616 239.04 
L 496.08 227.52 
L 500.544 239.04 
L 505.008 227.52 
L 509.472 216 
L 513.936 227.52 
" style="fill:none;stroke:#00bfbf;stroke-linecap:square;"/>
   </g>
   <g id="line2d_5">
    <path clip-path="url(#p8086017bd6)" d="M 76.464 204.48 
L 80.928 192.96 
L 85.392 181.44 
L 89.856 169.92 
L 94.32 158.4 
L 98.784 146.88 
L 103.248 158.4 
L 107.712 169.92 
L 112.176 181.44 
L 116.64 192.96 
L 121.104 204.48 
L 125.568 216 
L 130.032 204.48 
L 134.496 216 
L 138.96 204.48 
L 143.424 216 
L 147.888 227.52 
L 152.352 239.04 
L 156.816 227.52 
L 161.28 239.04 
L 165.744 250.56 
L 170.208 262.08 
L 174.672 273.6 
L 179.136 262.08 
L 183.6 250.56 
L 188.064 239.04 
L 192.528 227.52 
L 196.992 216 
L 201.456 204.48 
L 205.92 192.96 
L 210.384 181.44 
L 214.848 192.96 
L 219.312 204.48 
L 223.776 192.96 
L 228.24 204.48 
L 232.704 216 
L 237.168 204.48 
L 241.632 216 
L 246.096 204.48 
L 250.56 216 
L 255.024 204.48 
L 259.488 216 
L 263.952 227.52 
L 268.416 239.04 
L 272.88 250.56 
L 277.344 239.04 
L 281.808 250.56 
L 286.272 262.08 
L 290.736 273.6 
L 295.2 285.12 
L 299.664 296.64 
L 304.128 285.12 
L 308.592 296.64 
L 313.056 308.16 
L 317.52 319.68 
L 321.984 308.16 
L 326.448 319.68 
L 330.912 331.2 
L 335.376 319.68 
L 339.84 308.16 
L 344.304 296.64 
L 348.768 285.12 
L 353.232 273.6 
L 357.696 285.12 
L 362.16 296.64 
L 366.624 308.16 
L 371.088 319.68 
L 375.552 308.16 
L 380.016 296.64 
L 384.48 308.16 
L 388.944 296.64 
L 393.408 308.16 
L 397.872 296.64 
L 402.336 285.12 
L 406.8 296.64 
L 411.264 308.16 
L 415.728 319.68 
L 420.192 331.2 
L 424.656 319.68 
L 429.12 331.2 
L 433.584 319.68 
L 438.048 308.16 
L 442.512 319.68 
L 446.976 331.2 
L 451.44 319.68 
L 455.904 331.2 
L 460.368 319.68 
L 464.832 308.16 
L 469.296 296.64 
L 473.76 308.16 
L 478.224 319.68 
L 482.688 308.16 
L 487.152 319.68 
L 491.616 331.2 
L 496.08 342.72 
L 500.544 354.24 
L 505.008 365.76 
L 509.472 354.24 
L 513.936 342.72 
" style="fill:none;stroke:#bf00bf;stroke-linecap:square;"/>
   </g>
   <g id="line2d_6">
    <path clip-path="url(#p8086017bd6)" d="M 76.464 204.48 
L 80.928 216 
L 85.392 204.48 
L 89.856 216 
L 94.32 204.48 
L 98.784 192.96 
L 103.248 181.44 
L 107.712 192.96 
L 112.176 181.44 
L 116.64 169.92 
L 121.104 181.44 
L 125.568 192.96 
L 130.032 181.44 
L 134.496 169.92 
L 138.96 181.44 
L 143.424 169.92 
L 147.888 158.4 
L 152.352 169.92 
L 156.816 181.44 
L 161.28 192.96 
L 165.744 181.44 
L 170.208 192.96 
L 174.672 181.44 
L 179.136 192.96 
L 183.6 181.44 
L 188.064 192.96 
L 192.528 204.48 
L 196.992 192.96 
L 201.456 204.48 
L 205.92 192.96 
L 210.384 181.44 
L 214.848 169.92 
L 219.312 158.4 
L 223.776 169.92 
L 228.24 181.44 
L 232.704 192.96 
L 237.168 181.44 
L 241.632 169.92 
L 246.096 158.4 
L 250.56 146.88 
L 255.024 135.36 
L 259.488 146.88 
L 263.952 158.4 
L 268.416 169.92 
L 272.88 158.4 
L 277.344 146.88 
L 281.808 135.36 
L 286.272 146.88 
L 290.736 135.36 
L 295.2 146.88 
L 299.664 158.4 
L 304.128 146.88 
L 308.592 158.4 
L 313.056 146.88 
L 317.52 158.4 
L 321.984 169.92 
L 326.448 181.44 
L 330.912 169.92 
L 335.376 158.4 
L 339.84 169.92 
L 344.304 158.4 
L 348.768 169.92 
L 353.232 158.4 
L 357.696 169.92 
L 362.16 181.44 
L 366.624 192.96 
L 371.088 204.48 
L 375.552 192.96 
L 380.016 204.48 
L 384.48 216 
L 388.944 227.52 
L 393.408 239.04 
L 397.872 250.56 
L 402.336 262.08 
L 406.8 250.56 
L 411.264 262.08 
L 415.728 273.6 
L 420.192 285.12 
L 424.656 296.64 
L 429.12 308.16 
L 433.584 319.68 
L 438.048 331.2 
L 442.512 319.68 
L 446.976 331.2 
L 451.44 342.72 
L 455.904 331.2 
L 460.368 342.72 
L 464.832 354.24 
L 469.296 365.76 
L 473.76 377.28 
L 478.224 365.76 
L 482.688 377.28 
L 487.152 365.76 
L 491.616 354.24 
L 496.08 365.76 
L 500.544 354.24 
L 505.008 342.72 
L 509.472 331.2 
L 513.936 319.68 
" style="fill:none;stroke:#bfbf00;stroke-linecap:square;"/>
   </g>
   <g id="line2d_7">
    <path clip-path="url(#p8086017bd6)" d="M 76.464 227.52 
L 80.928 216 
L 85.392 204.48 
L 89.856 192.96 
L 94.32 204.48 
L 98.784 192.96 
L 103.248 181.44 
L 107.712 192.96 
L 112.176 204.48 
L 116.64 216 
L 121.104 204.48 
L 125.568 216 
L 130.032 204.48 
L 134.496 216 
L 138.96 227.52 
L 143.424 239.04 
L 147.888 250.56 
L 152.352 239.04 
L 156.816 250.56 
L 161.28 262.08 
L 165.744 250.56 
L 170.208 262.08 
L 174.672 250.56 
L 179.136 239.04 
L 183.6 227.52 
L 188.064 239.04 
L 192.528 250.56 
L 196.992 239.04 
L 201.456 250.56 
L 205.92 262.08 
L 210.384 250.56 
L 214.848 239.04 
L 219.312 250.56 
L 223.776 239.04 
L 228.24 250.56 
L 232.704 239.04 
L 237.168 227.52 
L 241.632 239.04 
L 246.096 250.56 
L 250.56 239.04 
L 255.024 250.56 
L 259.488 262.08 
L 263.952 273.6 
L 268.416 262.08 
L 272.88 273.6 
L 277.344 262.08 
L 281.808 250.56 
L 286.272 239.04 
L 290.736 227.52 
L 295.2 216 
L 299.664 227.52 
L 304.128 216 
L 308.592 227.52 
L 313.056 239.04 
L 317.52 250.56 
L 321.984 262.08 
L 326.448 273.6 
L 330.912 262.08 
L 335.376 273.6 
L 339.84 262.08 
L 344.304 273.6 
L 348.768 285.12 
L 353.232 273.6 
L 357.696 285.12 
L 362.16 273.6 
L 366.624 262.08 
L 371.088 273.6 
L 375.552 262.08 
L 380.016 250.56 
L 384.48 262.08 
L 388.944 250.56 
L 393.408 262.08 
L 397.872 273.6 
L 402.336 262.08 
L 406.8 273.6 
L 411.264 262.08 
L 415.728 250.56 
L 420.192 239.04 
L 424.656 227.52 
L 429.12 216 
L 433.584 227.52 
L 438.048 239.04 
L 442.512 250.56 
L 446.976 239.04 
L 451.44 250.56 
L 455.904 262.08 
L 460.368 273.6 
L 464.832 262.08 
L 469.296 273.6 
L 473.76 262.08 
L 478.224 273.6 
L 482.688 262.08 
L 487.152 273.6 
L 491.616 285.12 
L 496.08 273.6 
L 500.544 285.12 
L 505.008 273.6 
L 509.472 285.12 
L 513.936 273.6 
" style="fill:none;stroke:#000000;stroke-linecap:square;"/>
   </g>
   <g id="line2d_8">
    <path clip-path="url(#p8086017bd6)" d="M 76.464 227.52 
L 80.928 239.04 
L 85.392 227.52 
L 89.856 239.04 
L 94.32 250.56 
L 98.784 239.04 
L 103.248 250.56 
L 107.712 239.04 
L 112.176 227.52 
L 116.64 216 
L 121.104 204.48 
L 125.568 216 
L 130.032 227.52 
L 134.496 239.04 
L 138.96 250.56 
L 143.424 239.04 
L 147.888 227.52 
L 152.352 239.04 
L 156.816 227.52 
L 161.28 216 
L 165.744 204.48 
L 170.208 216 
L 174.672 227.52 
L 179.136 216 
L 183.6 227.52 
L 188.064 239.04 
L 192.528 227.52 
L 196.992 216 
L 201.456 227.52 
L 205.92 239.04 
L 210.384 250.56 
L 214.848 239.04 
L 219.312 227.52 
L 223.776 216 
L 228.24 204.48 
L 232.704 216 
L 237.168 227.52 
L 241.632 239.04 
L 246.096 227.52 
L 250.56 239.04 
L 255.024 227.52 
L 259.488 216 
L 263.952 204.48 
L 268.416 216 
L 272.88 227.52 
L 277.344 216 
L 281.808 227.52 
L 286.272 216 
L 290.736 204.48 
L 295.2 192.96 
L 299.664 181.44 
L 304.128 169.92 
L 308.592 181.44 
L 313.056 169.92 
L 317.52 181.44 
L 321.984 192.96 
L 326.448 204.48 
L 330.912 192.96 
L 335.376 204.48 
L 339.84 192.96 
L 344.304 204.48 
L 348.768 216 
L 353.232 204.48 
L 357.696 192.96 
L 362.16 204.48 
L 366.624 192.96 
L 371.088 181.44 
L 375.552 192.96 
L 380.016 181.44 
L 384.48 192.96 
L 388.944 181.44 
L 393.408 192.96 
L 397.872 181.44 
L 402.336 169.92 
L 406.8 181.44 
L 411.264 192.96 
L 415.728 204.48 
L 420.192 216 
L 424.656 227.52 
L 429.12 216 
L 433.584 204.48 
L 438.048 216 
L 442.512 227.52 
L 446.976 216 
L 451.44 227.52 
L 455.904 239.04 
L 460.368 227.52 
L 464.832 216 
L 469.296 227.52 
L 473.76 216 
L 478.224 227.52 
L 482.688 216 
L 487.152 204.48 
L 491.616 216 
L 496.08 204.48 
L 500.544 216 
L 505.008 204.48 
L 509.472 192.96 
L 513.936 204.48 
" style="fill:none;stroke:#0000ff;stroke-linecap:square;"/>
   </g>
   <g id="line2d_9">
    <path clip-path="url(#p8086017bd6)" d="M 76.464 227.52 
L 80.928 216 
L 85.392 204.48 
L 89.856 192.96 
L 94.32 204.48 
L 98.784 192.96 
L 103.248 204.48 
L 107.712 192.96 
L 112.176 204.48 
L 116.64 216 
L 121.104 204.48 
L 125.568 216 
L 130.032 227.52 
L 134.496 239.04 
L 138.96 250.56 
L 143.424 239.04 
L 147.888 227.52 
L 152.352 239.04 
L 156.816 227.52 
L 161.28 239.04 
L 165.744 250.56 
L 170.208 239.04 
L 174.672 250.56 
L 179.136 262.08 
L 183.6 273.6 
L 188.064 262.08 
L 192.528 273.6 
L 196.992 285.12 
L 201.456 273.6 
L 205.92 262.08 
L 210.384 250.56 
L 214.848 262.08 
L 219.312 273.6 
L 223.776 285.12 
L 228.24 296.64 
L 232.704 285.12 
L 237.168 296.64 
L 241.632 285.12 
L 246.096 296.64 
L 250.56 308.16 
L 255.024 319.68 
L 259.488 331.2 
L 263.952 319.68 
L 268.416 308.16 
L 272.88 319.68 
L 277.344 308.16 
L 281.808 296.64 
L 286.272 308.16 
L 290.736 319.68 
L 295.2 331.2 
L 299.664 342.72 
L 304.128 354.24 
L 308.592 342.72 
L 313.056 331.2 
L 317.52 319.68 
L 321.984 331.2 
L 326.448 319.68 
L 330.912 308.16 
L 335.376 296.64 
L 339.84 285.12 
L 344.304 273.6 
L 348.768 285.12 
L 353.232 273.6 
L 357.696 262.08 
L 362.16 250.56 
L 366.624 239.04 
L 371.088 227.52 
L 375.552 216 
L 380.016 227.52 
L 384.48 216 
L 388.944 227.52 
L 393.408 239.04 
L 397.872 227.52 
L 402.336 216 
L 406.8 227.52 
L 411.264 216 
L 415.728 227.52 
L 420.192 216 
L 424.656 227.52 
L 429.12 239.04 
L 433.584 227.52 
L 438.048 216 
L 442.512 227.52 
L 446.976 216 
L 451.44 204.48 
L 455.904 192.96 
L 460.368 181.44 
L 464.832 169.92 
L 469.296 181.44 
L 473.76 192.96 
L 478.224 181.44 
L 482.688 192.96 
L 487.152 204.48 
L 491.616 192.96 
L 496.08 204.48 
L 500.544 216 
L 505.008 227.52 
L 509.472 216 
L 513.936 204.48 
" style="fill:none;stroke:#008000;stroke-linecap:square;"/>
   </g>
   <g id="line2d_10">
    <path clip-path="url(#p8086017bd6)" d="M 76.464 204.48 
L 80.928 216 
L 85.392 204.48 
L 89.856 192.96 
L 94.32 204.48 
L 98.784 216 
L 103.248 204.48 
L 107.712 216 
L 112.176 227.52 
L 116.64 216 
L 121.104 204.48 
L 125.568 192.96 
L 130.032 181.44 
L 134.496 169.92 
L 138.96 158.4 
L 143.424 169.92 
L 147.888 158.4 
L 152.352 146.88 
L 156.816 135.36 
L 161.28 123.84 
L 165.744 135.36 
L 170.208 123.84 
L 174.672 135.36 
L 179.136 123.84 
L 183.6 112.32 
L 188.064 100.8 
L 192.528 112.32 
L 196.992 100.8 
L 201.456 89.28 
L 205.92 100.8 
L 210.384 89.28 
L 214.848 77.76 
L 219.312 89.28 
L 223.776 100.8 
L 228.24 112.32 
L 232.704 123.84 
L 237.168 112.32 
L 241.632 100.8 
L 246.096 112.32 
L 250.56 100.8 
L 255.024 112.32 
L 259.488 100.8 
L 263.952 112.32 
L 268.416 100.8 
L 272.88 89.28 
L 277.344 77.76 
L 281.808 89.28 
L 286.272 77.76 
L 290.736 89.28 
L 295.2 100.8 
L 299.664 112.32 
L 304.128 123.84 
L 308.592 112.32 
L 313.056 123.84 
L 317.52 135.36 
L 321.984 123.84 
L 326.448 135.36 
L 330.912 123.84 
L 335.376 112.32 
L 339.84 100.8 
L 344.304 89.28 
L 348.768 100.8 
L 353.232 112.32 
L 357.696 123.84 
L 362.16 135.36 
L 366.624 123.84 
L 371.088 135.36 
L 375.552 146.88 
L 380.016 135.36 
L 384.48 146.88 
L 388.944 158.4 
L 393.408 169.92 
L 397.872 158.4 
L 402.336 169.92 
L 406.8 158.4 
L 411.264 169.92 
L 415.728 181.44 
L 420.192 169.92 
L 424.656 181.44 
L 429.12 192.96 
L 433.584 204.48 
L 438.048 192.96 
L 442.512 204.48 
L 446.976 216 
L 451.44 227.52 
L 455.904 239.04 
L 460.368 227.52 
L 464.832 216 
L 469.296 204.48 
L 473.76 216 
L 478.224 204.48 
L 482.688 192.96 
L 487.152 204.48 
L 491.616 192.96 
L 496.08 204.48 
L 500.544 192.96 
L 505.008 181.44 
L 509.472 169.92 
L 513.936 181.44 
" style="fill:none;stroke:#ff0000;stroke-linecap:square;"/>
   </g>
   <g id="line2d_11">
    <path clip-path="url(#p8086017bd6)" d="M 72 331.18848 
L 518.4 331.18848 
" style="fill:none;stroke:#ff0000;stroke-linecap:square;"/>
   </g>
   <g id="patch_3">
    <path d="M 518.4 388.8 
L 518.4 43.2 
" style="fill:none;stroke:#000000;stroke-linecap:square;stroke-linejoin:miter;"/>
   </g>
   <g id="patch_4">
    <path d="M 72 43.2 
L 518.4 43.2 
" style="fill:none;stroke:#000000;stroke-linecap:square;stroke-linejoin:miter;"/>
   </g>
   <g id="patch_5">
    <path d="M 72 388.8 
L 72 43.2 
" style="fill:none;stroke:#000000;stroke-linecap:square;stroke-linejoin:miter;"/>
   </g>
   <g id="patch_6">
    <path d="M 72 388.8 
L 518.4 388.8 
" style="fill:none;stroke:#000000;stroke-linecap:square;stroke-linejoin:miter;"/>
   </g>
   <g id="matplotlib.axis_1">
    <g id="xtick_1">
     <g id="line2d_12">
      <defs>
       <path d="M 0 0 
L 0 -4 
" id="mdfee8d3070" style="stroke:#000000;stroke-width:0.5;"/>
      </defs>
      <g>
       <use style="stroke:#000000;stroke-width:0.5;" x="72.0" xlink:href="#mdfee8d3070" y="388.8"/>
      </g>
     </g>
     <g id="line2d_13">
      <defs>
       <path d="M 0 0 
L 0 4 
" id="m4ec33474df" style="stroke:#000000;stroke-width:0.5;"/>
      </defs>
      <g>
       <use style="stroke:#000000;stroke-width:0.5;" x="72.0" xlink:href="#m4ec33474df" y="43.19999999999999"/>
      </g>
     </g>
     <g id="text_1">
      <!-- 0 -->
      <defs>
       <path d="M 31.78125 66.40625 
Q 24.171875 66.40625 20.328125 58.90625 
Q 16.5 51.421875 16.5 36.375 
Q 16.5 21.390625 20.328125 13.890625 
Q 24.171875 6.390625 31.78125 6.390625 
Q 39.453125 6.390625 43.28125 13.890625 
Q 47.125 21.390625 47.125 36.375 
Q 47.125 51.421875 43.28125 58.90625 
Q 39.453125 66.40625 31.78125 66.40625 
M 31.78125 74.21875 
Q 44.046875 74.21875 50.515625 64.515625 
Q 56.984375 54.828125 56.984375 36.375 
Q 56.984375 17.96875 50.515625 8.265625 
Q 44.046875 -1.421875 31.78125 -1.421875 
Q 19.53125 -1.421875 13.0625 8.265625 
Q 6.59375 17.96875 6.59375 36.375 
Q 6.59375 54.828125 13.0625 64.515625 
Q 19.53125 74.21875 31.78125 74.21875 
" id="BitstreamVeraSans-Roman-30"/>
      </defs>
      <g transform="translate(68.1825 401.91812500000003)scale(0.12 -0.12)">
       <use xlink:href="#BitstreamVeraSans-Roman-30"/>
      </g>
     </g>
    </g>
    <g id="xtick_2">
     <g id="line2d_14">
      <g>
       <use style="stroke:#000000;stroke-width:0.5;" x="161.27999999999997" xlink:href="#mdfee8d3070" y="388.8"/>
      </g>
     </g>
     <g id="line2d_15">
      <g>
       <use style="stroke:#000000;stroke-width:0.5;" x="161.27999999999997" xlink:href="#m4ec33474df" y="43.19999999999999"/>
      </g>
     </g>
     <g id="text_2">
      <!-- 20 -->
      <defs>
       <path d="M 19.1875 8.296875 
L 53.609375 8.296875 
L 53.609375 0 
L 7.328125 0 
L 7.328125 8.296875 
Q 12.9375 14.109375 22.625 23.890625 
Q 32.328125 33.6875 34.8125 36.53125 
Q 39.546875 41.84375 41.421875 45.53125 
Q 43.3125 49.21875 43.3125 52.78125 
Q 43.3125 58.59375 39.234375 62.25 
Q 35.15625 65.921875 28.609375 65.921875 
Q 23.96875 65.921875 18.8125 64.3125 
Q 13.671875 62.703125 7.8125 59.421875 
L 7.8125 69.390625 
Q 13.765625 71.78125 18.9375 73 
Q 24.125 74.21875 28.421875 74.21875 
Q 39.75 74.21875 46.484375 68.546875 
Q 53.21875 62.890625 53.21875 53.421875 
Q 53.21875 48.921875 51.53125 44.890625 
Q 49.859375 40.875 45.40625 35.40625 
Q 44.1875 33.984375 37.640625 27.21875 
Q 31.109375 20.453125 19.1875 8.296875 
" id="BitstreamVeraSans-Roman-32"/>
      </defs>
      <g transform="translate(153.64499999999998 401.91812500000003)scale(0.12 -0.12)">
       <use xlink:href="#BitstreamVeraSans-Roman-32"/>
       <use x="63.623046875" xlink:href="#BitstreamVeraSans-Roman-30"/>
      </g>
     </g>
    </g>
    <g id="xtick_3">
     <g id="line2d_16">
      <g>
       <use style="stroke:#000000;stroke-width:0.5;" x="250.55999999999997" xlink:href="#mdfee8d3070" y="388.8"/>
      </g>
     </g>
     <g id="line2d_17">
      <g>
       <use style="stroke:#000000;stroke-width:0.5;" x="250.55999999999997" xlink:href="#m4ec33474df" y="43.19999999999999"/>
      </g>
     </g>
     <g id="text_3">
      <!-- 40 -->
      <defs>
       <path d="M 37.796875 64.3125 
L 12.890625 25.390625 
L 37.796875 25.390625 
z
M 35.203125 72.90625 
L 47.609375 72.90625 
L 47.609375 25.390625 
L 58.015625 25.390625 
L 58.015625 17.1875 
L 47.609375 17.1875 
L 47.609375 0 
L 37.796875 0 
L 37.796875 17.1875 
L 4.890625 17.1875 
L 4.890625 26.703125 
z
" id="BitstreamVeraSans-Roman-34"/>
      </defs>
      <g transform="translate(242.92499999999998 401.91812500000003)scale(0.12 -0.12)">
       <use xlink:href="#BitstreamVeraSans-Roman-34"/>
       <use x="63.623046875" xlink:href="#BitstreamVeraSans-Roman-30"/>
      </g>
     </g>
    </g>
    <g id="xtick_4">
     <g id="line2d_18">
      <g>
       <use style="stroke:#000000;stroke-width:0.5;" x="339.84" xlink:href="#mdfee8d3070" y="388.8"/>
      </g>
     </g>
     <g id="line2d_19">
      <g>
       <use style="stroke:#000000;stroke-width:0.5;" x="339.84" xlink:href="#m4ec33474df" y="43.19999999999999"/>
      </g>
     </g>
     <g id="text_4">
      <!-- 60 -->
      <defs>
       <path d="M 33.015625 40.375 
Q 26.375 40.375 22.484375 35.828125 
Q 18.609375 31.296875 18.609375 23.390625 
Q 18.609375 15.53125 22.484375 10.953125 
Q 26.375 6.390625 33.015625 6.390625 
Q 39.65625 6.390625 43.53125 10.953125 
Q 47.40625 15.53125 47.40625 23.390625 
Q 47.40625 31.296875 43.53125 35.828125 
Q 39.65625 40.375 33.015625 40.375 
M 52.59375 71.296875 
L 52.59375 62.3125 
Q 48.875 64.0625 45.09375 64.984375 
Q 41.3125 65.921875 37.59375 65.921875 
Q 27.828125 65.921875 22.671875 59.328125 
Q 17.53125 52.734375 16.796875 39.40625 
Q 19.671875 43.65625 24.015625 45.921875 
Q 28.375 48.1875 33.59375 48.1875 
Q 44.578125 48.1875 50.953125 41.515625 
Q 57.328125 34.859375 57.328125 23.390625 
Q 57.328125 12.15625 50.6875 5.359375 
Q 44.046875 -1.421875 33.015625 -1.421875 
Q 20.359375 -1.421875 13.671875 8.265625 
Q 6.984375 17.96875 6.984375 36.375 
Q 6.984375 53.65625 15.1875 63.9375 
Q 23.390625 74.21875 37.203125 74.21875 
Q 40.921875 74.21875 44.703125 73.484375 
Q 48.484375 72.75 52.59375 71.296875 
" id="BitstreamVeraSans-Roman-36"/>
      </defs>
      <g transform="translate(332.205 401.91812500000003)scale(0.12 -0.12)">
       <use xlink:href="#BitstreamVeraSans-Roman-36"/>
       <use x="63.623046875" xlink:href="#BitstreamVeraSans-Roman-30"/>
      </g>
     </g>
    </g>
    <g id="xtick_5">
     <g id="line2d_20">
      <g>
       <use style="stroke:#000000;stroke-width:0.5;" x="429.11999999999995" xlink:href="#mdfee8d3070" y="388.8"/>
      </g>
     </g>
     <g id="line2d_21">
      <g>
       <use style="stroke:#000000;stroke-width:0.5;" x="429.11999999999995" xlink:href="#m4ec33474df" y="43.19999999999999"/>
      </g>
     </g>
     <g id="text_5">
      <!-- 80 -->
      <defs>
       <path d="M 31.78125 34.625 
Q 24.75 34.625 20.71875 30.859375 
Q 16.703125 27.09375 16.703125 20.515625 
Q 16.703125 13.921875 20.71875 10.15625 
Q 24.75 6.390625 31.78125 6.390625 
Q 38.8125 6.390625 42.859375 10.171875 
Q 46.921875 13.96875 46.921875 20.515625 
Q 46.921875 27.09375 42.890625 30.859375 
Q 38.875 34.625 31.78125 34.625 
M 21.921875 38.8125 
Q 15.578125 40.375 12.03125 44.71875 
Q 8.5 49.078125 8.5 55.328125 
Q 8.5 64.0625 14.71875 69.140625 
Q 20.953125 74.21875 31.78125 74.21875 
Q 42.671875 74.21875 48.875 69.140625 
Q 55.078125 64.0625 55.078125 55.328125 
Q 55.078125 49.078125 51.53125 44.71875 
Q 48 40.375 41.703125 38.8125 
Q 48.828125 37.15625 52.796875 32.3125 
Q 56.78125 27.484375 56.78125 20.515625 
Q 56.78125 9.90625 50.3125 4.234375 
Q 43.84375 -1.421875 31.78125 -1.421875 
Q 19.734375 -1.421875 13.25 4.234375 
Q 6.78125 9.90625 6.78125 20.515625 
Q 6.78125 27.484375 10.78125 32.3125 
Q 14.796875 37.15625 21.921875 38.8125 
M 18.3125 54.390625 
Q 18.3125 48.734375 21.84375 45.5625 
Q 25.390625 42.390625 31.78125 42.390625 
Q 38.140625 42.390625 41.71875 45.5625 
Q 45.3125 48.734375 45.3125 54.390625 
Q 45.3125 60.0625 41.71875 63.234375 
Q 38.140625 66.40625 31.78125 66.40625 
Q 25.390625 66.40625 21.84375 63.234375 
Q 18.3125 60.0625 18.3125 54.390625 
" id="BitstreamVeraSans-Roman-38"/>
      </defs>
      <g transform="translate(421.48499999999996 401.91812500000003)scale(0.12 -0.12)">
       <use xlink:href="#BitstreamVeraSans-Roman-38"/>
       <use x="63.623046875" xlink:href="#BitstreamVeraSans-Roman-30"/>
      </g>
     </g>
    </g>
    <g id="xtick_6">
     <g id="line2d_22">
      <g>
       <use style="stroke:#000000;stroke-width:0.5;" x="518.4" xlink:href="#mdfee8d3070" y="388.8"/>
      </g>
     </g>
     <g id="line2d_23">
      <g>
       <use style="stroke:#000000;stroke-width:0.5;" x="518.4" xlink:href="#m4ec33474df" y="43.19999999999999"/>
      </g>
     </g>
     <g id="text_6">
      <!-- 100 -->
      <defs>
       <path d="M 12.40625 8.296875 
L 28.515625 8.296875 
L 28.515625 63.921875 
L 10.984375 60.40625 
L 10.984375 69.390625 
L 28.421875 72.90625 
L 38.28125 72.90625 
L 38.28125 8.296875 
L 54.390625 8.296875 
L 54.390625 0 
L 12.40625 0 
z
" id="BitstreamVeraSans-Roman-31"/>
      </defs>
      <g transform="translate(506.9475 401.91812500000003)scale(0.12 -0.12)">
       <use xlink:href="#BitstreamVeraSans-Roman-31"/>
       <use x="63.623046875" xlink:href="#BitstreamVeraSans-Roman-30"/>
       <use x="127.24609375" xlink:href="#BitstreamVeraSans-Roman-30"/>
      </g>
     </g>
    </g>
    <g id="text_7">
     <!-- wage_count -->
     <defs>
      <path d="M 54.890625 33.015625 
L 54.890625 0 
L 45.90625 0 
L 45.90625 32.71875 
Q 45.90625 40.484375 42.875 44.328125 
Q 39.84375 48.1875 33.796875 48.1875 
Q 26.515625 48.1875 22.3125 43.546875 
Q 18.109375 38.921875 18.109375 30.90625 
L 18.109375 0 
L 9.078125 0 
L 9.078125 54.6875 
L 18.109375 54.6875 
L 18.109375 46.1875 
Q 21.34375 51.125 25.703125 53.5625 
Q 30.078125 56 35.796875 56 
Q 45.21875 56 50.046875 50.171875 
Q 54.890625 44.34375 54.890625 33.015625 
" id="BitstreamVeraSans-Roman-6e"/>
      <path d="M 48.78125 52.59375 
L 48.78125 44.1875 
Q 44.96875 46.296875 41.140625 47.34375 
Q 37.3125 48.390625 33.40625 48.390625 
Q 24.65625 48.390625 19.8125 42.84375 
Q 14.984375 37.3125 14.984375 27.296875 
Q 14.984375 17.28125 19.8125 11.734375 
Q 24.65625 6.203125 33.40625 6.203125 
Q 37.3125 6.203125 41.140625 7.25 
Q 44.96875 8.296875 48.78125 10.40625 
L 48.78125 2.09375 
Q 45.015625 0.34375 40.984375 -0.53125 
Q 36.96875 -1.421875 32.421875 -1.421875 
Q 20.0625 -1.421875 12.78125 6.34375 
Q 5.515625 14.109375 5.515625 27.296875 
Q 5.515625 40.671875 12.859375 48.328125 
Q 20.21875 56 33.015625 56 
Q 37.15625 56 41.109375 55.140625 
Q 45.0625 54.296875 48.78125 52.59375 
" id="BitstreamVeraSans-Roman-63"/>
      <path d="M 8.5 21.578125 
L 8.5 54.6875 
L 17.484375 54.6875 
L 17.484375 21.921875 
Q 17.484375 14.15625 20.5 10.265625 
Q 23.53125 6.390625 29.59375 6.390625 
Q 36.859375 6.390625 41.078125 11.03125 
Q 45.3125 15.671875 45.3125 23.6875 
L 45.3125 54.6875 
L 54.296875 54.6875 
L 54.296875 0 
L 45.3125 0 
L 45.3125 8.40625 
Q 42.046875 3.421875 37.71875 1 
Q 33.40625 -1.421875 27.6875 -1.421875 
Q 18.265625 -1.421875 13.375 4.4375 
Q 8.5 10.296875 8.5 21.578125 
" id="BitstreamVeraSans-Roman-75"/>
      <path d="M 34.28125 27.484375 
Q 23.390625 27.484375 19.1875 25 
Q 14.984375 22.515625 14.984375 16.5 
Q 14.984375 11.71875 18.140625 8.90625 
Q 21.296875 6.109375 26.703125 6.109375 
Q 34.1875 6.109375 38.703125 11.40625 
Q 43.21875 16.703125 43.21875 25.484375 
L 43.21875 27.484375 
z
M 52.203125 31.203125 
L 52.203125 0 
L 43.21875 0 
L 43.21875 8.296875 
Q 40.140625 3.328125 35.546875 0.953125 
Q 30.953125 -1.421875 24.3125 -1.421875 
Q 15.921875 -1.421875 10.953125 3.296875 
Q 6 8.015625 6 15.921875 
Q 6 25.140625 12.171875 29.828125 
Q 18.359375 34.515625 30.609375 34.515625 
L 43.21875 34.515625 
L 43.21875 35.40625 
Q 43.21875 41.609375 39.140625 45 
Q 35.0625 48.390625 27.6875 48.390625 
Q 23 48.390625 18.546875 47.265625 
Q 14.109375 46.140625 10.015625 43.890625 
L 10.015625 52.203125 
Q 14.9375 54.109375 19.578125 55.046875 
Q 24.21875 56 28.609375 56 
Q 40.484375 56 46.34375 49.84375 
Q 52.203125 43.703125 52.203125 31.203125 
" id="BitstreamVeraSans-Roman-61"/>
      <path d="M 50.984375 -16.609375 
L 50.984375 -23.578125 
L -0.984375 -23.578125 
L -0.984375 -16.609375 
z
" id="BitstreamVeraSans-Roman-5f"/>
      <path d="M 18.3125 70.21875 
L 18.3125 54.6875 
L 36.8125 54.6875 
L 36.8125 47.703125 
L 18.3125 47.703125 
L 18.3125 18.015625 
Q 18.3125 11.328125 20.140625 9.421875 
Q 21.96875 7.515625 27.59375 7.515625 
L 36.8125 7.515625 
L 36.8125 0 
L 27.59375 0 
Q 17.1875 0 13.234375 3.875 
Q 9.28125 7.765625 9.28125 18.015625 
L 9.28125 47.703125 
L 2.6875 47.703125 
L 2.6875 54.6875 
L 9.28125 54.6875 
L 9.28125 70.21875 
z
" id="BitstreamVeraSans-Roman-74"/>
      <path d="M 45.40625 27.984375 
Q 45.40625 37.75 41.375 43.109375 
Q 37.359375 48.484375 30.078125 48.484375 
Q 22.859375 48.484375 18.828125 43.109375 
Q 14.796875 37.75 14.796875 27.984375 
Q 14.796875 18.265625 18.828125 12.890625 
Q 22.859375 7.515625 30.078125 7.515625 
Q 37.359375 7.515625 41.375 12.890625 
Q 45.40625 18.265625 45.40625 27.984375 
M 54.390625 6.78125 
Q 54.390625 -7.171875 48.1875 -13.984375 
Q 42 -20.796875 29.203125 -20.796875 
Q 24.46875 -20.796875 20.265625 -20.09375 
Q 16.0625 -19.390625 12.109375 -17.921875 
L 12.109375 -9.1875 
Q 16.0625 -11.328125 19.921875 -12.34375 
Q 23.78125 -13.375 27.78125 -13.375 
Q 36.625 -13.375 41.015625 -8.765625 
Q 45.40625 -4.15625 45.40625 5.171875 
L 45.40625 9.625 
Q 42.625 4.78125 38.28125 2.390625 
Q 33.9375 0 27.875 0 
Q 17.828125 0 11.671875 7.65625 
Q 5.515625 15.328125 5.515625 27.984375 
Q 5.515625 40.671875 11.671875 48.328125 
Q 17.828125 56 27.875 56 
Q 33.9375 56 38.28125 53.609375 
Q 42.625 51.21875 45.40625 46.390625 
L 45.40625 54.6875 
L 54.390625 54.6875 
z
" id="BitstreamVeraSans-Roman-67"/>
      <path d="M 30.609375 48.390625 
Q 23.390625 48.390625 19.1875 42.75 
Q 14.984375 37.109375 14.984375 27.296875 
Q 14.984375 17.484375 19.15625 11.84375 
Q 23.34375 6.203125 30.609375 6.203125 
Q 37.796875 6.203125 41.984375 11.859375 
Q 46.1875 17.53125 46.1875 27.296875 
Q 46.1875 37.015625 41.984375 42.703125 
Q 37.796875 48.390625 30.609375 48.390625 
M 30.609375 56 
Q 42.328125 56 49.015625 48.375 
Q 55.71875 40.765625 55.71875 27.296875 
Q 55.71875 13.875 49.015625 6.21875 
Q 42.328125 -1.421875 30.609375 -1.421875 
Q 18.84375 -1.421875 12.171875 6.21875 
Q 5.515625 13.875 5.515625 27.296875 
Q 5.515625 40.765625 12.171875 48.375 
Q 18.84375 56 30.609375 56 
" id="BitstreamVeraSans-Roman-6f"/>
      <path d="M 4.203125 54.6875 
L 13.1875 54.6875 
L 24.421875 12.015625 
L 35.59375 54.6875 
L 46.1875 54.6875 
L 57.421875 12.015625 
L 68.609375 54.6875 
L 77.59375 54.6875 
L 63.28125 0 
L 52.6875 0 
L 40.921875 44.828125 
L 29.109375 0 
L 18.5 0 
z
" id="BitstreamVeraSans-Roman-77"/>
      <path d="M 56.203125 29.59375 
L 56.203125 25.203125 
L 14.890625 25.203125 
Q 15.484375 15.921875 20.484375 11.0625 
Q 25.484375 6.203125 34.421875 6.203125 
Q 39.59375 6.203125 44.453125 7.46875 
Q 49.3125 8.734375 54.109375 11.28125 
L 54.109375 2.78125 
Q 49.265625 0.734375 44.1875 -0.34375 
Q 39.109375 -1.421875 33.890625 -1.421875 
Q 20.796875 -1.421875 13.15625 6.1875 
Q 5.515625 13.8125 5.515625 26.8125 
Q 5.515625 40.234375 12.765625 48.109375 
Q 20.015625 56 32.328125 56 
Q 43.359375 56 49.78125 48.890625 
Q 56.203125 41.796875 56.203125 29.59375 
M 47.21875 32.234375 
Q 47.125 39.59375 43.09375 43.984375 
Q 39.0625 48.390625 32.421875 48.390625 
Q 24.90625 48.390625 20.390625 44.140625 
Q 15.875 39.890625 15.1875 32.171875 
z
" id="BitstreamVeraSans-Roman-65"/>
     </defs>
     <g transform="translate(259.1878125 418.198125)scale(0.12 -0.12)">
      <use xlink:href="#BitstreamVeraSans-Roman-77"/>
      <use x="81.787109375" xlink:href="#BitstreamVeraSans-Roman-61"/>
      <use x="143.06640625" xlink:href="#BitstreamVeraSans-Roman-67"/>
      <use x="206.54296875" xlink:href="#BitstreamVeraSans-Roman-65"/>
      <use x="268.06640625" xlink:href="#BitstreamVeraSans-Roman-5f"/>
      <use x="318.06640625" xlink:href="#BitstreamVeraSans-Roman-63"/>
      <use x="373.046875" xlink:href="#BitstreamVeraSans-Roman-6f"/>
      <use x="434.228515625" xlink:href="#BitstreamVeraSans-Roman-75"/>
      <use x="497.607421875" xlink:href="#BitstreamVeraSans-Roman-6e"/>
      <use x="560.986328125" xlink:href="#BitstreamVeraSans-Roman-74"/>
     </g>
    </g>
   </g>
   <g id="matplotlib.axis_2">
    <g id="ytick_1">
     <g id="line2d_24">
      <defs>
       <path d="M 0 0 
L 4 0 
" id="ma3e4438dea" style="stroke:#000000;stroke-width:0.5;"/>
      </defs>
      <g>
       <use style="stroke:#000000;stroke-width:0.5;" x="72.0" xlink:href="#ma3e4438dea" y="388.8"/>
      </g>
     </g>
     <g id="line2d_25">
      <defs>
       <path d="M 0 0 
L -4 0 
" id="maa85ce42cd" style="stroke:#000000;stroke-width:0.5;"/>
      </defs>
      <g>
       <use style="stroke:#000000;stroke-width:0.5;" x="518.4" xlink:href="#maa85ce42cd" y="388.8"/>
      </g>
     </g>
     <g id="text_8">
      <!-- −5000 -->
      <defs>
       <path d="M 10.796875 72.90625 
L 49.515625 72.90625 
L 49.515625 64.59375 
L 19.828125 64.59375 
L 19.828125 46.734375 
Q 21.96875 47.46875 24.109375 47.828125 
Q 26.265625 48.1875 28.421875 48.1875 
Q 40.625 48.1875 47.75 41.5 
Q 54.890625 34.8125 54.890625 23.390625 
Q 54.890625 11.625 47.5625 5.09375 
Q 40.234375 -1.421875 26.90625 -1.421875 
Q 22.3125 -1.421875 17.546875 -0.640625 
Q 12.796875 0.140625 7.71875 1.703125 
L 7.71875 11.625 
Q 12.109375 9.234375 16.796875 8.0625 
Q 21.484375 6.890625 26.703125 6.890625 
Q 35.15625 6.890625 40.078125 11.328125 
Q 45.015625 15.765625 45.015625 23.390625 
Q 45.015625 31 40.078125 35.4375 
Q 35.15625 39.890625 26.703125 39.890625 
Q 22.75 39.890625 18.8125 39.015625 
Q 14.890625 38.140625 10.796875 36.28125 
z
" id="BitstreamVeraSans-Roman-35"/>
       <path d="M 10.59375 35.5 
L 73.1875 35.5 
L 73.1875 27.203125 
L 10.59375 27.203125 
z
" id="BitstreamVeraSans-Roman-2212"/>
      </defs>
      <g transform="translate(27.404375 392.11125)scale(0.12 -0.12)">
       <use xlink:href="#BitstreamVeraSans-Roman-2212"/>
       <use x="83.7890625" xlink:href="#BitstreamVeraSans-Roman-35"/>
       <use x="147.412109375" xlink:href="#BitstreamVeraSans-Roman-30"/>
       <use x="211.03515625" xlink:href="#BitstreamVeraSans-Roman-30"/>
       <use x="274.658203125" xlink:href="#BitstreamVeraSans-Roman-30"/>
      </g>
     </g>
    </g>
    <g id="ytick_2">
     <g id="line2d_26">
      <g>
       <use style="stroke:#000000;stroke-width:0.5;" x="72.0" xlink:href="#ma3e4438dea" y="331.2"/>
      </g>
     </g>
     <g id="line2d_27">
      <g>
       <use style="stroke:#000000;stroke-width:0.5;" x="518.4" xlink:href="#maa85ce42cd" y="331.2"/>
      </g>
     </g>
     <g id="text_9">
      <!-- 0 -->
      <g transform="translate(60.365 334.51125)scale(0.12 -0.12)">
       <use xlink:href="#BitstreamVeraSans-Roman-30"/>
      </g>
     </g>
    </g>
    <g id="ytick_3">
     <g id="line2d_28">
      <g>
       <use style="stroke:#000000;stroke-width:0.5;" x="72.0" xlink:href="#ma3e4438dea" y="273.59999999999997"/>
      </g>
     </g>
     <g id="line2d_29">
      <g>
       <use style="stroke:#000000;stroke-width:0.5;" x="518.4" xlink:href="#maa85ce42cd" y="273.59999999999997"/>
      </g>
     </g>
     <g id="text_10">
      <!-- 5000 -->
      <g transform="translate(37.46 276.91125)scale(0.12 -0.12)">
       <use xlink:href="#BitstreamVeraSans-Roman-35"/>
       <use x="63.623046875" xlink:href="#BitstreamVeraSans-Roman-30"/>
       <use x="127.24609375" xlink:href="#BitstreamVeraSans-Roman-30"/>
       <use x="190.869140625" xlink:href="#BitstreamVeraSans-Roman-30"/>
      </g>
     </g>
    </g>
    <g id="ytick_4">
     <g id="line2d_30">
      <g>
       <use style="stroke:#000000;stroke-width:0.5;" x="72.0" xlink:href="#ma3e4438dea" y="216.0"/>
      </g>
     </g>
     <g id="line2d_31">
      <g>
       <use style="stroke:#000000;stroke-width:0.5;" x="518.4" xlink:href="#maa85ce42cd" y="216.0"/>
      </g>
     </g>
     <g id="text_11">
      <!-- 10000 -->
      <g transform="translate(29.825000000000003 219.31125)scale(0.12 -0.12)">
       <use xlink:href="#BitstreamVeraSans-Roman-31"/>
       <use x="63.623046875" xlink:href="#BitstreamVeraSans-Roman-30"/>
       <use x="127.24609375" xlink:href="#BitstreamVeraSans-Roman-30"/>
       <use x="190.869140625" xlink:href="#BitstreamVeraSans-Roman-30"/>
       <use x="254.4921875" xlink:href="#BitstreamVeraSans-Roman-30"/>
      </g>
     </g>
    </g>
    <g id="ytick_5">
     <g id="line2d_32">
      <g>
       <use style="stroke:#000000;stroke-width:0.5;" x="72.0" xlink:href="#ma3e4438dea" y="158.39999999999998"/>
      </g>
     </g>
     <g id="line2d_33">
      <g>
       <use style="stroke:#000000;stroke-width:0.5;" x="518.4" xlink:href="#maa85ce42cd" y="158.39999999999998"/>
      </g>
     </g>
     <g id="text_12">
      <!-- 15000 -->
      <g transform="translate(29.825000000000003 161.71124999999995)scale(0.12 -0.12)">
       <use xlink:href="#BitstreamVeraSans-Roman-31"/>
       <use x="63.623046875" xlink:href="#BitstreamVeraSans-Roman-35"/>
       <use x="127.24609375" xlink:href="#BitstreamVeraSans-Roman-30"/>
       <use x="190.869140625" xlink:href="#BitstreamVeraSans-Roman-30"/>
       <use x="254.4921875" xlink:href="#BitstreamVeraSans-Roman-30"/>
      </g>
     </g>
    </g>
    <g id="ytick_6">
     <g id="line2d_34">
      <g>
       <use style="stroke:#000000;stroke-width:0.5;" x="72.0" xlink:href="#ma3e4438dea" y="100.79999999999998"/>
      </g>
     </g>
     <g id="line2d_35">
      <g>
       <use style="stroke:#000000;stroke-width:0.5;" x="518.4" xlink:href="#maa85ce42cd" y="100.79999999999998"/>
      </g>
     </g>
     <g id="text_13">
      <!-- 20000 -->
      <g transform="translate(29.825000000000003 104.11124999999998)scale(0.12 -0.12)">
       <use xlink:href="#BitstreamVeraSans-Roman-32"/>
       <use x="63.623046875" xlink:href="#BitstreamVeraSans-Roman-30"/>
       <use x="127.24609375" xlink:href="#BitstreamVeraSans-Roman-30"/>
       <use x="190.869140625" xlink:href="#BitstreamVeraSans-Roman-30"/>
       <use x="254.4921875" xlink:href="#BitstreamVeraSans-Roman-30"/>
      </g>
     </g>
    </g>
    <g id="ytick_7">
     <g id="line2d_36">
      <g>
       <use style="stroke:#000000;stroke-width:0.5;" x="72.0" xlink:href="#ma3e4438dea" y="43.19999999999999"/>
      </g>
     </g>
     <g id="line2d_37">
      <g>
       <use style="stroke:#000000;stroke-width:0.5;" x="518.4" xlink:href="#maa85ce42cd" y="43.19999999999999"/>
      </g>
     </g>
     <g id="text_14">
      <!-- 25000 -->
      <g transform="translate(29.825000000000003 46.51124999999996)scale(0.12 -0.12)">
       <use xlink:href="#BitstreamVeraSans-Roman-32"/>
       <use x="63.623046875" xlink:href="#BitstreamVeraSans-Roman-35"/>
       <use x="127.24609375" xlink:href="#BitstreamVeraSans-Roman-30"/>
       <use x="190.869140625" xlink:href="#BitstreamVeraSans-Roman-30"/>
       <use x="254.4921875" xlink:href="#BitstreamVeraSans-Roman-30"/>
      </g>
     </g>
    </g>
    <g id="text_15">
     <!-- value -->
     <defs>
      <path d="M 2.984375 54.6875 
L 12.5 54.6875 
L 29.59375 8.796875 
L 46.6875 54.6875 
L 56.203125 54.6875 
L 35.6875 0 
L 23.484375 0 
z
" id="BitstreamVeraSans-Roman-76"/>
      <path d="M 9.421875 75.984375 
L 18.40625 75.984375 
L 18.40625 0 
L 9.421875 0 
z
" id="BitstreamVeraSans-Roman-6c"/>
     </defs>
     <g transform="translate(19.908749999999998 232.389375)rotate(-90.0)scale(0.12 -0.12)">
      <use xlink:href="#BitstreamVeraSans-Roman-76"/>
      <use x="59.1796875" xlink:href="#BitstreamVeraSans-Roman-61"/>
      <use x="120.458984375" xlink:href="#BitstreamVeraSans-Roman-6c"/>
      <use x="148.2421875" xlink:href="#BitstreamVeraSans-Roman-75"/>
      <use x="211.62109375" xlink:href="#BitstreamVeraSans-Roman-65"/>
     </g>
    </g>
   </g>
  </g>
 </g>
 <defs>
  <clipPath id="p8086017bd6">
   <rect height="345.6" width="446.4" x="72.0" y="43.19999999999999"/>
  </clipPath>
 </defs>
</svg>
