<?xml version="1.0" encoding="utf-8" standalone="no"?>
<!DOCTYPE svg PUBLIC "-//W3C//DTD SVG 1.1//EN"
  "http://www.w3.org/Graphics/SVG/1.1/DTD/svg11.dtd">
<!-- Created with matplotlib (http://matplotlib.org/) -->
<svg height="432pt" version="1.1" viewBox="0 0 576 432" width="576pt" xmlns="http://www.w3.org/2000/svg" xmlns:xlink="http://www.w3.org/1999/xlink">
 <defs>
  <style type="text/css">
*{stroke-linecap:butt;stroke-linejoin:round;stroke-miterlimit:100000;}
  </style>
 </defs>
 <g id="figure_1">
  <g id="patch_1">
   <path d="M 0 432 
L 576 432 
L 576 0 
L 0 0 
z
" style="fill:#ffffff;"/>
  </g>
  <g id="axes_1">
   <g id="patch_2">
    <path d="M 72 388.8 
L 518.4 388.8 
L 518.4 43.2 
L 72 43.2 
z
" style="fill:#ffffff;"/>
   </g>
   <g id="line2d_1">
    <path clip-path="url(#pc24f011dc9)" d="M 76.464 270.72 
L 80.928 273.6 
L 85.392 267.84 
L 89.856 270.72 
L 94.32 264.96 
L 98.784 267.84 
L 103.248 262.08 
L 107.712 259.2 
L 112.176 262.08 
L 116.64 267.84 
L 121.104 256.32 
L 125.568 253.44 
L 130.032 250.56 
L 134.496 247.68 
L 138.96 244.8 
L 143.424 247.68 
L 147.888 253.44 
L 152.352 264.96 
L 156.816 288 
L 161.28 334.08 
" style="fill:none;stroke:#0000ff;stroke-linecap:square;"/>
   </g>
   <g id="line2d_2">
    <path clip-path="url(#pc24f011dc9)" d="M 76.464 276.48 
L 80.928 282.24 
L 85.392 293.76 
L 89.856 270.72 
L 94.32 273.6 
L 98.784 279.36 
L 103.248 290.88 
L 107.712 267.84 
L 112.176 270.72 
L 116.64 264.96 
L 121.104 267.84 
L 125.568 273.6 
L 130.032 285.12 
L 134.496 308.16 
L 138.96 354.24 
" style="fill:none;stroke:#008000;stroke-linecap:square;"/>
   </g>
   <g id="line2d_3">
    <path clip-path="url(#pc24f011dc9)" d="M 76.464 270.72 
L 80.928 273.6 
L 85.392 267.84 
L 89.856 270.72 
L 94.32 264.96 
L 98.784 267.84 
L 103.248 273.6 
L 107.712 285.12 
L 112.176 262.08 
L 116.64 259.2 
L 121.104 256.32 
L 125.568 253.44 
L 130.032 250.56 
L 134.496 247.68 
L 138.96 250.56 
L 143.424 256.32 
L 147.888 244.8 
L 152.352 247.68 
L 156.816 241.92 
L 161.28 244.8 
L 165.744 250.56 
L 170.208 262.08 
L 174.672 285.12 
L 179.136 331.2 
L 183.6 239.04 
L 188.064 236.16 
L 192.528 239.04 
L 196.992 233.28 
L 201.456 230.4 
L 205.92 227.52 
L 210.384 224.64 
L 214.848 221.76 
L 219.312 218.88 
L 223.776 221.76 
L 228.24 216 
L 232.704 218.88 
L 237.168 224.64 
L 241.632 236.16 
L 246.096 213.12 
L 250.56 210.24 
L 255.024 207.36 
L 259.488 210.24 
L 263.952 204.48 
L 268.416 207.36 
L 272.88 213.12 
L 277.344 224.64 
L 281.808 247.68 
L 286.272 293.76 
L 290.736 201.6 
L 295.2 204.48 
L 299.664 210.24 
L 304.128 198.72 
L 308.592 201.6 
L 313.056 195.84 
L 317.52 198.72 
L 321.984 192.96 
L 326.448 195.84 
L 330.912 201.6 
L 335.376 213.12 
L 339.84 236.16 
L 344.304 282.24 
L 348.768 374.4 
" style="fill:none;stroke:#ff0000;stroke-linecap:square;"/>
   </g>
   <g id="line2d_4">
    <path clip-path="url(#pc24f011dc9)" d="M 76.464 270.72 
L 80.928 273.6 
L 85.392 267.84 
L 89.856 264.96 
L 94.32 267.84 
L 98.784 262.08 
L 103.248 259.2 
L 107.712 262.08 
L 112.176 256.32 
L 116.64 253.44 
L 121.104 250.56 
L 125.568 253.44 
L 130.032 247.68 
L 134.496 244.8 
L 138.96 241.92 
L 143.424 239.04 
L 147.888 236.16 
L 152.352 233.28 
L 156.816 236.16 
L 161.28 241.92 
L 165.744 230.4 
L 170.208 227.52 
L 174.672 224.64 
L 179.136 221.76 
L 183.6 218.88 
L 188.064 216 
L 192.528 213.12 
L 196.992 210.24 
L 201.456 207.36 
L 205.92 210.24 
L 210.384 204.48 
L 214.848 201.6 
L 219.312 198.72 
L 223.776 195.84 
L 228.24 198.72 
L 232.704 192.96 
L 237.168 195.84 
L 241.632 190.08 
L 246.096 187.2 
L 250.56 184.32 
L 255.024 181.44 
L 259.488 184.32 
L 263.952 178.56 
L 268.416 181.44 
L 272.88 187.2 
L 277.344 198.72 
L 281.808 175.68 
L 286.272 172.8 
L 290.736 169.92 
L 295.2 167.04 
L 299.664 164.16 
L 304.128 167.04 
L 308.592 161.28 
L 313.056 158.4 
L 317.52 161.28 
L 321.984 167.04 
L 326.448 178.56 
L 330.912 201.6 
L 335.376 247.68 
L 339.84 155.52 
L 344.304 152.64 
L 348.768 155.52 
L 353.232 149.76 
L 357.696 152.64 
L 362.16 146.88 
L 366.624 149.76 
L 371.088 144 
L 375.552 141.12 
L 380.016 138.24 
L 384.48 135.36 
L 388.944 138.24 
L 393.408 132.48 
L 397.872 135.36 
L 402.336 141.12 
L 406.8 152.64 
L 411.264 129.6 
L 415.728 126.72 
L 420.192 123.84 
L 424.656 120.96 
L 429.12 118.08 
L 433.584 120.96 
L 438.048 115.2 
L 442.512 112.32 
L 446.976 115.2 
L 451.44 109.44 
L 455.904 106.56 
L 460.368 103.68 
L 464.832 106.56 
L 469.296 112.32 
L 473.76 100.8 
L 478.224 103.68 
L 482.688 109.44 
L 487.152 120.96 
L 491.616 97.92 
L 496.08 100.8 
L 500.544 95.04 
L 505.008 97.92 
L 509.472 103.68 
L 513.936 115.2 
L 518.4 138.24 
" style="fill:none;stroke:#00bfbf;stroke-linecap:square;"/>
   </g>
   <g id="line2d_5">
    <path clip-path="url(#pc24f011dc9)" d="M 76.464 270.72 
L 80.928 267.84 
L 85.392 270.72 
L 89.856 276.48 
L 94.32 264.96 
L 98.784 267.84 
L 103.248 262.08 
L 107.712 259.2 
L 112.176 256.32 
L 116.64 259.2 
L 121.104 253.44 
L 125.568 250.56 
L 130.032 247.68 
L 134.496 250.56 
L 138.96 256.32 
L 143.424 267.84 
L 147.888 290.88 
L 152.352 336.96 
" style="fill:none;stroke:#bf00bf;stroke-linecap:square;"/>
   </g>
   <g id="line2d_6">
    <path clip-path="url(#pc24f011dc9)" d="M 76.464 276.48 
L 80.928 270.72 
L 85.392 267.84 
L 89.856 264.96 
L 94.32 267.84 
L 98.784 262.08 
L 103.248 264.96 
L 107.712 259.2 
L 112.176 262.08 
L 116.64 267.84 
L 121.104 279.36 
L 125.568 256.32 
L 130.032 253.44 
L 134.496 250.56 
L 138.96 247.68 
L 143.424 250.56 
L 147.888 256.32 
L 152.352 267.84 
L 156.816 244.8 
L 161.28 241.92 
L 165.744 239.04 
L 170.208 241.92 
L 174.672 247.68 
L 179.136 259.2 
L 183.6 236.16 
L 188.064 233.28 
L 192.528 230.4 
L 196.992 233.28 
L 201.456 239.04 
L 205.92 250.56 
L 210.384 227.52 
L 214.848 224.64 
L 219.312 227.52 
L 223.776 233.28 
L 228.24 244.8 
L 232.704 221.76 
L 237.168 224.64 
L 241.632 230.4 
L 246.096 218.88 
L 250.56 216 
L 255.024 213.12 
L 259.488 216 
L 263.952 210.24 
L 268.416 207.36 
L 272.88 210.24 
L 277.344 204.48 
L 281.808 201.6 
L 286.272 204.48 
L 290.736 198.72 
L 295.2 195.84 
L 299.664 198.72 
L 304.128 192.96 
L 308.592 190.08 
L 313.056 187.2 
L 317.52 190.08 
L 321.984 184.32 
L 326.448 187.2 
L 330.912 181.44 
L 335.376 178.56 
L 339.84 175.68 
L 344.304 172.8 
L 348.768 175.68 
L 353.232 169.92 
L 357.696 172.8 
L 362.16 178.56 
L 366.624 167.04 
L 371.088 164.16 
L 375.552 167.04 
L 380.016 172.8 
L 384.48 161.28 
L 388.944 164.16 
L 393.408 169.92 
L 397.872 158.4 
L 402.336 161.28 
L 406.8 167.04 
L 411.264 155.52 
L 415.728 152.64 
L 420.192 155.52 
L 424.656 161.28 
L 429.12 172.8 
L 433.584 149.76 
L 438.048 152.64 
L 442.512 146.88 
L 446.976 149.76 
L 451.44 144 
L 455.904 146.88 
L 460.368 141.12 
L 464.832 144 
L 469.296 149.76 
L 473.76 161.28 
L 478.224 184.32 
L 482.688 230.4 
L 487.152 322.56 
L 491.616 138.24 
L 496.08 135.36 
L 500.544 138.24 
L 505.008 144 
L 509.472 155.52 
L 513.936 178.56 
L 518.4 224.64 
" style="fill:none;stroke:#bfbf00;stroke-linecap:square;"/>
   </g>
   <g id="line2d_7">
    <path clip-path="url(#pc24f011dc9)" d="M 76.464 270.72 
L 80.928 267.84 
L 85.392 264.96 
L 89.856 262.08 
L 94.32 264.96 
L 98.784 270.72 
L 103.248 282.24 
L 107.712 259.2 
L 112.176 256.32 
L 116.64 253.44 
L 121.104 250.56 
L 125.568 253.44 
L 130.032 259.2 
L 134.496 247.68 
L 138.96 244.8 
L 143.424 247.68 
L 147.888 253.44 
L 152.352 264.96 
L 156.816 288 
L 161.28 334.08 
" style="fill:none;stroke:#000000;stroke-linecap:square;"/>
   </g>
   <g id="line2d_8">
    <path clip-path="url(#pc24f011dc9)" d="M 76.464 270.72 
L 80.928 267.84 
L 85.392 270.72 
L 89.856 264.96 
L 94.32 262.08 
L 98.784 264.96 
L 103.248 259.2 
L 107.712 256.32 
L 112.176 259.2 
L 116.64 264.96 
L 121.104 253.44 
L 125.568 256.32 
L 130.032 250.56 
L 134.496 247.68 
L 138.96 244.8 
L 143.424 241.92 
L 147.888 244.8 
L 152.352 250.56 
L 156.816 262.08 
L 161.28 285.12 
L 165.744 331.2 
L 170.208 239.04 
L 174.672 236.16 
L 179.136 233.28 
L 183.6 236.16 
L 188.064 241.92 
L 192.528 253.44 
L 196.992 276.48 
L 201.456 230.4 
L 205.92 233.28 
L 210.384 239.04 
L 214.848 227.52 
L 219.312 230.4 
L 223.776 236.16 
L 228.24 224.64 
L 232.704 221.76 
L 237.168 218.88 
L 241.632 221.76 
L 246.096 227.52 
L 250.56 216 
L 255.024 213.12 
L 259.488 216 
L 263.952 221.76 
L 268.416 233.28 
L 272.88 210.24 
L 277.344 207.36 
L 281.808 204.48 
L 286.272 201.6 
L 290.736 204.48 
L 295.2 210.24 
L 299.664 198.72 
L 304.128 201.6 
L 308.592 195.84 
L 313.056 192.96 
L 317.52 195.84 
L 321.984 190.08 
L 326.448 192.96 
L 330.912 198.72 
L 335.376 187.2 
L 339.84 184.32 
L 344.304 187.2 
L 348.768 192.96 
L 353.232 204.48 
L 357.696 181.44 
L 362.16 184.32 
L 366.624 178.56 
L 371.088 181.44 
L 375.552 175.68 
L 380.016 178.56 
L 384.48 172.8 
L 388.944 175.68 
L 393.408 169.92 
L 397.872 172.8 
L 402.336 178.56 
L 406.8 167.04 
L 411.264 164.16 
L 415.728 161.28 
L 420.192 158.4 
L 424.656 161.28 
L 429.12 167.04 
L 433.584 178.56 
L 438.048 155.52 
L 442.512 158.4 
L 446.976 164.16 
L 451.44 175.68 
L 455.904 152.64 
L 460.368 149.76 
L 464.832 152.64 
L 469.296 158.4 
L 473.76 169.92 
L 478.224 146.88 
L 482.688 144 
L 487.152 146.88 
L 491.616 141.12 
L 496.08 144 
L 500.544 138.24 
L 505.008 141.12 
L 509.472 146.88 
L 513.936 135.36 
L 518.4 138.24 
" style="fill:none;stroke:#0000ff;stroke-linecap:square;"/>
   </g>
   <g id="line2d_9">
    <path clip-path="url(#pc24f011dc9)" d="M 76.464 270.72 
L 80.928 267.84 
L 85.392 270.72 
L 89.856 264.96 
L 94.32 267.84 
L 98.784 262.08 
L 103.248 259.2 
L 107.712 256.32 
L 112.176 253.44 
L 116.64 256.32 
L 121.104 262.08 
L 125.568 250.56 
L 130.032 253.44 
L 134.496 259.2 
L 138.96 247.68 
L 143.424 244.8 
L 147.888 241.92 
L 152.352 244.8 
L 156.816 239.04 
L 161.28 241.92 
L 165.744 236.16 
L 170.208 233.28 
L 174.672 230.4 
L 179.136 233.28 
L 183.6 239.04 
L 188.064 250.56 
L 192.528 227.52 
L 196.992 230.4 
L 201.456 224.64 
L 205.92 227.52 
L 210.384 221.76 
L 214.848 224.64 
L 219.312 218.88 
L 223.776 216 
L 228.24 213.12 
L 232.704 216 
L 237.168 210.24 
L 241.632 207.36 
L 246.096 210.24 
L 250.56 204.48 
L 255.024 201.6 
L 259.488 204.48 
L 263.952 198.72 
L 268.416 201.6 
L 272.88 195.84 
L 277.344 198.72 
L 281.808 204.48 
L 286.272 216 
L 290.736 239.04 
L 295.2 192.96 
L 299.664 190.08 
L 304.128 192.96 
L 308.592 187.2 
L 313.056 190.08 
L 317.52 195.84 
L 321.984 184.32 
L 326.448 187.2 
L 330.912 192.96 
L 335.376 181.44 
L 339.84 178.56 
L 344.304 181.44 
L 348.768 187.2 
L 353.232 198.72 
L 357.696 221.76 
L 362.16 267.84 
L 366.624 175.68 
L 371.088 172.8 
L 375.552 169.92 
L 380.016 167.04 
L 384.48 169.92 
L 388.944 175.68 
L 393.408 164.16 
L 397.872 161.28 
L 402.336 158.4 
L 406.8 155.52 
L 411.264 158.4 
L 415.728 152.64 
L 420.192 155.52 
L 424.656 149.76 
L 429.12 146.88 
L 433.584 144 
L 438.048 146.88 
L 442.512 152.64 
L 446.976 141.12 
L 451.44 138.24 
L 455.904 135.36 
L 460.368 132.48 
L 464.832 135.36 
L 469.296 129.6 
L 473.76 132.48 
L 478.224 126.72 
L 482.688 129.6 
L 487.152 135.36 
L 491.616 123.84 
L 496.08 120.96 
L 500.544 118.08 
L 505.008 120.96 
L 509.472 115.2 
L 513.936 118.08 
L 518.4 112.32 
" style="fill:none;stroke:#008000;stroke-linecap:square;"/>
   </g>
   <g id="line2d_10">
    <path clip-path="url(#pc24f011dc9)" d="M 76.464 270.72 
L 80.928 273.6 
L 85.392 279.36 
L 89.856 267.84 
L 94.32 270.72 
L 98.784 264.96 
L 103.248 262.08 
L 107.712 259.2 
L 112.176 262.08 
L 116.64 267.84 
L 121.104 279.36 
L 125.568 302.4 
L 130.032 348.48 
" style="fill:none;stroke:#ff0000;stroke-linecap:square;"/>
   </g>
   <g id="line2d_11">
    <path clip-path="url(#pc24f011dc9)" d="M 72 331.2 
L 518.4 331.2 
" style="fill:none;stroke:#ff0000;stroke-linecap:square;"/>
   </g>
   <g id="patch_3">
    <path d="M 518.4 388.8 
L 518.4 43.2 
" style="fill:none;stroke:#000000;stroke-linecap:square;stroke-linejoin:miter;"/>
   </g>
   <g id="patch_4">
    <path d="M 72 388.8 
L 72 43.2 
" style="fill:none;stroke:#000000;stroke-linecap:square;stroke-linejoin:miter;"/>
   </g>
   <g id="patch_5">
    <path d="M 72 43.2 
L 518.4 43.2 
" style="fill:none;stroke:#000000;stroke-linecap:square;stroke-linejoin:miter;"/>
   </g>
   <g id="patch_6">
    <path d="M 72 388.8 
L 518.4 388.8 
" style="fill:none;stroke:#000000;stroke-linecap:square;stroke-linejoin:miter;"/>
   </g>
   <g id="matplotlib.axis_1">
    <g id="xtick_1">
     <g id="line2d_12">
      <defs>
       <path d="M 0 0 
L 0 -4 
" id="m31d41b696a" style="stroke:#000000;stroke-width:0.5;"/>
      </defs>
      <g>
       <use style="stroke:#000000;stroke-width:0.5;" x="72.0" xlink:href="#m31d41b696a" y="388.8"/>
      </g>
     </g>
     <g id="line2d_13">
      <defs>
       <path d="M 0 0 
L 0 4 
" id="m767412a23e" style="stroke:#000000;stroke-width:0.5;"/>
      </defs>
      <g>
       <use style="stroke:#000000;stroke-width:0.5;" x="72.0" xlink:href="#m767412a23e" y="43.19999999999999"/>
      </g>
     </g>
     <g id="text_1">
      <!-- 0 -->
      <defs>
       <path d="M 31.78125 66.40625 
Q 24.171875 66.40625 20.328125 58.90625 
Q 16.5 51.421875 16.5 36.375 
Q 16.5 21.390625 20.328125 13.890625 
Q 24.171875 6.390625 31.78125 6.390625 
Q 39.453125 6.390625 43.28125 13.890625 
Q 47.125 21.390625 47.125 36.375 
Q 47.125 51.421875 43.28125 58.90625 
Q 39.453125 66.40625 31.78125 66.40625 
M 31.78125 74.21875 
Q 44.046875 74.21875 50.515625 64.515625 
Q 56.984375 54.828125 56.984375 36.375 
Q 56.984375 17.96875 50.515625 8.265625 
Q 44.046875 -1.421875 31.78125 -1.421875 
Q 19.53125 -1.421875 13.0625 8.265625 
Q 6.59375 17.96875 6.59375 36.375 
Q 6.59375 54.828125 13.0625 64.515625 
Q 19.53125 74.21875 31.78125 74.21875 
" id="BitstreamVeraSans-Roman-30"/>
      </defs>
      <g transform="translate(68.1825 401.91812500000003)scale(0.12 -0.12)">
       <use xlink:href="#BitstreamVeraSans-Roman-30"/>
      </g>
     </g>
    </g>
    <g id="xtick_2">
     <g id="line2d_14">
      <g>
       <use style="stroke:#000000;stroke-width:0.5;" x="161.27999999999997" xlink:href="#m31d41b696a" y="388.8"/>
      </g>
     </g>
     <g id="line2d_15">
      <g>
       <use style="stroke:#000000;stroke-width:0.5;" x="161.27999999999997" xlink:href="#m767412a23e" y="43.19999999999999"/>
      </g>
     </g>
     <g id="text_2">
      <!-- 20 -->
      <defs>
       <path d="M 19.1875 8.296875 
L 53.609375 8.296875 
L 53.609375 0 
L 7.328125 0 
L 7.328125 8.296875 
Q 12.9375 14.109375 22.625 23.890625 
Q 32.328125 33.6875 34.8125 36.53125 
Q 39.546875 41.84375 41.421875 45.53125 
Q 43.3125 49.21875 43.3125 52.78125 
Q 43.3125 58.59375 39.234375 62.25 
Q 35.15625 65.921875 28.609375 65.921875 
Q 23.96875 65.921875 18.8125 64.3125 
Q 13.671875 62.703125 7.8125 59.421875 
L 7.8125 69.390625 
Q 13.765625 71.78125 18.9375 73 
Q 24.125 74.21875 28.421875 74.21875 
Q 39.75 74.21875 46.484375 68.546875 
Q 53.21875 62.890625 53.21875 53.421875 
Q 53.21875 48.921875 51.53125 44.890625 
Q 49.859375 40.875 45.40625 35.40625 
Q 44.1875 33.984375 37.640625 27.21875 
Q 31.109375 20.453125 19.1875 8.296875 
" id="BitstreamVeraSans-Roman-32"/>
      </defs>
      <g transform="translate(153.64499999999998 401.91812500000003)scale(0.12 -0.12)">
       <use xlink:href="#BitstreamVeraSans-Roman-32"/>
       <use x="63.623046875" xlink:href="#BitstreamVeraSans-Roman-30"/>
      </g>
     </g>
    </g>
    <g id="xtick_3">
     <g id="line2d_16">
      <g>
       <use style="stroke:#000000;stroke-width:0.5;" x="250.55999999999997" xlink:href="#m31d41b696a" y="388.8"/>
      </g>
     </g>
     <g id="line2d_17">
      <g>
       <use style="stroke:#000000;stroke-width:0.5;" x="250.55999999999997" xlink:href="#m767412a23e" y="43.19999999999999"/>
      </g>
     </g>
     <g id="text_3">
      <!-- 40 -->
      <defs>
       <path d="M 37.796875 64.3125 
L 12.890625 25.390625 
L 37.796875 25.390625 
z
M 35.203125 72.90625 
L 47.609375 72.90625 
L 47.609375 25.390625 
L 58.015625 25.390625 
L 58.015625 17.1875 
L 47.609375 17.1875 
L 47.609375 0 
L 37.796875 0 
L 37.796875 17.1875 
L 4.890625 17.1875 
L 4.890625 26.703125 
z
" id="BitstreamVeraSans-Roman-34"/>
      </defs>
      <g transform="translate(242.92499999999998 401.91812500000003)scale(0.12 -0.12)">
       <use xlink:href="#BitstreamVeraSans-Roman-34"/>
       <use x="63.623046875" xlink:href="#BitstreamVeraSans-Roman-30"/>
      </g>
     </g>
    </g>
    <g id="xtick_4">
     <g id="line2d_18">
      <g>
       <use style="stroke:#000000;stroke-width:0.5;" x="339.84" xlink:href="#m31d41b696a" y="388.8"/>
      </g>
     </g>
     <g id="line2d_19">
      <g>
       <use style="stroke:#000000;stroke-width:0.5;" x="339.84" xlink:href="#m767412a23e" y="43.19999999999999"/>
      </g>
     </g>
     <g id="text_4">
      <!-- 60 -->
      <defs>
       <path d="M 33.015625 40.375 
Q 26.375 40.375 22.484375 35.828125 
Q 18.609375 31.296875 18.609375 23.390625 
Q 18.609375 15.53125 22.484375 10.953125 
Q 26.375 6.390625 33.015625 6.390625 
Q 39.65625 6.390625 43.53125 10.953125 
Q 47.40625 15.53125 47.40625 23.390625 
Q 47.40625 31.296875 43.53125 35.828125 
Q 39.65625 40.375 33.015625 40.375 
M 52.59375 71.296875 
L 52.59375 62.3125 
Q 48.875 64.0625 45.09375 64.984375 
Q 41.3125 65.921875 37.59375 65.921875 
Q 27.828125 65.921875 22.671875 59.328125 
Q 17.53125 52.734375 16.796875 39.40625 
Q 19.671875 43.65625 24.015625 45.921875 
Q 28.375 48.1875 33.59375 48.1875 
Q 44.578125 48.1875 50.953125 41.515625 
Q 57.328125 34.859375 57.328125 23.390625 
Q 57.328125 12.15625 50.6875 5.359375 
Q 44.046875 -1.421875 33.015625 -1.421875 
Q 20.359375 -1.421875 13.671875 8.265625 
Q 6.984375 17.96875 6.984375 36.375 
Q 6.984375 53.65625 15.1875 63.9375 
Q 23.390625 74.21875 37.203125 74.21875 
Q 40.921875 74.21875 44.703125 73.484375 
Q 48.484375 72.75 52.59375 71.296875 
" id="BitstreamVeraSans-Roman-36"/>
      </defs>
      <g transform="translate(332.205 401.91812500000003)scale(0.12 -0.12)">
       <use xlink:href="#BitstreamVeraSans-Roman-36"/>
       <use x="63.623046875" xlink:href="#BitstreamVeraSans-Roman-30"/>
      </g>
     </g>
    </g>
    <g id="xtick_5">
     <g id="line2d_20">
      <g>
       <use style="stroke:#000000;stroke-width:0.5;" x="429.11999999999995" xlink:href="#m31d41b696a" y="388.8"/>
      </g>
     </g>
     <g id="line2d_21">
      <g>
       <use style="stroke:#000000;stroke-width:0.5;" x="429.11999999999995" xlink:href="#m767412a23e" y="43.19999999999999"/>
      </g>
     </g>
     <g id="text_5">
      <!-- 80 -->
      <defs>
       <path d="M 31.78125 34.625 
Q 24.75 34.625 20.71875 30.859375 
Q 16.703125 27.09375 16.703125 20.515625 
Q 16.703125 13.921875 20.71875 10.15625 
Q 24.75 6.390625 31.78125 6.390625 
Q 38.8125 6.390625 42.859375 10.171875 
Q 46.921875 13.96875 46.921875 20.515625 
Q 46.921875 27.09375 42.890625 30.859375 
Q 38.875 34.625 31.78125 34.625 
M 21.921875 38.8125 
Q 15.578125 40.375 12.03125 44.71875 
Q 8.5 49.078125 8.5 55.328125 
Q 8.5 64.0625 14.71875 69.140625 
Q 20.953125 74.21875 31.78125 74.21875 
Q 42.671875 74.21875 48.875 69.140625 
Q 55.078125 64.0625 55.078125 55.328125 
Q 55.078125 49.078125 51.53125 44.71875 
Q 48 40.375 41.703125 38.8125 
Q 48.828125 37.15625 52.796875 32.3125 
Q 56.78125 27.484375 56.78125 20.515625 
Q 56.78125 9.90625 50.3125 4.234375 
Q 43.84375 -1.421875 31.78125 -1.421875 
Q 19.734375 -1.421875 13.25 4.234375 
Q 6.78125 9.90625 6.78125 20.515625 
Q 6.78125 27.484375 10.78125 32.3125 
Q 14.796875 37.15625 21.921875 38.8125 
M 18.3125 54.390625 
Q 18.3125 48.734375 21.84375 45.5625 
Q 25.390625 42.390625 31.78125 42.390625 
Q 38.140625 42.390625 41.71875 45.5625 
Q 45.3125 48.734375 45.3125 54.390625 
Q 45.3125 60.0625 41.71875 63.234375 
Q 38.140625 66.40625 31.78125 66.40625 
Q 25.390625 66.40625 21.84375 63.234375 
Q 18.3125 60.0625 18.3125 54.390625 
" id="BitstreamVeraSans-Roman-38"/>
      </defs>
      <g transform="translate(421.48499999999996 401.91812500000003)scale(0.12 -0.12)">
       <use xlink:href="#BitstreamVeraSans-Roman-38"/>
       <use x="63.623046875" xlink:href="#BitstreamVeraSans-Roman-30"/>
      </g>
     </g>
    </g>
    <g id="xtick_6">
     <g id="line2d_22">
      <g>
       <use style="stroke:#000000;stroke-width:0.5;" x="518.4" xlink:href="#m31d41b696a" y="388.8"/>
      </g>
     </g>
     <g id="line2d_23">
      <g>
       <use style="stroke:#000000;stroke-width:0.5;" x="518.4" xlink:href="#m767412a23e" y="43.19999999999999"/>
      </g>
     </g>
     <g id="text_6">
      <!-- 100 -->
      <defs>
       <path d="M 12.40625 8.296875 
L 28.515625 8.296875 
L 28.515625 63.921875 
L 10.984375 60.40625 
L 10.984375 69.390625 
L 28.421875 72.90625 
L 38.28125 72.90625 
L 38.28125 8.296875 
L 54.390625 8.296875 
L 54.390625 0 
L 12.40625 0 
z
" id="BitstreamVeraSans-Roman-31"/>
      </defs>
      <g transform="translate(506.9475 401.91812500000003)scale(0.12 -0.12)">
       <use xlink:href="#BitstreamVeraSans-Roman-31"/>
       <use x="63.623046875" xlink:href="#BitstreamVeraSans-Roman-30"/>
       <use x="127.24609375" xlink:href="#BitstreamVeraSans-Roman-30"/>
      </g>
     </g>
    </g>
   </g>
   <g id="matplotlib.axis_2">
    <g id="ytick_1">
     <g id="line2d_24">
      <defs>
       <path d="M 0 0 
L 4 0 
" id="m979b60448b" style="stroke:#000000;stroke-width:0.5;"/>
      </defs>
      <g>
       <use style="stroke:#000000;stroke-width:0.5;" x="72.0" xlink:href="#m979b60448b" y="388.8"/>
      </g>
     </g>
     <g id="line2d_25">
      <defs>
       <path d="M 0 0 
L -4 0 
" id="me3d1ea4a7c" style="stroke:#000000;stroke-width:0.5;"/>
      </defs>
      <g>
       <use style="stroke:#000000;stroke-width:0.5;" x="518.4" xlink:href="#me3d1ea4a7c" y="388.8"/>
      </g>
     </g>
     <g id="text_7">
      <!-- −10000 -->
      <defs>
       <path d="M 10.59375 35.5 
L 73.1875 35.5 
L 73.1875 27.203125 
L 10.59375 27.203125 
z
" id="BitstreamVeraSans-Roman-2212"/>
      </defs>
      <g transform="translate(19.769375000000004 392.11125)scale(0.12 -0.12)">
       <use xlink:href="#BitstreamVeraSans-Roman-2212"/>
       <use x="83.7890625" xlink:href="#BitstreamVeraSans-Roman-31"/>
       <use x="147.412109375" xlink:href="#BitstreamVeraSans-Roman-30"/>
       <use x="211.03515625" xlink:href="#BitstreamVeraSans-Roman-30"/>
       <use x="274.658203125" xlink:href="#BitstreamVeraSans-Roman-30"/>
       <use x="338.28125" xlink:href="#BitstreamVeraSans-Roman-30"/>
      </g>
     </g>
    </g>
    <g id="ytick_2">
     <g id="line2d_26">
      <g>
       <use style="stroke:#000000;stroke-width:0.5;" x="72.0" xlink:href="#m979b60448b" y="331.2"/>
      </g>
     </g>
     <g id="line2d_27">
      <g>
       <use style="stroke:#000000;stroke-width:0.5;" x="518.4" xlink:href="#me3d1ea4a7c" y="331.2"/>
      </g>
     </g>
     <g id="text_8">
      <!-- 0 -->
      <g transform="translate(60.365 334.51125)scale(0.12 -0.12)">
       <use xlink:href="#BitstreamVeraSans-Roman-30"/>
      </g>
     </g>
    </g>
    <g id="ytick_3">
     <g id="line2d_28">
      <g>
       <use style="stroke:#000000;stroke-width:0.5;" x="72.0" xlink:href="#m979b60448b" y="273.59999999999997"/>
      </g>
     </g>
     <g id="line2d_29">
      <g>
       <use style="stroke:#000000;stroke-width:0.5;" x="518.4" xlink:href="#me3d1ea4a7c" y="273.59999999999997"/>
      </g>
     </g>
     <g id="text_9">
      <!-- 10000 -->
      <g transform="translate(29.825000000000003 276.91125)scale(0.12 -0.12)">
       <use xlink:href="#BitstreamVeraSans-Roman-31"/>
       <use x="63.623046875" xlink:href="#BitstreamVeraSans-Roman-30"/>
       <use x="127.24609375" xlink:href="#BitstreamVeraSans-Roman-30"/>
       <use x="190.869140625" xlink:href="#BitstreamVeraSans-Roman-30"/>
       <use x="254.4921875" xlink:href="#BitstreamVeraSans-Roman-30"/>
      </g>
     </g>
    </g>
    <g id="ytick_4">
     <g id="line2d_30">
      <g>
       <use style="stroke:#000000;stroke-width:0.5;" x="72.0" xlink:href="#m979b60448b" y="216.0"/>
      </g>
     </g>
     <g id="line2d_31">
      <g>
       <use style="stroke:#000000;stroke-width:0.5;" x="518.4" xlink:href="#me3d1ea4a7c" y="216.0"/>
      </g>
     </g>
     <g id="text_10">
      <!-- 20000 -->
      <g transform="translate(29.825000000000003 219.31125)scale(0.12 -0.12)">
       <use xlink:href="#BitstreamVeraSans-Roman-32"/>
       <use x="63.623046875" xlink:href="#BitstreamVeraSans-Roman-30"/>
       <use x="127.24609375" xlink:href="#BitstreamVeraSans-Roman-30"/>
       <use x="190.869140625" xlink:href="#BitstreamVeraSans-Roman-30"/>
       <use x="254.4921875" xlink:href="#BitstreamVeraSans-Roman-30"/>
      </g>
     </g>
    </g>
    <g id="ytick_5">
     <g id="line2d_32">
      <g>
       <use style="stroke:#000000;stroke-width:0.5;" x="72.0" xlink:href="#m979b60448b" y="158.39999999999998"/>
      </g>
     </g>
     <g id="line2d_33">
      <g>
       <use style="stroke:#000000;stroke-width:0.5;" x="518.4" xlink:href="#me3d1ea4a7c" y="158.39999999999998"/>
      </g>
     </g>
     <g id="text_11">
      <!-- 30000 -->
      <defs>
       <path d="M 40.578125 39.3125 
Q 47.65625 37.796875 51.625 33 
Q 55.609375 28.21875 55.609375 21.1875 
Q 55.609375 10.40625 48.1875 4.484375 
Q 40.765625 -1.421875 27.09375 -1.421875 
Q 22.515625 -1.421875 17.65625 -0.515625 
Q 12.796875 0.390625 7.625 2.203125 
L 7.625 11.71875 
Q 11.71875 9.328125 16.59375 8.109375 
Q 21.484375 6.890625 26.8125 6.890625 
Q 36.078125 6.890625 40.9375 10.546875 
Q 45.796875 14.203125 45.796875 21.1875 
Q 45.796875 27.640625 41.28125 31.265625 
Q 36.765625 34.90625 28.71875 34.90625 
L 20.21875 34.90625 
L 20.21875 43.015625 
L 29.109375 43.015625 
Q 36.375 43.015625 40.234375 45.921875 
Q 44.09375 48.828125 44.09375 54.296875 
Q 44.09375 59.90625 40.109375 62.90625 
Q 36.140625 65.921875 28.71875 65.921875 
Q 24.65625 65.921875 20.015625 65.03125 
Q 15.375 64.15625 9.8125 62.3125 
L 9.8125 71.09375 
Q 15.4375 72.65625 20.34375 73.4375 
Q 25.25 74.21875 29.59375 74.21875 
Q 40.828125 74.21875 47.359375 69.109375 
Q 53.90625 64.015625 53.90625 55.328125 
Q 53.90625 49.265625 50.4375 45.09375 
Q 46.96875 40.921875 40.578125 39.3125 
" id="BitstreamVeraSans-Roman-33"/>
      </defs>
      <g transform="translate(29.825000000000003 161.71124999999995)scale(0.12 -0.12)">
       <use xlink:href="#BitstreamVeraSans-Roman-33"/>
       <use x="63.623046875" xlink:href="#BitstreamVeraSans-Roman-30"/>
       <use x="127.24609375" xlink:href="#BitstreamVeraSans-Roman-30"/>
       <use x="190.869140625" xlink:href="#BitstreamVeraSans-Roman-30"/>
       <use x="254.4921875" xlink:href="#BitstreamVeraSans-Roman-30"/>
      </g>
     </g>
    </g>
    <g id="ytick_6">
     <g id="line2d_34">
      <g>
       <use style="stroke:#000000;stroke-width:0.5;" x="72.0" xlink:href="#m979b60448b" y="100.79999999999998"/>
      </g>
     </g>
     <g id="line2d_35">
      <g>
       <use style="stroke:#000000;stroke-width:0.5;" x="518.4" xlink:href="#me3d1ea4a7c" y="100.79999999999998"/>
      </g>
     </g>
     <g id="text_12">
      <!-- 40000 -->
      <g transform="translate(29.825000000000003 104.11124999999998)scale(0.12 -0.12)">
       <use xlink:href="#BitstreamVeraSans-Roman-34"/>
       <use x="63.623046875" xlink:href="#BitstreamVeraSans-Roman-30"/>
       <use x="127.24609375" xlink:href="#BitstreamVeraSans-Roman-30"/>
       <use x="190.869140625" xlink:href="#BitstreamVeraSans-Roman-30"/>
       <use x="254.4921875" xlink:href="#BitstreamVeraSans-Roman-30"/>
      </g>
     </g>
    </g>
    <g id="ytick_7">
     <g id="line2d_36">
      <g>
       <use style="stroke:#000000;stroke-width:0.5;" x="72.0" xlink:href="#m979b60448b" y="43.19999999999999"/>
      </g>
     </g>
     <g id="line2d_37">
      <g>
       <use style="stroke:#000000;stroke-width:0.5;" x="518.4" xlink:href="#me3d1ea4a7c" y="43.19999999999999"/>
      </g>
     </g>
     <g id="text_13">
      <!-- 50000 -->
      <defs>
       <path d="M 10.796875 72.90625 
L 49.515625 72.90625 
L 49.515625 64.59375 
L 19.828125 64.59375 
L 19.828125 46.734375 
Q 21.96875 47.46875 24.109375 47.828125 
Q 26.265625 48.1875 28.421875 48.1875 
Q 40.625 48.1875 47.75 41.5 
Q 54.890625 34.8125 54.890625 23.390625 
Q 54.890625 11.625 47.5625 5.09375 
Q 40.234375 -1.421875 26.90625 -1.421875 
Q 22.3125 -1.421875 17.546875 -0.640625 
Q 12.796875 0.140625 7.71875 1.703125 
L 7.71875 11.625 
Q 12.109375 9.234375 16.796875 8.0625 
Q 21.484375 6.890625 26.703125 6.890625 
Q 35.15625 6.890625 40.078125 11.328125 
Q 45.015625 15.765625 45.015625 23.390625 
Q 45.015625 31 40.078125 35.4375 
Q 35.15625 39.890625 26.703125 39.890625 
Q 22.75 39.890625 18.8125 39.015625 
Q 14.890625 38.140625 10.796875 36.28125 
z
" id="BitstreamVeraSans-Roman-35"/>
      </defs>
      <g transform="translate(29.825000000000003 46.51124999999996)scale(0.12 -0.12)">
       <use xlink:href="#BitstreamVeraSans-Roman-35"/>
       <use x="63.623046875" xlink:href="#BitstreamVeraSans-Roman-30"/>
       <use x="127.24609375" xlink:href="#BitstreamVeraSans-Roman-30"/>
       <use x="190.869140625" xlink:href="#BitstreamVeraSans-Roman-30"/>
       <use x="254.4921875" xlink:href="#BitstreamVeraSans-Roman-30"/>
      </g>
     </g>
    </g>
   </g>
  </g>
 </g>
 <defs>
  <clipPath id="pc24f011dc9">
   <rect height="345.6" width="446.4" x="72.0" y="43.19999999999999"/>
  </clipPath>
 </defs>
</svg>
