<?xml version="1.0" encoding="utf-8" standalone="no"?>
<!DOCTYPE svg PUBLIC "-//W3C//DTD SVG 1.1//EN"
  "http://www.w3.org/Graphics/SVG/1.1/DTD/svg11.dtd">
<!-- Created with matplotlib (http://matplotlib.org/) -->
<svg height="432pt" version="1.1" viewBox="0 0 576 432" width="576pt" xmlns="http://www.w3.org/2000/svg" xmlns:xlink="http://www.w3.org/1999/xlink">
 <defs>
  <style type="text/css">
*{stroke-linecap:butt;stroke-linejoin:round;stroke-miterlimit:100000;}
  </style>
 </defs>
 <g id="figure_1">
  <g id="patch_1">
   <path d="M 0 432 
L 576 432 
L 576 0 
L 0 0 
z
" style="fill:#ffffff;"/>
  </g>
  <g id="axes_1">
   <g id="patch_2">
    <path d="M 72 388.8 
L 518.4 388.8 
L 518.4 43.2 
L 72 43.2 
z
" style="fill:#ffffff;"/>
   </g>
   <g id="line2d_1">
    <path clip-path="url(#p6b96258d11)" d="M 76.464 170.64 
L 80.928 168.48 
L 85.392 170.64 
L 89.856 166.32 
L 94.32 168.48 
L 98.784 164.16 
L 103.248 162 
L 107.712 159.84 
L 112.176 162 
L 116.64 157.68 
L 121.104 155.52 
L 125.568 153.36 
L 130.032 155.52 
L 134.496 151.2 
L 138.96 153.36 
L 143.424 149.04 
L 147.888 151.2 
L 152.352 155.52 
L 156.816 164.16 
L 161.28 181.44 
L 165.744 216 
L 170.208 146.88 
L 174.672 144.72 
L 179.136 146.88 
L 183.6 142.56 
L 188.064 144.72 
L 192.528 149.04 
L 196.992 157.68 
L 201.456 174.96 
L 205.92 209.52 
L 210.384 140.4 
L 214.848 142.56 
L 219.312 146.88 
L 223.776 155.52 
L 228.24 172.8 
L 232.704 138.24 
L 237.168 136.08 
L 241.632 138.24 
L 246.096 133.92 
L 250.56 136.08 
L 255.024 131.76 
L 259.488 129.6 
L 263.952 131.76 
L 268.416 136.08 
L 272.88 127.44 
L 277.344 125.28 
L 281.808 127.44 
L 286.272 123.12 
L 290.736 120.96 
L 295.2 123.12 
L 299.664 127.44 
L 304.128 136.08 
L 308.592 153.36 
L 313.056 118.8 
L 317.52 116.64 
L 321.984 114.48 
L 326.448 116.64 
L 330.912 112.32 
L 335.376 110.16 
L 339.84 112.32 
L 344.304 108 
L 348.768 110.16 
L 353.232 105.84 
L 357.696 103.68 
L 362.16 105.84 
L 366.624 110.16 
L 371.088 118.8 
L 375.552 101.52 
L 380.016 99.36 
L 384.48 97.2 
L 388.944 99.36 
L 393.408 95.04 
L 397.872 92.88 
L 402.336 90.72 
L 406.8 88.56 
L 411.264 90.72 
L 415.728 95.04 
L 420.192 103.68 
L 424.656 120.96 
L 429.12 86.4 
L 433.584 84.24 
L 438.048 86.4 
L 442.512 90.72 
L 446.976 99.36 
L 451.44 116.64 
L 455.904 151.2 
L 460.368 82.08 
L 464.832 79.92 
L 469.296 77.76 
L 473.76 75.6 
L 478.224 73.44 
L 482.688 75.6 
L 487.152 71.28 
L 491.616 73.44 
L 496.08 69.12 
L 500.544 66.96 
L 505.008 64.8 
L 509.472 66.96 
L 513.936 62.64 
L 518.4 64.8 
" style="fill:none;stroke:#0000ff;stroke-linecap:square;"/>
   </g>
   <g id="line2d_2">
    <path clip-path="url(#p6b96258d11)" d="M 76.464 174.96 
L 80.928 170.64 
L 85.392 172.8 
L 89.856 168.48 
L 94.32 170.64 
L 98.784 174.96 
L 103.248 183.6 
L 107.712 166.32 
L 112.176 168.48 
L 116.64 172.8 
L 121.104 164.16 
L 125.568 162 
L 130.032 159.84 
L 134.496 162 
L 138.96 166.32 
L 143.424 174.96 
L 147.888 192.24 
L 152.352 226.8 
" style="fill:none;stroke:#008000;stroke-linecap:square;"/>
   </g>
   <g id="line2d_3">
    <path clip-path="url(#p6b96258d11)" d="M 76.464 174.96 
L 80.928 170.64 
L 85.392 172.8 
L 89.856 168.48 
L 94.32 166.32 
L 98.784 168.48 
L 103.248 172.8 
L 107.712 181.44 
L 112.176 164.16 
L 116.64 162 
L 121.104 159.84 
L 125.568 162 
L 130.032 157.68 
L 134.496 159.84 
L 138.96 155.52 
L 143.424 153.36 
L 147.888 155.52 
L 152.352 151.2 
L 156.816 149.04 
L 161.28 146.88 
L 165.744 144.72 
L 170.208 142.56 
L 174.672 140.4 
L 179.136 142.56 
L 183.6 146.88 
L 188.064 155.52 
L 192.528 172.8 
L 196.992 207.36 
L 201.456 138.24 
L 205.92 136.08 
L 210.384 133.92 
L 214.848 131.76 
L 219.312 129.6 
L 223.776 127.44 
L 228.24 125.28 
L 232.704 127.44 
L 237.168 123.12 
L 241.632 125.28 
L 246.096 120.96 
L 250.56 123.12 
L 255.024 127.44 
L 259.488 136.08 
L 263.952 153.36 
L 268.416 187.92 
L 272.88 257.04 
" style="fill:none;stroke:#ff0000;stroke-linecap:square;"/>
   </g>
   <g id="line2d_4">
    <path clip-path="url(#p6b96258d11)" d="M 76.464 174.96 
L 80.928 179.28 
L 85.392 187.92 
L 89.856 170.64 
L 94.32 172.8 
L 98.784 177.12 
L 103.248 168.48 
L 107.712 170.64 
L 112.176 166.32 
L 116.64 168.48 
L 121.104 164.16 
L 125.568 166.32 
L 130.032 170.64 
L 134.496 179.28 
L 138.96 196.56 
L 143.424 162 
L 147.888 164.16 
L 152.352 159.84 
L 156.816 162 
L 161.28 166.32 
L 165.744 157.68 
L 170.208 159.84 
L 174.672 164.16 
L 179.136 172.8 
L 183.6 155.52 
L 188.064 153.36 
L 192.528 151.2 
L 196.992 153.36 
L 201.456 157.68 
L 205.92 149.04 
L 210.384 146.88 
L 214.848 144.72 
L 219.312 146.88 
L 223.776 151.2 
L 228.24 159.84 
L 232.704 142.56 
L 237.168 144.72 
L 241.632 140.4 
L 246.096 138.24 
L 250.56 136.08 
L 255.024 133.92 
L 259.488 131.76 
L 263.952 133.92 
L 268.416 138.24 
L 272.88 129.6 
L 277.344 131.76 
L 281.808 136.08 
L 286.272 127.44 
L 290.736 125.28 
L 295.2 127.44 
L 299.664 123.12 
L 304.128 125.28 
L 308.592 129.6 
L 313.056 120.96 
L 317.52 118.8 
L 321.984 116.64 
L 326.448 118.8 
L 330.912 123.12 
L 335.376 131.76 
L 339.84 114.48 
L 344.304 116.64 
L 348.768 120.96 
L 353.232 112.32 
L 357.696 114.48 
L 362.16 110.16 
L 366.624 108 
L 371.088 110.16 
L 375.552 114.48 
L 380.016 105.84 
L 384.48 108 
L 388.944 103.68 
L 393.408 105.84 
L 397.872 101.52 
L 402.336 103.68 
L 406.8 99.36 
L 411.264 101.52 
L 415.728 105.84 
L 420.192 114.48 
L 424.656 131.76 
L 429.12 166.32 
L 433.584 235.44 
" style="fill:none;stroke:#00bfbf;stroke-linecap:square;"/>
   </g>
   <g id="line2d_5">
    <path clip-path="url(#p6b96258d11)" d="M 76.464 170.64 
L 80.928 168.48 
L 85.392 170.64 
L 89.856 166.32 
L 94.32 168.48 
L 98.784 172.8 
L 103.248 164.16 
L 107.712 166.32 
L 112.176 170.64 
L 116.64 179.28 
L 121.104 162 
L 125.568 159.84 
L 130.032 157.68 
L 134.496 155.52 
L 138.96 157.68 
L 143.424 153.36 
L 147.888 155.52 
L 152.352 159.84 
L 156.816 168.48 
L 161.28 185.76 
L 165.744 220.32 
" style="fill:none;stroke:#bf00bf;stroke-linecap:square;"/>
   </g>
   <g id="line2d_6">
    <path clip-path="url(#p6b96258d11)" d="M 76.464 174.96 
L 80.928 179.28 
L 85.392 170.64 
L 89.856 168.48 
L 94.32 170.64 
L 98.784 166.32 
L 103.248 164.16 
L 107.712 166.32 
L 112.176 170.64 
L 116.64 179.28 
L 121.104 196.56 
L 125.568 162 
L 130.032 164.16 
L 134.496 168.48 
L 138.96 159.84 
L 143.424 162 
L 147.888 166.32 
L 152.352 157.68 
L 156.816 159.84 
L 161.28 164.16 
L 165.744 172.8 
L 170.208 190.08 
L 174.672 155.52 
L 179.136 153.36 
L 183.6 151.2 
L 188.064 153.36 
L 192.528 157.68 
L 196.992 166.32 
L 201.456 149.04 
L 205.92 151.2 
L 210.384 146.88 
L 214.848 144.72 
L 219.312 146.88 
L 223.776 142.56 
L 228.24 144.72 
L 232.704 140.4 
L 237.168 138.24 
L 241.632 136.08 
L 246.096 133.92 
L 250.56 136.08 
L 255.024 131.76 
L 259.488 129.6 
L 263.952 127.44 
L 268.416 125.28 
L 272.88 127.44 
L 277.344 123.12 
L 281.808 120.96 
L 286.272 118.8 
L 290.736 116.64 
L 295.2 114.48 
L 299.664 112.32 
L 304.128 110.16 
L 308.592 108 
L 313.056 105.84 
L 317.52 103.68 
L 321.984 101.52 
L 326.448 99.36 
L 330.912 97.2 
L 335.376 95.04 
L 339.84 97.2 
L 344.304 101.52 
L 348.768 110.16 
L 353.232 127.44 
L 357.696 92.88 
L 362.16 95.04 
L 366.624 90.72 
L 371.088 88.56 
L 375.552 90.72 
L 380.016 95.04 
L 384.48 86.4 
L 388.944 84.24 
L 393.408 86.4 
L 397.872 82.08 
L 402.336 79.92 
L 406.8 77.76 
L 411.264 75.6 
L 415.728 73.44 
L 420.192 75.6 
L 424.656 79.92 
L 429.12 88.56 
L 433.584 105.84 
L 438.048 71.28 
L 442.512 69.12 
L 446.976 71.28 
L 451.44 75.6 
L 455.904 84.24 
L 460.368 66.96 
L 464.832 64.8 
L 469.296 66.96 
L 473.76 62.64 
L 478.224 60.48 
L 482.688 58.32 
L 487.152 60.48 
L 491.616 56.16 
L 496.08 58.32 
L 500.544 54 
L 505.008 51.84 
L 509.472 54 
L 513.936 58.32 
L 518.4 49.68 
" style="fill:none;stroke:#bfbf00;stroke-linecap:square;"/>
   </g>
   <g id="line2d_7">
    <path clip-path="url(#p6b96258d11)" d="M 76.464 174.96 
L 80.928 170.64 
L 85.392 168.48 
L 89.856 170.64 
L 94.32 166.32 
L 98.784 168.48 
L 103.248 164.16 
L 107.712 166.32 
L 112.176 170.64 
L 116.64 179.28 
L 121.104 162 
L 125.568 164.16 
L 130.032 168.48 
L 134.496 177.12 
L 138.96 159.84 
L 143.424 157.68 
L 147.888 159.84 
L 152.352 164.16 
L 156.816 155.52 
L 161.28 153.36 
L 165.744 151.2 
L 170.208 153.36 
L 174.672 157.68 
L 179.136 166.32 
L 183.6 149.04 
L 188.064 146.88 
L 192.528 144.72 
L 196.992 146.88 
L 201.456 142.56 
L 205.92 140.4 
L 210.384 142.56 
L 214.848 146.88 
L 219.312 155.52 
L 223.776 172.8 
L 228.24 207.36 
L 232.704 276.48 
" style="fill:none;stroke:#000000;stroke-linecap:square;"/>
   </g>
   <g id="line2d_8">
    <path clip-path="url(#p6b96258d11)" d="M 76.464 170.64 
L 80.928 172.8 
L 85.392 168.48 
L 89.856 166.32 
L 94.32 164.16 
L 98.784 166.32 
L 103.248 162 
L 107.712 159.84 
L 112.176 162 
L 116.64 157.68 
L 121.104 159.84 
L 125.568 155.52 
L 130.032 153.36 
L 134.496 151.2 
L 138.96 149.04 
L 143.424 146.88 
L 147.888 149.04 
L 152.352 153.36 
L 156.816 162 
L 161.28 144.72 
L 165.744 146.88 
L 170.208 142.56 
L 174.672 144.72 
L 179.136 140.4 
L 183.6 138.24 
L 188.064 140.4 
L 192.528 144.72 
L 196.992 153.36 
L 201.456 136.08 
L 205.92 138.24 
L 210.384 142.56 
L 214.848 151.2 
L 219.312 168.48 
L 223.776 203.04 
L 228.24 133.92 
L 232.704 136.08 
L 237.168 140.4 
L 241.632 131.76 
L 246.096 133.92 
L 250.56 138.24 
L 255.024 129.6 
L 259.488 127.44 
L 263.952 129.6 
L 268.416 125.28 
L 272.88 123.12 
L 277.344 125.28 
L 281.808 120.96 
L 286.272 123.12 
L 290.736 127.44 
L 295.2 136.08 
L 299.664 118.8 
L 304.128 120.96 
L 308.592 116.64 
L 313.056 118.8 
L 317.52 114.48 
L 321.984 112.32 
L 326.448 110.16 
L 330.912 112.32 
L 335.376 108 
L 339.84 110.16 
L 344.304 105.84 
L 348.768 103.68 
L 353.232 105.84 
L 357.696 110.16 
L 362.16 118.8 
L 366.624 136.08 
L 371.088 170.64 
L 375.552 239.76 
" style="fill:none;stroke:#0000ff;stroke-linecap:square;"/>
   </g>
   <g id="line2d_9">
    <path clip-path="url(#p6b96258d11)" d="M 76.464 174.96 
L 80.928 170.64 
L 85.392 168.48 
L 89.856 166.32 
L 94.32 164.16 
L 98.784 166.32 
L 103.248 170.64 
L 107.712 162 
L 112.176 159.84 
L 116.64 157.68 
L 121.104 155.52 
L 125.568 157.68 
L 130.032 162 
L 134.496 153.36 
L 138.96 155.52 
L 143.424 159.84 
L 147.888 151.2 
L 152.352 153.36 
L 156.816 149.04 
L 161.28 146.88 
L 165.744 149.04 
L 170.208 153.36 
L 174.672 144.72 
L 179.136 146.88 
L 183.6 151.2 
L 188.064 159.84 
L 192.528 142.56 
L 196.992 144.72 
L 201.456 140.4 
L 205.92 142.56 
L 210.384 146.88 
L 214.848 155.52 
L 219.312 138.24 
L 223.776 140.4 
L 228.24 136.08 
L 232.704 133.92 
L 237.168 131.76 
L 241.632 133.92 
L 246.096 129.6 
L 250.56 127.44 
L 255.024 125.28 
L 259.488 127.44 
L 263.952 131.76 
L 268.416 140.4 
L 272.88 123.12 
L 277.344 120.96 
L 281.808 118.8 
L 286.272 120.96 
L 290.736 116.64 
L 295.2 118.8 
L 299.664 123.12 
L 304.128 114.48 
L 308.592 112.32 
L 313.056 110.16 
L 317.52 108 
L 321.984 110.16 
L 326.448 105.84 
L 330.912 103.68 
L 335.376 101.52 
L 339.84 103.68 
L 344.304 99.36 
L 348.768 101.52 
L 353.232 97.2 
L 357.696 99.36 
L 362.16 95.04 
L 366.624 97.2 
L 371.088 92.88 
L 375.552 90.72 
L 380.016 92.88 
L 384.48 97.2 
L 388.944 105.84 
L 393.408 123.12 
L 397.872 88.56 
L 402.336 90.72 
L 406.8 95.04 
L 411.264 86.4 
L 415.728 84.24 
L 420.192 86.4 
L 424.656 90.72 
L 429.12 99.36 
L 433.584 82.08 
L 438.048 84.24 
L 442.512 88.56 
L 446.976 79.92 
L 451.44 77.76 
L 455.904 75.6 
L 460.368 73.44 
L 464.832 71.28 
L 469.296 69.12 
L 473.76 71.28 
L 478.224 75.6 
L 482.688 84.24 
L 487.152 101.52 
L 491.616 136.08 
L 496.08 205.2 
L 500.544 343.44 
" style="fill:none;stroke:#008000;stroke-linecap:square;"/>
   </g>
   <g id="line2d_10">
    <path clip-path="url(#p6b96258d11)" d="M 76.464 174.96 
L 80.928 179.28 
L 85.392 187.92 
L 89.856 205.2 
L 94.32 239.76 
" style="fill:none;stroke:#ff0000;stroke-linecap:square;"/>
   </g>
   <g id="line2d_11">
    <path clip-path="url(#p6b96258d11)" d="M 76.464 174.96 
L 80.928 179.28 
L 85.392 170.64 
L 89.856 168.48 
L 94.32 170.64 
L 98.784 166.32 
L 103.248 164.16 
L 107.712 162 
L 112.176 164.16 
L 116.64 168.48 
L 121.104 177.12 
L 125.568 159.84 
L 130.032 157.68 
L 134.496 155.52 
L 138.96 157.68 
L 143.424 153.36 
L 147.888 151.2 
L 152.352 149.04 
L 156.816 146.88 
L 161.28 144.72 
L 165.744 142.56 
L 170.208 140.4 
L 174.672 142.56 
L 179.136 146.88 
L 183.6 155.52 
L 188.064 172.8 
L 192.528 138.24 
L 196.992 140.4 
L 201.456 144.72 
L 205.92 136.08 
L 210.384 138.24 
L 214.848 133.92 
L 219.312 136.08 
L 223.776 131.76 
L 228.24 133.92 
L 232.704 129.6 
L 237.168 131.76 
L 241.632 136.08 
L 246.096 127.44 
L 250.56 129.6 
L 255.024 125.28 
L 259.488 127.44 
L 263.952 123.12 
L 268.416 120.96 
L 272.88 123.12 
L 277.344 127.44 
L 281.808 118.8 
L 286.272 116.64 
L 290.736 118.8 
L 295.2 123.12 
L 299.664 114.48 
L 304.128 112.32 
L 308.592 114.48 
L 313.056 110.16 
L 317.52 112.32 
L 321.984 116.64 
L 326.448 108 
L 330.912 110.16 
L 335.376 114.48 
L 339.84 123.12 
L 344.304 140.4 
L 348.768 174.96 
L 353.232 105.84 
L 357.696 103.68 
L 362.16 101.52 
L 366.624 99.36 
L 371.088 97.2 
L 375.552 99.36 
L 380.016 103.68 
L 384.48 95.04 
L 388.944 92.88 
L 393.408 95.04 
L 397.872 90.72 
L 402.336 88.56 
L 406.8 86.4 
L 411.264 88.56 
L 415.728 92.88 
L 420.192 101.52 
L 424.656 84.24 
L 429.12 86.4 
L 433.584 82.08 
L 438.048 79.92 
L 442.512 77.76 
L 446.976 79.92 
L 451.44 75.6 
L 455.904 73.44 
L 460.368 71.28 
L 464.832 69.12 
L 469.296 71.28 
L 473.76 66.96 
L 478.224 69.12 
L 482.688 73.44 
L 487.152 82.08 
L 491.616 99.36 
L 496.08 64.8 
L 500.544 62.64 
L 505.008 64.8 
L 509.472 60.48 
L 513.936 62.64 
L 518.4 66.96 
" style="fill:none;stroke:#00bfbf;stroke-linecap:square;"/>
   </g>
   <g id="line2d_12">
    <path clip-path="url(#p6b96258d11)" d="M 76.464 174.96 
L 80.928 170.64 
L 85.392 172.8 
L 89.856 168.48 
L 94.32 166.32 
L 98.784 168.48 
L 103.248 164.16 
L 107.712 166.32 
L 112.176 170.64 
L 116.64 179.28 
L 121.104 162 
L 125.568 164.16 
L 130.032 159.84 
L 134.496 162 
L 138.96 166.32 
L 143.424 174.96 
L 147.888 192.24 
L 152.352 226.8 
" style="fill:none;stroke:#bf00bf;stroke-linecap:square;"/>
   </g>
   <g id="line2d_13">
    <path clip-path="url(#p6b96258d11)" d="M 76.464 170.64 
L 80.928 168.48 
L 85.392 166.32 
L 89.856 168.48 
L 94.32 164.16 
L 98.784 162 
L 103.248 159.84 
L 107.712 157.68 
L 112.176 159.84 
L 116.64 164.16 
L 121.104 172.8 
L 125.568 190.08 
L 130.032 224.64 
" style="fill:none;stroke:#bfbf00;stroke-linecap:square;"/>
   </g>
   <g id="line2d_14">
    <path clip-path="url(#p6b96258d11)" d="M 76.464 174.96 
L 80.928 170.64 
L 85.392 168.48 
L 89.856 170.64 
L 94.32 174.96 
L 98.784 166.32 
L 103.248 168.48 
L 107.712 164.16 
L 112.176 166.32 
L 116.64 170.64 
L 121.104 179.28 
L 125.568 196.56 
L 130.032 231.12 
" style="fill:none;stroke:#000000;stroke-linecap:square;"/>
   </g>
   <g id="line2d_15">
    <path clip-path="url(#p6b96258d11)" d="M 76.464 170.64 
L 80.928 172.8 
L 85.392 168.48 
L 89.856 166.32 
L 94.32 164.16 
L 98.784 166.32 
L 103.248 170.64 
L 107.712 162 
L 112.176 164.16 
L 116.64 168.48 
L 121.104 177.12 
L 125.568 194.4 
L 130.032 159.84 
L 134.496 162 
L 138.96 166.32 
L 143.424 174.96 
L 147.888 157.68 
L 152.352 159.84 
L 156.816 164.16 
L 161.28 172.8 
L 165.744 155.52 
L 170.208 153.36 
L 174.672 151.2 
L 179.136 149.04 
L 183.6 151.2 
L 188.064 155.52 
L 192.528 146.88 
L 196.992 149.04 
L 201.456 144.72 
L 205.92 146.88 
L 210.384 151.2 
L 214.848 159.84 
L 219.312 177.12 
L 223.776 142.56 
L 228.24 140.4 
L 232.704 138.24 
L 237.168 136.08 
L 241.632 133.92 
L 246.096 136.08 
L 250.56 131.76 
L 255.024 133.92 
L 259.488 129.6 
L 263.952 127.44 
L 268.416 125.28 
L 272.88 127.44 
L 277.344 123.12 
L 281.808 120.96 
L 286.272 118.8 
L 290.736 120.96 
L 295.2 125.28 
L 299.664 116.64 
L 304.128 114.48 
L 308.592 116.64 
L 313.056 120.96 
L 317.52 129.6 
L 321.984 112.32 
L 326.448 114.48 
L 330.912 110.16 
L 335.376 112.32 
L 339.84 108 
L 344.304 105.84 
L 348.768 103.68 
L 353.232 105.84 
L 357.696 110.16 
L 362.16 101.52 
L 366.624 99.36 
L 371.088 97.2 
L 375.552 99.36 
L 380.016 103.68 
L 384.48 112.32 
L 388.944 129.6 
L 393.408 95.04 
L 397.872 97.2 
L 402.336 101.52 
L 406.8 110.16 
L 411.264 92.88 
L 415.728 95.04 
L 420.192 90.72 
L 424.656 92.88 
L 429.12 88.56 
L 433.584 86.4 
L 438.048 84.24 
L 442.512 86.4 
L 446.976 82.08 
L 451.44 84.24 
L 455.904 88.56 
L 460.368 79.92 
L 464.832 82.08 
L 469.296 77.76 
L 473.76 75.6 
L 478.224 73.44 
L 482.688 75.6 
L 487.152 79.92 
L 491.616 71.28 
L 496.08 69.12 
L 500.544 66.96 
L 505.008 64.8 
L 509.472 62.64 
L 513.936 64.8 
L 518.4 69.12 
" style="fill:none;stroke:#0000ff;stroke-linecap:square;"/>
   </g>
   <g id="line2d_16">
    <path clip-path="url(#p6b96258d11)" d="M 76.464 170.64 
L 80.928 168.48 
L 85.392 166.32 
L 89.856 164.16 
L 94.32 166.32 
L 98.784 162 
L 103.248 159.84 
L 107.712 157.68 
L 112.176 155.52 
L 116.64 157.68 
L 121.104 153.36 
L 125.568 155.52 
L 130.032 159.84 
L 134.496 168.48 
L 138.96 185.76 
L 143.424 151.2 
L 147.888 149.04 
L 152.352 151.2 
L 156.816 155.52 
L 161.28 146.88 
L 165.744 149.04 
L 170.208 153.36 
L 174.672 162 
L 179.136 144.72 
L 183.6 146.88 
L 188.064 151.2 
L 192.528 142.56 
L 196.992 140.4 
L 201.456 138.24 
L 205.92 140.4 
L 210.384 144.72 
L 214.848 136.08 
L 219.312 138.24 
L 223.776 142.56 
L 228.24 133.92 
L 232.704 131.76 
L 237.168 133.92 
L 241.632 138.24 
L 246.096 129.6 
L 250.56 131.76 
L 255.024 127.44 
L 259.488 125.28 
L 263.952 123.12 
L 268.416 125.28 
L 272.88 120.96 
L 277.344 123.12 
L 281.808 127.44 
L 286.272 118.8 
L 290.736 116.64 
L 295.2 118.8 
L 299.664 114.48 
L 304.128 116.64 
L 308.592 112.32 
L 313.056 114.48 
L 317.52 110.16 
L 321.984 112.32 
L 326.448 116.64 
L 330.912 125.28 
L 335.376 142.56 
L 339.84 177.12 
L 344.304 108 
L 348.768 110.16 
L 353.232 114.48 
L 357.696 123.12 
L 362.16 105.84 
L 366.624 108 
L 371.088 103.68 
L 375.552 101.52 
L 380.016 99.36 
L 384.48 101.52 
L 388.944 105.84 
L 393.408 114.48 
L 397.872 97.2 
L 402.336 99.36 
L 406.8 103.68 
L 411.264 95.04 
L 415.728 97.2 
L 420.192 101.52 
L 424.656 110.16 
L 429.12 92.88 
L 433.584 95.04 
L 438.048 99.36 
L 442.512 90.72 
L 446.976 88.56 
L 451.44 90.72 
L 455.904 86.4 
L 460.368 88.56 
L 464.832 84.24 
L 469.296 82.08 
L 473.76 84.24 
L 478.224 79.92 
L 482.688 77.76 
L 487.152 79.92 
L 491.616 75.6 
L 496.08 77.76 
L 500.544 73.44 
L 505.008 75.6 
L 509.472 79.92 
L 513.936 71.28 
L 518.4 69.12 
" style="fill:none;stroke:#008000;stroke-linecap:square;"/>
   </g>
   <g id="line2d_17">
    <path clip-path="url(#p6b96258d11)" d="M 76.464 174.96 
L 80.928 179.28 
L 85.392 170.64 
L 89.856 168.48 
L 94.32 170.64 
L 98.784 166.32 
L 103.248 164.16 
L 107.712 166.32 
L 112.176 170.64 
L 116.64 162 
L 121.104 164.16 
L 125.568 168.48 
L 130.032 159.84 
L 134.496 162 
L 138.96 166.32 
L 143.424 174.96 
L 147.888 157.68 
L 152.352 159.84 
L 156.816 164.16 
L 161.28 155.52 
L 165.744 153.36 
L 170.208 155.52 
L 174.672 159.84 
L 179.136 151.2 
L 183.6 149.04 
L 188.064 146.88 
L 192.528 144.72 
L 196.992 146.88 
L 201.456 142.56 
L 205.92 144.72 
L 210.384 149.04 
L 214.848 140.4 
L 219.312 138.24 
L 223.776 140.4 
L 228.24 144.72 
L 232.704 136.08 
L 237.168 138.24 
L 241.632 142.56 
L 246.096 133.92 
L 250.56 136.08 
L 255.024 140.4 
L 259.488 131.76 
L 263.952 133.92 
L 268.416 129.6 
L 272.88 131.76 
L 277.344 136.08 
L 281.808 144.72 
L 286.272 127.44 
L 290.736 125.28 
L 295.2 123.12 
L 299.664 120.96 
L 304.128 123.12 
L 308.592 118.8 
L 313.056 116.64 
L 317.52 118.8 
L 321.984 114.48 
L 326.448 112.32 
L 330.912 114.48 
L 335.376 118.8 
L 339.84 110.16 
L 344.304 112.32 
L 348.768 116.64 
L 353.232 125.28 
L 357.696 142.56 
L 362.16 177.12 
L 366.624 108 
L 371.088 105.84 
L 375.552 103.68 
L 380.016 101.52 
L 384.48 103.68 
L 388.944 108 
L 393.408 99.36 
L 397.872 101.52 
L 402.336 97.2 
L 406.8 95.04 
L 411.264 92.88 
L 415.728 90.72 
L 420.192 92.88 
L 424.656 88.56 
L 429.12 90.72 
L 433.584 86.4 
L 438.048 84.24 
L 442.512 82.08 
L 446.976 84.24 
L 451.44 88.56 
L 455.904 97.2 
L 460.368 79.92 
L 464.832 77.76 
L 469.296 79.92 
L 473.76 75.6 
L 478.224 77.76 
L 482.688 82.08 
L 487.152 90.72 
L 491.616 73.44 
L 496.08 71.28 
L 500.544 69.12 
L 505.008 71.28 
L 509.472 75.6 
L 513.936 84.24 
L 518.4 66.96 
" style="fill:none;stroke:#ff0000;stroke-linecap:square;"/>
   </g>
   <g id="line2d_18">
    <path clip-path="url(#p6b96258d11)" d="M 76.464 170.64 
L 80.928 168.48 
L 85.392 166.32 
L 89.856 164.16 
L 94.32 162 
L 98.784 159.84 
L 103.248 157.68 
L 107.712 159.84 
L 112.176 155.52 
L 116.64 153.36 
L 121.104 155.52 
L 125.568 159.84 
L 130.032 151.2 
L 134.496 149.04 
L 138.96 146.88 
L 143.424 149.04 
L 147.888 153.36 
L 152.352 162 
L 156.816 179.28 
L 161.28 213.84 
L 165.744 144.72 
L 170.208 146.88 
L 174.672 142.56 
L 179.136 144.72 
L 183.6 140.4 
L 188.064 142.56 
L 192.528 146.88 
L 196.992 155.52 
L 201.456 172.8 
L 205.92 207.36 
L 210.384 138.24 
L 214.848 140.4 
L 219.312 136.08 
L 223.776 138.24 
L 228.24 142.56 
L 232.704 151.2 
L 237.168 168.48 
L 241.632 133.92 
L 246.096 131.76 
L 250.56 129.6 
L 255.024 127.44 
L 259.488 125.28 
L 263.952 127.44 
L 268.416 123.12 
L 272.88 120.96 
L 277.344 123.12 
L 281.808 127.44 
L 286.272 118.8 
L 290.736 116.64 
L 295.2 114.48 
L 299.664 116.64 
L 304.128 112.32 
L 308.592 110.16 
L 313.056 108 
L 317.52 105.84 
L 321.984 108 
L 326.448 103.68 
L 330.912 105.84 
L 335.376 110.16 
L 339.84 118.8 
L 344.304 101.52 
L 348.768 99.36 
L 353.232 97.2 
L 357.696 95.04 
L 362.16 92.88 
L 366.624 90.72 
L 371.088 88.56 
L 375.552 90.72 
L 380.016 86.4 
L 384.48 84.24 
L 388.944 82.08 
L 393.408 84.24 
L 397.872 88.56 
L 402.336 79.92 
L 406.8 82.08 
L 411.264 86.4 
L 415.728 95.04 
L 420.192 112.32 
L 424.656 146.88 
L 429.12 216 
L 433.584 354.24 
" style="fill:none;stroke:#00bfbf;stroke-linecap:square;"/>
   </g>
   <g id="line2d_19">
    <path clip-path="url(#p6b96258d11)" d="M 76.464 174.96 
L 80.928 170.64 
L 85.392 172.8 
L 89.856 177.12 
L 94.32 185.76 
L 98.784 203.04 
L 103.248 168.48 
L 107.712 170.64 
L 112.176 174.96 
L 116.64 183.6 
L 121.104 166.32 
L 125.568 164.16 
L 130.032 166.32 
L 134.496 170.64 
L 138.96 162 
L 143.424 159.84 
L 147.888 157.68 
L 152.352 159.84 
L 156.816 155.52 
L 161.28 153.36 
L 165.744 151.2 
L 170.208 149.04 
L 174.672 151.2 
L 179.136 155.52 
L 183.6 146.88 
L 188.064 144.72 
L 192.528 146.88 
L 196.992 151.2 
L 201.456 159.84 
L 205.92 177.12 
L 210.384 211.68 
L 214.848 280.8 
" style="fill:none;stroke:#bf00bf;stroke-linecap:square;"/>
   </g>
   <g id="line2d_20">
    <path clip-path="url(#p6b96258d11)" d="M 76.464 174.96 
L 80.928 179.28 
L 85.392 187.92 
L 89.856 205.2 
L 94.32 239.76 
" style="fill:none;stroke:#bfbf00;stroke-linecap:square;"/>
   </g>
   <g id="line2d_21">
    <path clip-path="url(#p6b96258d11)" d="M 76.464 170.64 
L 80.928 168.48 
L 85.392 166.32 
L 89.856 168.48 
L 94.32 172.8 
L 98.784 181.44 
L 103.248 198.72 
L 107.712 233.28 
" style="fill:none;stroke:#000000;stroke-linecap:square;"/>
   </g>
   <g id="line2d_22">
    <path clip-path="url(#p6b96258d11)" d="M 76.464 174.96 
L 80.928 170.64 
L 85.392 172.8 
L 89.856 177.12 
L 94.32 185.76 
L 98.784 203.04 
L 103.248 168.48 
L 107.712 170.64 
L 112.176 174.96 
L 116.64 166.32 
L 121.104 164.16 
L 125.568 162 
L 130.032 164.16 
L 134.496 159.84 
L 138.96 157.68 
L 143.424 155.52 
L 147.888 153.36 
L 152.352 151.2 
L 156.816 153.36 
L 161.28 157.68 
L 165.744 166.32 
L 170.208 149.04 
L 174.672 146.88 
L 179.136 149.04 
L 183.6 144.72 
L 188.064 142.56 
L 192.528 144.72 
L 196.992 140.4 
L 201.456 142.56 
L 205.92 146.88 
L 210.384 155.52 
L 214.848 172.8 
L 219.312 138.24 
L 223.776 136.08 
L 228.24 138.24 
L 232.704 142.56 
L 237.168 133.92 
L 241.632 136.08 
L 246.096 140.4 
L 250.56 149.04 
L 255.024 166.32 
L 259.488 131.76 
L 263.952 129.6 
L 268.416 131.76 
L 272.88 127.44 
L 277.344 129.6 
L 281.808 133.92 
L 286.272 125.28 
L 290.736 123.12 
L 295.2 125.28 
L 299.664 129.6 
L 304.128 120.96 
L 308.592 118.8 
L 313.056 120.96 
L 317.52 125.28 
L 321.984 133.92 
L 326.448 151.2 
L 330.912 185.76 
L 335.376 254.88 
" style="fill:none;stroke:#0000ff;stroke-linecap:square;"/>
   </g>
   <g id="line2d_23">
    <path clip-path="url(#p6b96258d11)" d="M 76.464 170.64 
L 80.928 172.8 
L 85.392 177.12 
L 89.856 185.76 
L 94.32 203.04 
L 98.784 168.48 
L 103.248 170.64 
L 107.712 166.32 
L 112.176 164.16 
L 116.64 166.32 
L 121.104 170.64 
L 125.568 162 
L 130.032 164.16 
L 134.496 168.48 
L 138.96 159.84 
L 143.424 162 
L 147.888 157.68 
L 152.352 155.52 
L 156.816 153.36 
L 161.28 155.52 
L 165.744 159.84 
L 170.208 151.2 
L 174.672 153.36 
L 179.136 157.68 
L 183.6 166.32 
L 188.064 149.04 
L 192.528 146.88 
L 196.992 149.04 
L 201.456 144.72 
L 205.92 142.56 
L 210.384 144.72 
L 214.848 140.4 
L 219.312 138.24 
L 223.776 136.08 
L 228.24 133.92 
L 232.704 136.08 
L 237.168 131.76 
L 241.632 133.92 
L 246.096 138.24 
L 250.56 129.6 
L 255.024 131.76 
L 259.488 127.44 
L 263.952 125.28 
L 268.416 123.12 
L 272.88 120.96 
L 277.344 118.8 
L 281.808 120.96 
L 286.272 116.64 
L 290.736 118.8 
L 295.2 123.12 
L 299.664 131.76 
L 304.128 149.04 
L 308.592 114.48 
L 313.056 116.64 
L 317.52 112.32 
L 321.984 110.16 
L 326.448 108 
L 330.912 110.16 
L 335.376 114.48 
L 339.84 105.84 
L 344.304 103.68 
L 348.768 105.84 
L 353.232 110.16 
L 357.696 118.8 
L 362.16 101.52 
L 366.624 103.68 
L 371.088 108 
L 375.552 116.64 
L 380.016 99.36 
L 384.48 97.2 
L 388.944 99.36 
L 393.408 95.04 
L 397.872 92.88 
L 402.336 95.04 
L 406.8 90.72 
L 411.264 88.56 
L 415.728 90.72 
L 420.192 95.04 
L 424.656 103.68 
L 429.12 120.96 
L 433.584 155.52 
L 438.048 86.4 
L 442.512 84.24 
L 446.976 82.08 
L 451.44 84.24 
L 455.904 88.56 
L 460.368 79.92 
L 464.832 77.76 
L 469.296 75.6 
L 473.76 73.44 
L 478.224 71.28 
L 482.688 69.12 
L 487.152 66.96 
L 491.616 69.12 
L 496.08 64.8 
L 500.544 66.96 
L 505.008 62.64 
L 509.472 64.8 
L 513.936 69.12 
L 518.4 77.76 
" style="fill:none;stroke:#008000;stroke-linecap:square;"/>
   </g>
   <g id="line2d_24">
    <path clip-path="url(#p6b96258d11)" d="M 76.464 170.64 
L 80.928 168.48 
L 85.392 166.32 
L 89.856 168.48 
L 94.32 172.8 
L 98.784 181.44 
L 103.248 164.16 
L 107.712 162 
L 112.176 159.84 
L 116.64 157.68 
L 121.104 159.84 
L 125.568 164.16 
L 130.032 155.52 
L 134.496 153.36 
L 138.96 155.52 
L 143.424 151.2 
L 147.888 149.04 
L 152.352 146.88 
L 156.816 149.04 
L 161.28 153.36 
L 165.744 162 
L 170.208 179.28 
L 174.672 213.84 
L 179.136 282.96 
" style="fill:none;stroke:#ff0000;stroke-linecap:square;"/>
   </g>
   <g id="line2d_25">
    <path clip-path="url(#p6b96258d11)" d="M 76.464 174.96 
L 80.928 170.64 
L 85.392 168.48 
L 89.856 166.32 
L 94.32 168.48 
L 98.784 164.16 
L 103.248 162 
L 107.712 164.16 
L 112.176 168.48 
L 116.64 159.84 
L 121.104 162 
L 125.568 157.68 
L 130.032 155.52 
L 134.496 157.68 
L 138.96 162 
L 143.424 153.36 
L 147.888 155.52 
L 152.352 159.84 
L 156.816 151.2 
L 161.28 149.04 
L 165.744 151.2 
L 170.208 155.52 
L 174.672 164.16 
L 179.136 181.44 
L 183.6 146.88 
L 188.064 149.04 
L 192.528 153.36 
L 196.992 162 
L 201.456 179.28 
L 205.92 213.84 
L 210.384 144.72 
L 214.848 142.56 
L 219.312 140.4 
L 223.776 138.24 
L 228.24 140.4 
L 232.704 136.08 
L 237.168 133.92 
L 241.632 136.08 
L 246.096 131.76 
L 250.56 133.92 
L 255.024 129.6 
L 259.488 127.44 
L 263.952 125.28 
L 268.416 123.12 
L 272.88 120.96 
L 277.344 123.12 
L 281.808 118.8 
L 286.272 120.96 
L 290.736 125.28 
L 295.2 133.92 
L 299.664 151.2 
L 304.128 116.64 
L 308.592 118.8 
L 313.056 123.12 
L 317.52 114.48 
L 321.984 116.64 
L 326.448 120.96 
L 330.912 129.6 
L 335.376 112.32 
L 339.84 114.48 
L 344.304 110.16 
L 348.768 112.32 
L 353.232 108 
L 357.696 105.84 
L 362.16 103.68 
L 366.624 105.84 
L 371.088 101.52 
L 375.552 99.36 
L 380.016 97.2 
L 384.48 95.04 
L 388.944 92.88 
L 393.408 90.72 
L 397.872 88.56 
L 402.336 86.4 
L 406.8 88.56 
L 411.264 84.24 
L 415.728 86.4 
L 420.192 82.08 
L 424.656 79.92 
L 429.12 82.08 
L 433.584 77.76 
L 438.048 75.6 
L 442.512 73.44 
L 446.976 75.6 
L 451.44 79.92 
L 455.904 71.28 
L 460.368 69.12 
L 464.832 71.28 
L 469.296 66.96 
L 473.76 69.12 
L 478.224 73.44 
L 482.688 82.08 
L 487.152 64.8 
L 491.616 66.96 
L 496.08 71.28 
L 500.544 79.92 
L 505.008 62.64 
L 509.472 64.8 
L 513.936 69.12 
L 518.4 60.48 
" style="fill:none;stroke:#00bfbf;stroke-linecap:square;"/>
   </g>
   <g id="line2d_26">
    <path clip-path="url(#p6b96258d11)" d="M 76.464 174.96 
L 80.928 170.64 
L 85.392 172.8 
L 89.856 168.48 
L 94.32 170.64 
L 98.784 166.32 
L 103.248 164.16 
L 107.712 166.32 
L 112.176 170.64 
L 116.64 162 
L 121.104 159.84 
L 125.568 157.68 
L 130.032 159.84 
L 134.496 155.52 
L 138.96 157.68 
L 143.424 153.36 
L 147.888 155.52 
L 152.352 151.2 
L 156.816 153.36 
L 161.28 149.04 
L 165.744 146.88 
L 170.208 144.72 
L 174.672 142.56 
L 179.136 140.4 
L 183.6 138.24 
L 188.064 140.4 
L 192.528 144.72 
L 196.992 153.36 
L 201.456 170.64 
L 205.92 136.08 
L 210.384 133.92 
L 214.848 136.08 
L 219.312 131.76 
L 223.776 133.92 
L 228.24 138.24 
L 232.704 129.6 
L 237.168 127.44 
L 241.632 125.28 
L 246.096 123.12 
L 250.56 125.28 
L 255.024 129.6 
L 259.488 120.96 
L 263.952 123.12 
L 268.416 118.8 
L 272.88 120.96 
L 277.344 116.64 
L 281.808 114.48 
L 286.272 112.32 
L 290.736 114.48 
L 295.2 110.16 
L 299.664 112.32 
L 304.128 116.64 
L 308.592 125.28 
L 313.056 108 
L 317.52 110.16 
L 321.984 114.48 
L 326.448 105.84 
L 330.912 108 
L 335.376 112.32 
L 339.84 120.96 
L 344.304 138.24 
L 348.768 172.8 
L 353.232 103.68 
L 357.696 101.52 
L 362.16 99.36 
L 366.624 101.52 
L 371.088 97.2 
L 375.552 95.04 
L 380.016 92.88 
L 384.48 95.04 
L 388.944 99.36 
L 393.408 90.72 
L 397.872 88.56 
L 402.336 86.4 
L 406.8 84.24 
L 411.264 82.08 
L 415.728 79.92 
L 420.192 82.08 
L 424.656 77.76 
L 429.12 79.92 
L 433.584 75.6 
L 438.048 77.76 
L 442.512 73.44 
L 446.976 71.28 
L 451.44 73.44 
L 455.904 77.76 
L 460.368 86.4 
L 464.832 69.12 
L 469.296 66.96 
L 473.76 69.12 
L 478.224 73.44 
L 482.688 82.08 
L 487.152 99.36 
L 491.616 133.92 
L 496.08 64.8 
L 500.544 62.64 
L 505.008 60.48 
L 509.472 58.32 
L 513.936 60.48 
L 518.4 56.16 
" style="fill:none;stroke:#bf00bf;stroke-linecap:square;"/>
   </g>
   <g id="line2d_27">
    <path clip-path="url(#p6b96258d11)" d="M 76.464 174.96 
L 80.928 170.64 
L 85.392 172.8 
L 89.856 168.48 
L 94.32 166.32 
L 98.784 164.16 
L 103.248 162 
L 107.712 164.16 
L 112.176 168.48 
L 116.64 159.84 
L 121.104 162 
L 125.568 157.68 
L 130.032 159.84 
L 134.496 155.52 
L 138.96 153.36 
L 143.424 155.52 
L 147.888 159.84 
L 152.352 168.48 
L 156.816 151.2 
L 161.28 149.04 
L 165.744 146.88 
L 170.208 144.72 
L 174.672 146.88 
L 179.136 151.2 
L 183.6 142.56 
L 188.064 140.4 
L 192.528 142.56 
L 196.992 138.24 
L 201.456 140.4 
L 205.92 136.08 
L 210.384 133.92 
L 214.848 131.76 
L 219.312 133.92 
L 223.776 129.6 
L 228.24 127.44 
L 232.704 125.28 
L 237.168 127.44 
L 241.632 123.12 
L 246.096 125.28 
L 250.56 120.96 
L 255.024 123.12 
L 259.488 127.44 
L 263.952 118.8 
L 268.416 120.96 
L 272.88 116.64 
L 277.344 114.48 
L 281.808 116.64 
L 286.272 120.96 
L 290.736 129.6 
L 295.2 112.32 
L 299.664 114.48 
L 304.128 118.8 
L 308.592 127.44 
L 313.056 144.72 
L 317.52 179.28 
L 321.984 110.16 
L 326.448 112.32 
L 330.912 116.64 
L 335.376 125.28 
L 339.84 108 
L 344.304 105.84 
L 348.768 103.68 
L 353.232 105.84 
L 357.696 110.16 
L 362.16 118.8 
L 366.624 101.52 
L 371.088 99.36 
L 375.552 101.52 
L 380.016 97.2 
L 384.48 95.04 
L 388.944 97.2 
L 393.408 92.88 
L 397.872 90.72 
L 402.336 88.56 
L 406.8 90.72 
L 411.264 86.4 
L 415.728 84.24 
L 420.192 82.08 
L 424.656 84.24 
L 429.12 88.56 
L 433.584 97.2 
L 438.048 114.48 
L 442.512 149.04 
L 446.976 218.16 
" style="fill:none;stroke:#bfbf00;stroke-linecap:square;"/>
   </g>
   <g id="line2d_28">
    <path clip-path="url(#p6b96258d11)" d="M 76.464 170.64 
L 80.928 168.48 
L 85.392 166.32 
L 89.856 164.16 
L 94.32 166.32 
L 98.784 170.64 
L 103.248 162 
L 107.712 164.16 
L 112.176 168.48 
L 116.64 159.84 
L 121.104 157.68 
L 125.568 159.84 
L 130.032 164.16 
L 134.496 155.52 
L 138.96 157.68 
L 143.424 162 
L 147.888 170.64 
L 152.352 153.36 
L 156.816 155.52 
L 161.28 159.84 
L 165.744 168.48 
L 170.208 185.76 
L 174.672 151.2 
L 179.136 149.04 
L 183.6 151.2 
L 188.064 155.52 
L 192.528 146.88 
L 196.992 149.04 
L 201.456 144.72 
L 205.92 146.88 
L 210.384 142.56 
L 214.848 144.72 
L 219.312 140.4 
L 223.776 138.24 
L 228.24 136.08 
L 232.704 138.24 
L 237.168 142.56 
L 241.632 133.92 
L 246.096 131.76 
L 250.56 133.92 
L 255.024 138.24 
L 259.488 129.6 
L 263.952 131.76 
L 268.416 127.44 
L 272.88 129.6 
L 277.344 125.28 
L 281.808 123.12 
L 286.272 125.28 
L 290.736 129.6 
L 295.2 138.24 
L 299.664 120.96 
L 304.128 118.8 
L 308.592 116.64 
L 313.056 114.48 
L 317.52 116.64 
L 321.984 112.32 
L 326.448 110.16 
L 330.912 112.32 
L 335.376 116.64 
L 339.84 108 
L 344.304 110.16 
L 348.768 105.84 
L 353.232 103.68 
L 357.696 101.52 
L 362.16 103.68 
L 366.624 108 
L 371.088 116.64 
L 375.552 133.92 
L 380.016 99.36 
L 384.48 101.52 
L 388.944 97.2 
L 393.408 95.04 
L 397.872 97.2 
L 402.336 101.52 
L 406.8 92.88 
L 411.264 95.04 
L 415.728 90.72 
L 420.192 88.56 
L 424.656 86.4 
L 429.12 84.24 
L 433.584 86.4 
L 438.048 90.72 
L 442.512 82.08 
L 446.976 84.24 
L 451.44 88.56 
L 455.904 79.92 
L 460.368 77.76 
L 464.832 75.6 
L 469.296 73.44 
L 473.76 75.6 
L 478.224 71.28 
L 482.688 69.12 
L 487.152 71.28 
L 491.616 75.6 
L 496.08 66.96 
L 500.544 64.8 
L 505.008 62.64 
L 509.472 60.48 
L 513.936 62.64 
L 518.4 66.96 
" style="fill:none;stroke:#000000;stroke-linecap:square;"/>
   </g>
   <g id="line2d_29">
    <path clip-path="url(#p6b96258d11)" d="M 76.464 170.64 
L 80.928 172.8 
L 85.392 168.48 
L 89.856 166.32 
L 94.32 164.16 
L 98.784 166.32 
L 103.248 162 
L 107.712 164.16 
L 112.176 168.48 
L 116.64 177.12 
L 121.104 194.4 
L 125.568 159.84 
L 130.032 162 
L 134.496 157.68 
L 138.96 159.84 
L 143.424 164.16 
L 147.888 172.8 
L 152.352 155.52 
L 156.816 153.36 
L 161.28 155.52 
L 165.744 159.84 
L 170.208 151.2 
L 174.672 149.04 
L 179.136 146.88 
L 183.6 144.72 
L 188.064 146.88 
L 192.528 151.2 
L 196.992 142.56 
L 201.456 144.72 
L 205.92 149.04 
L 210.384 157.68 
L 214.848 140.4 
L 219.312 142.56 
L 223.776 146.88 
L 228.24 138.24 
L 232.704 136.08 
L 237.168 138.24 
L 241.632 133.92 
L 246.096 136.08 
L 250.56 131.76 
L 255.024 129.6 
L 259.488 127.44 
L 263.952 125.28 
L 268.416 127.44 
L 272.88 131.76 
L 277.344 123.12 
L 281.808 120.96 
L 286.272 123.12 
L 290.736 127.44 
L 295.2 118.8 
L 299.664 116.64 
L 304.128 114.48 
L 308.592 116.64 
L 313.056 120.96 
L 317.52 112.32 
L 321.984 114.48 
L 326.448 118.8 
L 330.912 110.16 
L 335.376 108 
L 339.84 105.84 
L 344.304 103.68 
L 348.768 105.84 
L 353.232 110.16 
L 357.696 118.8 
L 362.16 101.52 
L 366.624 99.36 
L 371.088 97.2 
L 375.552 95.04 
L 380.016 97.2 
L 384.48 101.52 
L 388.944 92.88 
L 393.408 95.04 
L 397.872 90.72 
L 402.336 92.88 
L 406.8 88.56 
L 411.264 86.4 
L 415.728 88.56 
L 420.192 92.88 
L 424.656 101.52 
L 429.12 84.24 
L 433.584 82.08 
L 438.048 79.92 
L 442.512 77.76 
L 446.976 79.92 
L 451.44 75.6 
L 455.904 77.76 
L 460.368 73.44 
L 464.832 71.28 
L 469.296 69.12 
L 473.76 71.28 
L 478.224 75.6 
L 482.688 84.24 
L 487.152 101.52 
L 491.616 66.96 
L 496.08 64.8 
L 500.544 66.96 
L 505.008 71.28 
L 509.472 79.92 
L 513.936 97.2 
L 518.4 62.64 
" style="fill:none;stroke:#0000ff;stroke-linecap:square;"/>
   </g>
   <g id="line2d_30">
    <path clip-path="url(#p6b96258d11)" d="M 76.464 170.64 
L 80.928 172.8 
L 85.392 177.12 
L 89.856 185.76 
L 94.32 168.48 
L 98.784 166.32 
L 103.248 168.48 
L 107.712 172.8 
L 112.176 181.44 
L 116.64 198.72 
L 121.104 233.28 
" style="fill:none;stroke:#008000;stroke-linecap:square;"/>
   </g>
   <g id="line2d_31">
    <path clip-path="url(#p6b96258d11)" d="M 76.464 170.64 
L 80.928 172.8 
L 85.392 177.12 
L 89.856 185.76 
L 94.32 203.04 
L 98.784 237.6 
" style="fill:none;stroke:#ff0000;stroke-linecap:square;"/>
   </g>
   <g id="line2d_32">
    <path clip-path="url(#p6b96258d11)" d="M 76.464 170.64 
L 80.928 168.48 
L 85.392 166.32 
L 89.856 168.48 
L 94.32 164.16 
L 98.784 166.32 
L 103.248 162 
L 107.712 159.84 
L 112.176 162 
L 116.64 166.32 
L 121.104 157.68 
L 125.568 159.84 
L 130.032 155.52 
L 134.496 153.36 
L 138.96 155.52 
L 143.424 151.2 
L 147.888 153.36 
L 152.352 157.68 
L 156.816 149.04 
L 161.28 151.2 
L 165.744 146.88 
L 170.208 149.04 
L 174.672 144.72 
L 179.136 146.88 
L 183.6 142.56 
L 188.064 140.4 
L 192.528 142.56 
L 196.992 138.24 
L 201.456 136.08 
L 205.92 133.92 
L 210.384 136.08 
L 214.848 140.4 
L 219.312 149.04 
L 223.776 166.32 
L 228.24 131.76 
L 232.704 129.6 
L 237.168 131.76 
L 241.632 136.08 
L 246.096 127.44 
L 250.56 129.6 
L 255.024 125.28 
L 259.488 123.12 
L 263.952 125.28 
L 268.416 120.96 
L 272.88 118.8 
L 277.344 116.64 
L 281.808 114.48 
L 286.272 116.64 
L 290.736 120.96 
L 295.2 129.6 
L 299.664 112.32 
L 304.128 114.48 
L 308.592 110.16 
L 313.056 108 
L 317.52 110.16 
L 321.984 114.48 
L 326.448 105.84 
L 330.912 108 
L 335.376 103.68 
L 339.84 101.52 
L 344.304 103.68 
L 348.768 99.36 
L 353.232 97.2 
L 357.696 95.04 
L 362.16 92.88 
L 366.624 95.04 
L 371.088 99.36 
L 375.552 108 
L 380.016 125.28 
L 384.48 159.84 
L 388.944 90.72 
L 393.408 92.88 
L 397.872 88.56 
L 402.336 86.4 
L 406.8 84.24 
L 411.264 86.4 
L 415.728 90.72 
L 420.192 82.08 
L 424.656 79.92 
L 429.12 82.08 
L 433.584 77.76 
L 438.048 79.92 
L 442.512 84.24 
L 446.976 92.88 
L 451.44 110.16 
L 455.904 75.6 
L 460.368 77.76 
L 464.832 82.08 
L 469.296 90.72 
L 473.76 108 
L 478.224 73.44 
L 482.688 71.28 
L 487.152 69.12 
L 491.616 71.28 
L 496.08 66.96 
L 500.544 69.12 
L 505.008 64.8 
L 509.472 66.96 
L 513.936 71.28 
L 518.4 62.64 
" style="fill:none;stroke:#00bfbf;stroke-linecap:square;"/>
   </g>
   <g id="line2d_33">
    <path clip-path="url(#p6b96258d11)" d="M 76.464 174.96 
L 80.928 179.28 
L 85.392 187.92 
L 89.856 205.2 
L 94.32 239.76 
" style="fill:none;stroke:#bf00bf;stroke-linecap:square;"/>
   </g>
   <g id="line2d_34">
    <path clip-path="url(#p6b96258d11)" d="M 76.464 174.96 
L 80.928 179.28 
L 85.392 187.92 
L 89.856 205.2 
L 94.32 239.76 
" style="fill:none;stroke:#bfbf00;stroke-linecap:square;"/>
   </g>
   <g id="line2d_35">
    <path clip-path="url(#p6b96258d11)" d="M 76.464 170.64 
L 80.928 172.8 
L 85.392 177.12 
L 89.856 168.48 
L 94.32 166.32 
L 98.784 164.16 
L 103.248 166.32 
L 107.712 170.64 
L 112.176 179.28 
L 116.64 162 
L 121.104 164.16 
L 125.568 159.84 
L 130.032 157.68 
L 134.496 155.52 
L 138.96 157.68 
L 143.424 153.36 
L 147.888 151.2 
L 152.352 153.36 
L 156.816 157.68 
L 161.28 166.32 
L 165.744 183.6 
L 170.208 149.04 
L 174.672 146.88 
L 179.136 149.04 
L 183.6 153.36 
L 188.064 144.72 
L 192.528 142.56 
L 196.992 140.4 
L 201.456 138.24 
L 205.92 140.4 
L 210.384 144.72 
L 214.848 153.36 
L 219.312 170.64 
L 223.776 205.2 
L 228.24 274.32 
" style="fill:none;stroke:#000000;stroke-linecap:square;"/>
   </g>
   <g id="line2d_36">
    <path clip-path="url(#p6b96258d11)" d="M 76.464 174.96 
L 80.928 170.64 
L 85.392 172.8 
L 89.856 168.48 
L 94.32 166.32 
L 98.784 164.16 
L 103.248 166.32 
L 107.712 170.64 
L 112.176 179.28 
L 116.64 196.56 
L 121.104 162 
L 125.568 159.84 
L 130.032 162 
L 134.496 166.32 
L 138.96 174.96 
L 143.424 192.24 
L 147.888 226.8 
" style="fill:none;stroke:#0000ff;stroke-linecap:square;"/>
   </g>
   <g id="line2d_37">
    <path clip-path="url(#p6b96258d11)" d="M 76.464 170.64 
L 80.928 172.8 
L 85.392 177.12 
L 89.856 168.48 
L 94.32 166.32 
L 98.784 164.16 
L 103.248 162 
L 107.712 159.84 
L 112.176 157.68 
L 116.64 159.84 
L 121.104 164.16 
L 125.568 155.52 
L 130.032 157.68 
L 134.496 162 
L 138.96 153.36 
L 143.424 151.2 
L 147.888 153.36 
L 152.352 149.04 
L 156.816 151.2 
L 161.28 155.52 
L 165.744 146.88 
L 170.208 149.04 
L 174.672 144.72 
L 179.136 146.88 
L 183.6 142.56 
L 188.064 140.4 
L 192.528 138.24 
L 196.992 140.4 
L 201.456 136.08 
L 205.92 133.92 
L 210.384 136.08 
L 214.848 140.4 
L 219.312 149.04 
L 223.776 166.32 
L 228.24 200.88 
L 232.704 270 
" style="fill:none;stroke:#008000;stroke-linecap:square;"/>
   </g>
   <g id="line2d_38">
    <path clip-path="url(#p6b96258d11)" d="M 76.464 170.64 
L 80.928 168.48 
L 85.392 170.64 
L 89.856 166.32 
L 94.32 168.48 
L 98.784 164.16 
L 103.248 162 
L 107.712 159.84 
L 112.176 157.68 
L 116.64 159.84 
L 121.104 155.52 
L 125.568 153.36 
L 130.032 155.52 
L 134.496 159.84 
L 138.96 151.2 
L 143.424 153.36 
L 147.888 149.04 
L 152.352 146.88 
L 156.816 149.04 
L 161.28 153.36 
L 165.744 144.72 
L 170.208 142.56 
L 174.672 144.72 
L 179.136 140.4 
L 183.6 138.24 
L 188.064 140.4 
L 192.528 144.72 
L 196.992 136.08 
L 201.456 138.24 
L 205.92 142.56 
L 210.384 151.2 
L 214.848 168.48 
L 219.312 133.92 
L 223.776 136.08 
L 228.24 131.76 
L 232.704 133.92 
L 237.168 138.24 
L 241.632 146.88 
L 246.096 129.6 
L 250.56 127.44 
L 255.024 125.28 
L 259.488 123.12 
L 263.952 120.96 
L 268.416 118.8 
L 272.88 120.96 
L 277.344 116.64 
L 281.808 118.8 
L 286.272 114.48 
L 290.736 112.32 
L 295.2 110.16 
L 299.664 108 
L 304.128 105.84 
L 308.592 103.68 
L 313.056 101.52 
L 317.52 99.36 
L 321.984 101.52 
L 326.448 97.2 
L 330.912 99.36 
L 335.376 103.68 
L 339.84 95.04 
L 344.304 97.2 
L 348.768 101.52 
L 353.232 92.88 
L 357.696 95.04 
L 362.16 99.36 
L 366.624 90.72 
L 371.088 92.88 
L 375.552 88.56 
L 380.016 86.4 
L 384.48 84.24 
L 388.944 82.08 
L 393.408 79.92 
L 397.872 77.76 
L 402.336 79.92 
L 406.8 84.24 
L 411.264 75.6 
L 415.728 73.44 
L 420.192 75.6 
L 424.656 79.92 
L 429.12 71.28 
L 433.584 73.44 
L 438.048 69.12 
L 442.512 71.28 
L 446.976 66.96 
L 451.44 64.8 
L 455.904 66.96 
L 460.368 62.64 
L 464.832 60.48 
L 469.296 62.64 
L 473.76 66.96 
L 478.224 75.6 
L 482.688 92.88 
L 487.152 127.44 
L 491.616 196.56 
L 496.08 334.8 
" style="fill:none;stroke:#ff0000;stroke-linecap:square;"/>
   </g>
   <g id="line2d_39">
    <path clip-path="url(#p6b96258d11)" d="M 76.464 170.64 
L 80.928 172.8 
L 85.392 177.12 
L 89.856 185.76 
L 94.32 203.04 
L 98.784 237.6 
" style="fill:none;stroke:#00bfbf;stroke-linecap:square;"/>
   </g>
   <g id="line2d_40">
    <path clip-path="url(#p6b96258d11)" d="M 76.464 170.64 
L 80.928 168.48 
L 85.392 166.32 
L 89.856 168.48 
L 94.32 172.8 
L 98.784 164.16 
L 103.248 162 
L 107.712 164.16 
L 112.176 159.84 
L 116.64 157.68 
L 121.104 155.52 
L 125.568 157.68 
L 130.032 153.36 
L 134.496 151.2 
L 138.96 149.04 
L 143.424 151.2 
L 147.888 155.52 
L 152.352 146.88 
L 156.816 149.04 
L 161.28 144.72 
L 165.744 142.56 
L 170.208 144.72 
L 174.672 149.04 
L 179.136 140.4 
L 183.6 142.56 
L 188.064 146.88 
L 192.528 155.52 
L 196.992 138.24 
L 201.456 140.4 
L 205.92 136.08 
L 210.384 133.92 
L 214.848 131.76 
L 219.312 129.6 
L 223.776 131.76 
L 228.24 136.08 
L 232.704 127.44 
L 237.168 129.6 
L 241.632 133.92 
L 246.096 125.28 
L 250.56 127.44 
L 255.024 123.12 
L 259.488 125.28 
L 263.952 120.96 
L 268.416 123.12 
L 272.88 127.44 
L 277.344 136.08 
L 281.808 118.8 
L 286.272 120.96 
L 290.736 116.64 
L 295.2 118.8 
L 299.664 123.12 
L 304.128 131.76 
L 308.592 114.48 
L 313.056 112.32 
L 317.52 114.48 
L 321.984 110.16 
L 326.448 112.32 
L 330.912 116.64 
L 335.376 125.28 
L 339.84 142.56 
L 344.304 108 
L 348.768 105.84 
L 353.232 103.68 
L 357.696 105.84 
L 362.16 110.16 
L 366.624 118.8 
L 371.088 101.52 
L 375.552 103.68 
L 380.016 99.36 
L 384.48 101.52 
L 388.944 97.2 
L 393.408 99.36 
L 397.872 95.04 
L 402.336 97.2 
L 406.8 101.52 
L 411.264 92.88 
L 415.728 95.04 
L 420.192 90.72 
L 424.656 92.88 
L 429.12 97.2 
L 433.584 105.84 
L 438.048 123.12 
L 442.512 88.56 
L 446.976 90.72 
L 451.44 95.04 
L 455.904 103.68 
L 460.368 86.4 
L 464.832 84.24 
L 469.296 82.08 
L 473.76 79.92 
L 478.224 77.76 
L 482.688 75.6 
L 487.152 77.76 
L 491.616 73.44 
L 496.08 71.28 
L 500.544 73.44 
L 505.008 77.76 
L 509.472 69.12 
L 513.936 66.96 
L 518.4 64.8 
" style="fill:none;stroke:#bf00bf;stroke-linecap:square;"/>
   </g>
   <g id="line2d_41">
    <path clip-path="url(#p6b96258d11)" d="M 76.464 170.64 
L 80.928 172.8 
L 85.392 177.12 
L 89.856 168.48 
L 94.32 166.32 
L 98.784 164.16 
L 103.248 166.32 
L 107.712 162 
L 112.176 159.84 
L 116.64 162 
L 121.104 166.32 
L 125.568 157.68 
L 130.032 159.84 
L 134.496 164.16 
L 138.96 155.52 
L 143.424 157.68 
L 147.888 153.36 
L 152.352 151.2 
L 156.816 153.36 
L 161.28 157.68 
L 165.744 166.32 
L 170.208 149.04 
L 174.672 146.88 
L 179.136 144.72 
L 183.6 146.88 
L 188.064 142.56 
L 192.528 140.4 
L 196.992 142.56 
L 201.456 138.24 
L 205.92 136.08 
L 210.384 138.24 
L 214.848 142.56 
L 219.312 151.2 
L 223.776 133.92 
L 228.24 136.08 
L 232.704 140.4 
L 237.168 131.76 
L 241.632 133.92 
L 246.096 138.24 
L 250.56 129.6 
L 255.024 127.44 
L 259.488 129.6 
L 263.952 133.92 
L 268.416 142.56 
L 272.88 125.28 
L 277.344 127.44 
L 281.808 131.76 
L 286.272 123.12 
L 290.736 125.28 
L 295.2 129.6 
L 299.664 138.24 
L 304.128 155.52 
L 308.592 120.96 
L 313.056 118.8 
L 317.52 116.64 
L 321.984 118.8 
L 326.448 114.48 
L 330.912 116.64 
L 335.376 112.32 
L 339.84 110.16 
L 344.304 112.32 
L 348.768 116.64 
L 353.232 125.28 
L 357.696 142.56 
L 362.16 177.12 
L 366.624 246.24 
" style="fill:none;stroke:#bfbf00;stroke-linecap:square;"/>
   </g>
   <g id="line2d_42">
    <path clip-path="url(#p6b96258d11)" d="M 76.464 174.96 
L 80.928 179.28 
L 85.392 170.64 
L 89.856 172.8 
L 94.32 168.48 
L 98.784 170.64 
L 103.248 174.96 
L 107.712 166.32 
L 112.176 164.16 
L 116.64 162 
L 121.104 159.84 
L 125.568 162 
L 130.032 157.68 
L 134.496 159.84 
L 138.96 164.16 
L 143.424 172.8 
L 147.888 155.52 
L 152.352 157.68 
L 156.816 162 
L 161.28 153.36 
L 165.744 155.52 
L 170.208 151.2 
L 174.672 153.36 
L 179.136 157.68 
L 183.6 166.32 
L 188.064 183.6 
L 192.528 149.04 
L 196.992 151.2 
L 201.456 146.88 
L 205.92 149.04 
L 210.384 144.72 
L 214.848 142.56 
L 219.312 144.72 
L 223.776 140.4 
L 228.24 138.24 
L 232.704 136.08 
L 237.168 133.92 
L 241.632 136.08 
L 246.096 140.4 
L 250.56 131.76 
L 255.024 129.6 
L 259.488 127.44 
L 263.952 129.6 
L 268.416 133.92 
L 272.88 125.28 
L 277.344 123.12 
L 281.808 120.96 
L 286.272 123.12 
L 290.736 118.8 
L 295.2 116.64 
L 299.664 118.8 
L 304.128 114.48 
L 308.592 116.64 
L 313.056 112.32 
L 317.52 110.16 
L 321.984 108 
L 326.448 110.16 
L 330.912 105.84 
L 335.376 103.68 
L 339.84 105.84 
L 344.304 101.52 
L 348.768 99.36 
L 353.232 101.52 
L 357.696 105.84 
L 362.16 97.2 
L 366.624 99.36 
L 371.088 103.68 
L 375.552 112.32 
L 380.016 95.04 
L 384.48 97.2 
L 388.944 92.88 
L 393.408 90.72 
L 397.872 88.56 
L 402.336 86.4 
L 406.8 88.56 
L 411.264 84.24 
L 415.728 86.4 
L 420.192 90.72 
L 424.656 99.36 
L 429.12 116.64 
L 433.584 82.08 
L 438.048 84.24 
L 442.512 79.92 
L 446.976 82.08 
L 451.44 77.76 
L 455.904 75.6 
L 460.368 77.76 
L 464.832 82.08 
L 469.296 90.72 
L 473.76 108 
L 478.224 142.56 
L 482.688 73.44 
L 487.152 75.6 
L 491.616 71.28 
L 496.08 73.44 
L 500.544 69.12 
L 505.008 66.96 
L 509.472 69.12 
L 513.936 73.44 
L 518.4 64.8 
" style="fill:none;stroke:#000000;stroke-linecap:square;"/>
   </g>
   <g id="line2d_43">
    <path clip-path="url(#p6b96258d11)" d="M 76.464 174.96 
L 80.928 170.64 
L 85.392 172.8 
L 89.856 168.48 
L 94.32 170.64 
L 98.784 174.96 
L 103.248 183.6 
L 107.712 166.32 
L 112.176 168.48 
L 116.64 172.8 
L 121.104 164.16 
L 125.568 162 
L 130.032 164.16 
L 134.496 159.84 
L 138.96 157.68 
L 143.424 155.52 
L 147.888 157.68 
L 152.352 153.36 
L 156.816 155.52 
L 161.28 159.84 
L 165.744 151.2 
L 170.208 149.04 
L 174.672 146.88 
L 179.136 149.04 
L 183.6 153.36 
L 188.064 144.72 
L 192.528 146.88 
L 196.992 142.56 
L 201.456 140.4 
L 205.92 142.56 
L 210.384 146.88 
L 214.848 155.52 
L 219.312 172.8 
L 223.776 207.36 
L 228.24 138.24 
L 232.704 136.08 
L 237.168 138.24 
L 241.632 133.92 
L 246.096 136.08 
L 250.56 131.76 
L 255.024 133.92 
L 259.488 138.24 
L 263.952 146.88 
L 268.416 129.6 
L 272.88 131.76 
L 277.344 136.08 
L 281.808 127.44 
L 286.272 129.6 
L 290.736 125.28 
L 295.2 123.12 
L 299.664 120.96 
L 304.128 123.12 
L 308.592 127.44 
L 313.056 118.8 
L 317.52 116.64 
L 321.984 114.48 
L 326.448 116.64 
L 330.912 120.96 
L 335.376 129.6 
L 339.84 146.88 
L 344.304 181.44 
L 348.768 112.32 
L 353.232 114.48 
L 357.696 118.8 
L 362.16 127.44 
L 366.624 144.72 
L 371.088 179.28 
L 375.552 110.16 
L 380.016 108 
L 384.48 110.16 
L 388.944 105.84 
L 393.408 108 
L 397.872 103.68 
L 402.336 105.84 
L 406.8 110.16 
L 411.264 101.52 
L 415.728 99.36 
L 420.192 97.2 
L 424.656 99.36 
L 429.12 95.04 
L 433.584 97.2 
L 438.048 92.88 
L 442.512 90.72 
L 446.976 88.56 
L 451.44 86.4 
L 455.904 88.56 
L 460.368 92.88 
L 464.832 84.24 
L 469.296 82.08 
L 473.76 84.24 
L 478.224 79.92 
L 482.688 82.08 
L 487.152 77.76 
L 491.616 79.92 
L 496.08 75.6 
L 500.544 73.44 
L 505.008 71.28 
L 509.472 73.44 
L 513.936 69.12 
L 518.4 71.28 
" style="fill:none;stroke:#0000ff;stroke-linecap:square;"/>
   </g>
   <g id="line2d_44">
    <path clip-path="url(#p6b96258d11)" d="M 76.464 174.96 
L 80.928 179.28 
L 85.392 187.92 
L 89.856 205.2 
L 94.32 170.64 
L 98.784 168.48 
L 103.248 170.64 
L 107.712 174.96 
L 112.176 166.32 
L 116.64 168.48 
L 121.104 172.8 
L 125.568 164.16 
L 130.032 162 
L 134.496 159.84 
L 138.96 162 
L 143.424 166.32 
L 147.888 174.96 
L 152.352 157.68 
L 156.816 159.84 
L 161.28 155.52 
L 165.744 153.36 
L 170.208 151.2 
L 174.672 153.36 
L 179.136 157.68 
L 183.6 166.32 
L 188.064 149.04 
L 192.528 151.2 
L 196.992 155.52 
L 201.456 164.16 
L 205.92 181.44 
L 210.384 216 
L 214.848 146.88 
L 219.312 149.04 
L 223.776 144.72 
L 228.24 146.88 
L 232.704 151.2 
L 237.168 142.56 
L 241.632 140.4 
L 246.096 142.56 
L 250.56 138.24 
L 255.024 140.4 
L 259.488 136.08 
L 263.952 138.24 
L 268.416 142.56 
L 272.88 133.92 
L 277.344 136.08 
L 281.808 131.76 
L 286.272 133.92 
L 290.736 129.6 
L 295.2 127.44 
L 299.664 125.28 
L 304.128 123.12 
L 308.592 120.96 
L 313.056 123.12 
L 317.52 118.8 
L 321.984 116.64 
L 326.448 114.48 
L 330.912 116.64 
L 335.376 120.96 
L 339.84 129.6 
L 344.304 146.88 
L 348.768 181.44 
L 353.232 112.32 
L 357.696 114.48 
L 362.16 118.8 
L 366.624 127.44 
L 371.088 110.16 
L 375.552 108 
L 380.016 105.84 
L 384.48 103.68 
L 388.944 105.84 
L 393.408 110.16 
L 397.872 101.52 
L 402.336 99.36 
L 406.8 101.52 
L 411.264 97.2 
L 415.728 95.04 
L 420.192 97.2 
L 424.656 101.52 
L 429.12 110.16 
L 433.584 127.44 
L 438.048 162 
L 442.512 92.88 
L 446.976 95.04 
L 451.44 99.36 
L 455.904 90.72 
L 460.368 88.56 
L 464.832 90.72 
L 469.296 95.04 
L 473.76 86.4 
L 478.224 88.56 
L 482.688 84.24 
L 487.152 82.08 
L 491.616 79.92 
L 496.08 82.08 
L 500.544 77.76 
L 505.008 79.92 
L 509.472 75.6 
L 513.936 73.44 
L 518.4 71.28 
" style="fill:none;stroke:#008000;stroke-linecap:square;"/>
   </g>
   <g id="line2d_45">
    <path clip-path="url(#p6b96258d11)" d="M 76.464 170.64 
L 80.928 168.48 
L 85.392 170.64 
L 89.856 174.96 
L 94.32 183.6 
L 98.784 166.32 
L 103.248 168.48 
L 107.712 164.16 
L 112.176 162 
L 116.64 164.16 
L 121.104 159.84 
L 125.568 162 
L 130.032 157.68 
L 134.496 155.52 
L 138.96 157.68 
L 143.424 153.36 
L 147.888 155.52 
L 152.352 151.2 
L 156.816 149.04 
L 161.28 146.88 
L 165.744 149.04 
L 170.208 144.72 
L 174.672 146.88 
L 179.136 151.2 
L 183.6 142.56 
L 188.064 140.4 
L 192.528 142.56 
L 196.992 146.88 
L 201.456 155.52 
L 205.92 138.24 
L 210.384 140.4 
L 214.848 136.08 
L 219.312 133.92 
L 223.776 131.76 
L 228.24 133.92 
L 232.704 138.24 
L 237.168 129.6 
L 241.632 127.44 
L 246.096 125.28 
L 250.56 123.12 
L 255.024 125.28 
L 259.488 120.96 
L 263.952 123.12 
L 268.416 127.44 
L 272.88 136.08 
L 277.344 118.8 
L 281.808 120.96 
L 286.272 116.64 
L 290.736 114.48 
L 295.2 112.32 
L 299.664 110.16 
L 304.128 112.32 
L 308.592 116.64 
L 313.056 125.28 
L 317.52 108 
L 321.984 105.84 
L 326.448 103.68 
L 330.912 105.84 
L 335.376 101.52 
L 339.84 99.36 
L 344.304 101.52 
L 348.768 97.2 
L 353.232 95.04 
L 357.696 92.88 
L 362.16 90.72 
L 366.624 92.88 
L 371.088 97.2 
L 375.552 105.84 
L 380.016 123.12 
L 384.48 157.68 
L 388.944 88.56 
L 393.408 90.72 
L 397.872 95.04 
L 402.336 86.4 
L 406.8 84.24 
L 411.264 86.4 
L 415.728 90.72 
L 420.192 82.08 
L 424.656 79.92 
L 429.12 77.76 
L 433.584 75.6 
L 438.048 73.44 
L 442.512 71.28 
L 446.976 73.44 
L 451.44 69.12 
L 455.904 71.28 
L 460.368 66.96 
L 464.832 64.8 
L 469.296 62.64 
L 473.76 64.8 
L 478.224 60.48 
L 482.688 58.32 
L 487.152 60.48 
L 491.616 56.16 
L 496.08 54 
L 500.544 51.84 
L 505.008 49.68 
L 509.472 47.52 
L 513.936 49.68 
L 518.4 45.36 
" style="fill:none;stroke:#ff0000;stroke-linecap:square;"/>
   </g>
   <g id="line2d_46">
    <path clip-path="url(#p6b96258d11)" d="M 76.464 170.64 
L 80.928 168.48 
L 85.392 166.32 
L 89.856 164.16 
L 94.32 162 
L 98.784 159.84 
L 103.248 162 
L 107.712 157.68 
L 112.176 159.84 
L 116.64 155.52 
L 121.104 153.36 
L 125.568 151.2 
L 130.032 153.36 
L 134.496 157.68 
L 138.96 149.04 
L 143.424 151.2 
L 147.888 155.52 
L 152.352 146.88 
L 156.816 144.72 
L 161.28 146.88 
L 165.744 142.56 
L 170.208 140.4 
L 174.672 138.24 
L 179.136 136.08 
L 183.6 133.92 
L 188.064 131.76 
L 192.528 133.92 
L 196.992 138.24 
L 201.456 129.6 
L 205.92 127.44 
L 210.384 125.28 
L 214.848 123.12 
L 219.312 125.28 
L 223.776 120.96 
L 228.24 123.12 
L 232.704 118.8 
L 237.168 116.64 
L 241.632 114.48 
L 246.096 112.32 
L 250.56 114.48 
L 255.024 110.16 
L 259.488 112.32 
L 263.952 108 
L 268.416 110.16 
L 272.88 114.48 
L 277.344 105.84 
L 281.808 108 
L 286.272 112.32 
L 290.736 120.96 
L 295.2 103.68 
L 299.664 105.84 
L 304.128 110.16 
L 308.592 101.52 
L 313.056 103.68 
L 317.52 108 
L 321.984 116.64 
L 326.448 133.92 
L 330.912 99.36 
L 335.376 97.2 
L 339.84 99.36 
L 344.304 103.68 
L 348.768 112.32 
L 353.232 129.6 
L 357.696 164.16 
L 362.16 233.28 
" style="fill:none;stroke:#00bfbf;stroke-linecap:square;"/>
   </g>
   <g id="line2d_47">
    <path clip-path="url(#p6b96258d11)" d="M 76.464 170.64 
L 80.928 168.48 
L 85.392 170.64 
L 89.856 166.32 
L 94.32 164.16 
L 98.784 162 
L 103.248 164.16 
L 107.712 168.48 
L 112.176 177.12 
L 116.64 194.4 
L 121.104 159.84 
L 125.568 162 
L 130.032 157.68 
L 134.496 159.84 
L 138.96 164.16 
L 143.424 172.8 
L 147.888 190.08 
L 152.352 155.52 
L 156.816 153.36 
L 161.28 155.52 
L 165.744 151.2 
L 170.208 153.36 
L 174.672 149.04 
L 179.136 146.88 
L 183.6 149.04 
L 188.064 153.36 
L 192.528 162 
L 196.992 179.28 
L 201.456 144.72 
L 205.92 142.56 
L 210.384 140.4 
L 214.848 138.24 
L 219.312 136.08 
L 223.776 138.24 
L 228.24 142.56 
L 232.704 151.2 
L 237.168 133.92 
L 241.632 136.08 
L 246.096 131.76 
L 250.56 133.92 
L 255.024 138.24 
L 259.488 129.6 
L 263.952 127.44 
L 268.416 125.28 
L 272.88 127.44 
L 277.344 131.76 
L 281.808 123.12 
L 286.272 125.28 
L 290.736 120.96 
L 295.2 123.12 
L 299.664 118.8 
L 304.128 116.64 
L 308.592 114.48 
L 313.056 116.64 
L 317.52 120.96 
L 321.984 129.6 
L 326.448 112.32 
L 330.912 110.16 
L 335.376 108 
L 339.84 105.84 
L 344.304 103.68 
L 348.768 101.52 
L 353.232 99.36 
L 357.696 101.52 
L 362.16 105.84 
L 366.624 114.48 
L 371.088 97.2 
L 375.552 99.36 
L 380.016 95.04 
L 384.48 97.2 
L 388.944 101.52 
L 393.408 92.88 
L 397.872 95.04 
L 402.336 99.36 
L 406.8 108 
L 411.264 90.72 
L 415.728 88.56 
L 420.192 90.72 
L 424.656 86.4 
L 429.12 88.56 
L 433.584 84.24 
L 438.048 86.4 
L 442.512 82.08 
L 446.976 79.92 
L 451.44 82.08 
L 455.904 77.76 
L 460.368 75.6 
L 464.832 73.44 
L 469.296 71.28 
L 473.76 73.44 
L 478.224 69.12 
L 482.688 71.28 
L 487.152 75.6 
L 491.616 84.24 
L 496.08 101.52 
L 500.544 136.08 
L 505.008 66.96 
L 509.472 64.8 
L 513.936 66.96 
L 518.4 62.64 
" style="fill:none;stroke:#bf00bf;stroke-linecap:square;"/>
   </g>
   <g id="line2d_48">
    <path clip-path="url(#p6b96258d11)" d="M 76.464 174.96 
L 80.928 179.28 
L 85.392 170.64 
L 89.856 168.48 
L 94.32 170.64 
L 98.784 166.32 
L 103.248 168.48 
L 107.712 172.8 
L 112.176 164.16 
L 116.64 162 
L 121.104 164.16 
L 125.568 159.84 
L 130.032 162 
L 134.496 157.68 
L 138.96 155.52 
L 143.424 157.68 
L 147.888 153.36 
L 152.352 155.52 
L 156.816 159.84 
L 161.28 168.48 
L 165.744 185.76 
L 170.208 220.32 
" style="fill:none;stroke:#bfbf00;stroke-linecap:square;"/>
   </g>
   <g id="line2d_49">
    <path clip-path="url(#p6b96258d11)" d="M 76.464 174.96 
L 80.928 179.28 
L 85.392 187.92 
L 89.856 170.64 
L 94.32 168.48 
L 98.784 166.32 
L 103.248 168.48 
L 107.712 164.16 
L 112.176 166.32 
L 116.64 170.64 
L 121.104 179.28 
L 125.568 196.56 
L 130.032 231.12 
" style="fill:none;stroke:#000000;stroke-linecap:square;"/>
   </g>
   <g id="line2d_50">
    <path clip-path="url(#p6b96258d11)" d="M 76.464 170.64 
L 80.928 168.48 
L 85.392 170.64 
L 89.856 174.96 
L 94.32 183.6 
L 98.784 166.32 
L 103.248 164.16 
L 107.712 166.32 
L 112.176 170.64 
L 116.64 162 
L 121.104 164.16 
L 125.568 159.84 
L 130.032 162 
L 134.496 157.68 
L 138.96 159.84 
L 143.424 164.16 
L 147.888 155.52 
L 152.352 153.36 
L 156.816 155.52 
L 161.28 159.84 
L 165.744 151.2 
L 170.208 149.04 
L 174.672 151.2 
L 179.136 146.88 
L 183.6 144.72 
L 188.064 142.56 
L 192.528 144.72 
L 196.992 140.4 
L 201.456 142.56 
L 205.92 138.24 
L 210.384 136.08 
L 214.848 138.24 
L 219.312 142.56 
L 223.776 151.2 
L 228.24 168.48 
L 232.704 133.92 
L 237.168 131.76 
L 241.632 129.6 
L 246.096 127.44 
L 250.56 129.6 
L 255.024 125.28 
L 259.488 123.12 
L 263.952 120.96 
L 268.416 123.12 
L 272.88 118.8 
L 277.344 120.96 
L 281.808 125.28 
L 286.272 116.64 
L 290.736 118.8 
L 295.2 123.12 
L 299.664 131.76 
L 304.128 114.48 
L 308.592 116.64 
L 313.056 112.32 
L 317.52 114.48 
L 321.984 118.8 
L 326.448 127.44 
L 330.912 144.72 
L 335.376 179.28 
L 339.84 248.4 
" style="fill:none;stroke:#0000ff;stroke-linecap:square;"/>
   </g>
   <g id="line2d_51">
    <path clip-path="url(#p6b96258d11)" d="M 72 216 
L 518.4 216 
" style="fill:none;stroke:#ff0000;stroke-linecap:square;"/>
   </g>
   <g id="patch_3">
    <path d="M 72 43.2 
L 518.4 43.2 
" style="fill:none;stroke:#000000;stroke-linecap:square;stroke-linejoin:miter;"/>
   </g>
   <g id="patch_4">
    <path d="M 72 388.8 
L 518.4 388.8 
" style="fill:none;stroke:#000000;stroke-linecap:square;stroke-linejoin:miter;"/>
   </g>
   <g id="patch_5">
    <path d="M 518.4 388.8 
L 518.4 43.2 
" style="fill:none;stroke:#000000;stroke-linecap:square;stroke-linejoin:miter;"/>
   </g>
   <g id="patch_6">
    <path d="M 72 388.8 
L 72 43.2 
" style="fill:none;stroke:#000000;stroke-linecap:square;stroke-linejoin:miter;"/>
   </g>
   <g id="matplotlib.axis_1">
    <g id="xtick_1">
     <g id="line2d_52">
      <defs>
       <path d="M 0 0 
L 0 -4 
" id="m1768e216a3" style="stroke:#000000;stroke-width:0.5;"/>
      </defs>
      <g>
       <use style="stroke:#000000;stroke-width:0.5;" x="72.0" xlink:href="#m1768e216a3" y="388.8"/>
      </g>
     </g>
     <g id="line2d_53">
      <defs>
       <path d="M 0 0 
L 0 4 
" id="m2a7f79b321" style="stroke:#000000;stroke-width:0.5;"/>
      </defs>
      <g>
       <use style="stroke:#000000;stroke-width:0.5;" x="72.0" xlink:href="#m2a7f79b321" y="43.19999999999999"/>
      </g>
     </g>
     <g id="text_1">
      <!-- 0 -->
      <defs>
       <path d="M 31.78125 66.40625 
Q 24.171875 66.40625 20.328125 58.90625 
Q 16.5 51.421875 16.5 36.375 
Q 16.5 21.390625 20.328125 13.890625 
Q 24.171875 6.390625 31.78125 6.390625 
Q 39.453125 6.390625 43.28125 13.890625 
Q 47.125 21.390625 47.125 36.375 
Q 47.125 51.421875 43.28125 58.90625 
Q 39.453125 66.40625 31.78125 66.40625 
M 31.78125 74.21875 
Q 44.046875 74.21875 50.515625 64.515625 
Q 56.984375 54.828125 56.984375 36.375 
Q 56.984375 17.96875 50.515625 8.265625 
Q 44.046875 -1.421875 31.78125 -1.421875 
Q 19.53125 -1.421875 13.0625 8.265625 
Q 6.59375 17.96875 6.59375 36.375 
Q 6.59375 54.828125 13.0625 64.515625 
Q 19.53125 74.21875 31.78125 74.21875 
" id="BitstreamVeraSans-Roman-30"/>
      </defs>
      <g transform="translate(68.1825 401.91812500000003)scale(0.12 -0.12)">
       <use xlink:href="#BitstreamVeraSans-Roman-30"/>
      </g>
     </g>
    </g>
    <g id="xtick_2">
     <g id="line2d_54">
      <g>
       <use style="stroke:#000000;stroke-width:0.5;" x="161.27999999999997" xlink:href="#m1768e216a3" y="388.8"/>
      </g>
     </g>
     <g id="line2d_55">
      <g>
       <use style="stroke:#000000;stroke-width:0.5;" x="161.27999999999997" xlink:href="#m2a7f79b321" y="43.19999999999999"/>
      </g>
     </g>
     <g id="text_2">
      <!-- 20 -->
      <defs>
       <path d="M 19.1875 8.296875 
L 53.609375 8.296875 
L 53.609375 0 
L 7.328125 0 
L 7.328125 8.296875 
Q 12.9375 14.109375 22.625 23.890625 
Q 32.328125 33.6875 34.8125 36.53125 
Q 39.546875 41.84375 41.421875 45.53125 
Q 43.3125 49.21875 43.3125 52.78125 
Q 43.3125 58.59375 39.234375 62.25 
Q 35.15625 65.921875 28.609375 65.921875 
Q 23.96875 65.921875 18.8125 64.3125 
Q 13.671875 62.703125 7.8125 59.421875 
L 7.8125 69.390625 
Q 13.765625 71.78125 18.9375 73 
Q 24.125 74.21875 28.421875 74.21875 
Q 39.75 74.21875 46.484375 68.546875 
Q 53.21875 62.890625 53.21875 53.421875 
Q 53.21875 48.921875 51.53125 44.890625 
Q 49.859375 40.875 45.40625 35.40625 
Q 44.1875 33.984375 37.640625 27.21875 
Q 31.109375 20.453125 19.1875 8.296875 
" id="BitstreamVeraSans-Roman-32"/>
      </defs>
      <g transform="translate(153.64499999999998 401.91812500000003)scale(0.12 -0.12)">
       <use xlink:href="#BitstreamVeraSans-Roman-32"/>
       <use x="63.623046875" xlink:href="#BitstreamVeraSans-Roman-30"/>
      </g>
     </g>
    </g>
    <g id="xtick_3">
     <g id="line2d_56">
      <g>
       <use style="stroke:#000000;stroke-width:0.5;" x="250.55999999999997" xlink:href="#m1768e216a3" y="388.8"/>
      </g>
     </g>
     <g id="line2d_57">
      <g>
       <use style="stroke:#000000;stroke-width:0.5;" x="250.55999999999997" xlink:href="#m2a7f79b321" y="43.19999999999999"/>
      </g>
     </g>
     <g id="text_3">
      <!-- 40 -->
      <defs>
       <path d="M 37.796875 64.3125 
L 12.890625 25.390625 
L 37.796875 25.390625 
z
M 35.203125 72.90625 
L 47.609375 72.90625 
L 47.609375 25.390625 
L 58.015625 25.390625 
L 58.015625 17.1875 
L 47.609375 17.1875 
L 47.609375 0 
L 37.796875 0 
L 37.796875 17.1875 
L 4.890625 17.1875 
L 4.890625 26.703125 
z
" id="BitstreamVeraSans-Roman-34"/>
      </defs>
      <g transform="translate(242.92499999999998 401.91812500000003)scale(0.12 -0.12)">
       <use xlink:href="#BitstreamVeraSans-Roman-34"/>
       <use x="63.623046875" xlink:href="#BitstreamVeraSans-Roman-30"/>
      </g>
     </g>
    </g>
    <g id="xtick_4">
     <g id="line2d_58">
      <g>
       <use style="stroke:#000000;stroke-width:0.5;" x="339.84" xlink:href="#m1768e216a3" y="388.8"/>
      </g>
     </g>
     <g id="line2d_59">
      <g>
       <use style="stroke:#000000;stroke-width:0.5;" x="339.84" xlink:href="#m2a7f79b321" y="43.19999999999999"/>
      </g>
     </g>
     <g id="text_4">
      <!-- 60 -->
      <defs>
       <path d="M 33.015625 40.375 
Q 26.375 40.375 22.484375 35.828125 
Q 18.609375 31.296875 18.609375 23.390625 
Q 18.609375 15.53125 22.484375 10.953125 
Q 26.375 6.390625 33.015625 6.390625 
Q 39.65625 6.390625 43.53125 10.953125 
Q 47.40625 15.53125 47.40625 23.390625 
Q 47.40625 31.296875 43.53125 35.828125 
Q 39.65625 40.375 33.015625 40.375 
M 52.59375 71.296875 
L 52.59375 62.3125 
Q 48.875 64.0625 45.09375 64.984375 
Q 41.3125 65.921875 37.59375 65.921875 
Q 27.828125 65.921875 22.671875 59.328125 
Q 17.53125 52.734375 16.796875 39.40625 
Q 19.671875 43.65625 24.015625 45.921875 
Q 28.375 48.1875 33.59375 48.1875 
Q 44.578125 48.1875 50.953125 41.515625 
Q 57.328125 34.859375 57.328125 23.390625 
Q 57.328125 12.15625 50.6875 5.359375 
Q 44.046875 -1.421875 33.015625 -1.421875 
Q 20.359375 -1.421875 13.671875 8.265625 
Q 6.984375 17.96875 6.984375 36.375 
Q 6.984375 53.65625 15.1875 63.9375 
Q 23.390625 74.21875 37.203125 74.21875 
Q 40.921875 74.21875 44.703125 73.484375 
Q 48.484375 72.75 52.59375 71.296875 
" id="BitstreamVeraSans-Roman-36"/>
      </defs>
      <g transform="translate(332.205 401.91812500000003)scale(0.12 -0.12)">
       <use xlink:href="#BitstreamVeraSans-Roman-36"/>
       <use x="63.623046875" xlink:href="#BitstreamVeraSans-Roman-30"/>
      </g>
     </g>
    </g>
    <g id="xtick_5">
     <g id="line2d_60">
      <g>
       <use style="stroke:#000000;stroke-width:0.5;" x="429.11999999999995" xlink:href="#m1768e216a3" y="388.8"/>
      </g>
     </g>
     <g id="line2d_61">
      <g>
       <use style="stroke:#000000;stroke-width:0.5;" x="429.11999999999995" xlink:href="#m2a7f79b321" y="43.19999999999999"/>
      </g>
     </g>
     <g id="text_5">
      <!-- 80 -->
      <defs>
       <path d="M 31.78125 34.625 
Q 24.75 34.625 20.71875 30.859375 
Q 16.703125 27.09375 16.703125 20.515625 
Q 16.703125 13.921875 20.71875 10.15625 
Q 24.75 6.390625 31.78125 6.390625 
Q 38.8125 6.390625 42.859375 10.171875 
Q 46.921875 13.96875 46.921875 20.515625 
Q 46.921875 27.09375 42.890625 30.859375 
Q 38.875 34.625 31.78125 34.625 
M 21.921875 38.8125 
Q 15.578125 40.375 12.03125 44.71875 
Q 8.5 49.078125 8.5 55.328125 
Q 8.5 64.0625 14.71875 69.140625 
Q 20.953125 74.21875 31.78125 74.21875 
Q 42.671875 74.21875 48.875 69.140625 
Q 55.078125 64.0625 55.078125 55.328125 
Q 55.078125 49.078125 51.53125 44.71875 
Q 48 40.375 41.703125 38.8125 
Q 48.828125 37.15625 52.796875 32.3125 
Q 56.78125 27.484375 56.78125 20.515625 
Q 56.78125 9.90625 50.3125 4.234375 
Q 43.84375 -1.421875 31.78125 -1.421875 
Q 19.734375 -1.421875 13.25 4.234375 
Q 6.78125 9.90625 6.78125 20.515625 
Q 6.78125 27.484375 10.78125 32.3125 
Q 14.796875 37.15625 21.921875 38.8125 
M 18.3125 54.390625 
Q 18.3125 48.734375 21.84375 45.5625 
Q 25.390625 42.390625 31.78125 42.390625 
Q 38.140625 42.390625 41.71875 45.5625 
Q 45.3125 48.734375 45.3125 54.390625 
Q 45.3125 60.0625 41.71875 63.234375 
Q 38.140625 66.40625 31.78125 66.40625 
Q 25.390625 66.40625 21.84375 63.234375 
Q 18.3125 60.0625 18.3125 54.390625 
" id="BitstreamVeraSans-Roman-38"/>
      </defs>
      <g transform="translate(421.48499999999996 401.91812500000003)scale(0.12 -0.12)">
       <use xlink:href="#BitstreamVeraSans-Roman-38"/>
       <use x="63.623046875" xlink:href="#BitstreamVeraSans-Roman-30"/>
      </g>
     </g>
    </g>
    <g id="xtick_6">
     <g id="line2d_62">
      <g>
       <use style="stroke:#000000;stroke-width:0.5;" x="518.4" xlink:href="#m1768e216a3" y="388.8"/>
      </g>
     </g>
     <g id="line2d_63">
      <g>
       <use style="stroke:#000000;stroke-width:0.5;" x="518.4" xlink:href="#m2a7f79b321" y="43.19999999999999"/>
      </g>
     </g>
     <g id="text_6">
      <!-- 100 -->
      <defs>
       <path d="M 12.40625 8.296875 
L 28.515625 8.296875 
L 28.515625 63.921875 
L 10.984375 60.40625 
L 10.984375 69.390625 
L 28.421875 72.90625 
L 38.28125 72.90625 
L 38.28125 8.296875 
L 54.390625 8.296875 
L 54.390625 0 
L 12.40625 0 
z
" id="BitstreamVeraSans-Roman-31"/>
      </defs>
      <g transform="translate(506.9475 401.91812500000003)scale(0.12 -0.12)">
       <use xlink:href="#BitstreamVeraSans-Roman-31"/>
       <use x="63.623046875" xlink:href="#BitstreamVeraSans-Roman-30"/>
       <use x="127.24609375" xlink:href="#BitstreamVeraSans-Roman-30"/>
      </g>
     </g>
    </g>
   </g>
   <g id="matplotlib.axis_2">
    <g id="ytick_1">
     <g id="line2d_64">
      <defs>
       <path d="M 0 0 
L 4 0 
" id="m82124e14e7" style="stroke:#000000;stroke-width:0.5;"/>
      </defs>
      <g>
       <use style="stroke:#000000;stroke-width:0.5;" x="72.0" xlink:href="#m82124e14e7" y="388.80000000000007"/>
      </g>
     </g>
     <g id="line2d_65">
      <defs>
       <path d="M 0 0 
L -4 0 
" id="mb3e6c9ec21" style="stroke:#000000;stroke-width:0.5;"/>
      </defs>
      <g>
       <use style="stroke:#000000;stroke-width:0.5;" x="518.4" xlink:href="#mb3e6c9ec21" y="388.80000000000007"/>
      </g>
     </g>
     <g id="text_7">
      <!-- 40000 -->
      <defs>
       <path d="M 10.59375 35.5 
L 73.1875 35.5 
L 73.1875 27.203125 
L 10.59375 27.203125 
z
" id="BitstreamVeraSans-Roman-2212"/>
      </defs>
      <g transform="translate(19.769375000000004 392.11125000000004)scale(0.12 -0.12)">
       <use xlink:href="#BitstreamVeraSans-Roman-2212"/>
       <use x="83.7890625" xlink:href="#BitstreamVeraSans-Roman-34"/>
       <use x="147.412109375" xlink:href="#BitstreamVeraSans-Roman-30"/>
       <use x="211.03515625" xlink:href="#BitstreamVeraSans-Roman-30"/>
       <use x="274.658203125" xlink:href="#BitstreamVeraSans-Roman-30"/>
       <use x="338.28125" xlink:href="#BitstreamVeraSans-Roman-30"/>
      </g>
     </g>
    </g>
    <g id="ytick_2">
     <g id="line2d_66">
      <g>
       <use style="stroke:#000000;stroke-width:0.5;" x="72.0" xlink:href="#m82124e14e7" y="345.6"/>
      </g>
     </g>
     <g id="line2d_67">
      <g>
       <use style="stroke:#000000;stroke-width:0.5;" x="518.4" xlink:href="#mb3e6c9ec21" y="345.6"/>
      </g>
     </g>
     <g id="text_8">
      <!-- 30000 -->
      <defs>
       <path d="M 40.578125 39.3125 
Q 47.65625 37.796875 51.625 33 
Q 55.609375 28.21875 55.609375 21.1875 
Q 55.609375 10.40625 48.1875 4.484375 
Q 40.765625 -1.421875 27.09375 -1.421875 
Q 22.515625 -1.421875 17.65625 -0.515625 
Q 12.796875 0.390625 7.625 2.203125 
L 7.625 11.71875 
Q 11.71875 9.328125 16.59375 8.109375 
Q 21.484375 6.890625 26.8125 6.890625 
Q 36.078125 6.890625 40.9375 10.546875 
Q 45.796875 14.203125 45.796875 21.1875 
Q 45.796875 27.640625 41.28125 31.265625 
Q 36.765625 34.90625 28.71875 34.90625 
L 20.21875 34.90625 
L 20.21875 43.015625 
L 29.109375 43.015625 
Q 36.375 43.015625 40.234375 45.921875 
Q 44.09375 48.828125 44.09375 54.296875 
Q 44.09375 59.90625 40.109375 62.90625 
Q 36.140625 65.921875 28.71875 65.921875 
Q 24.65625 65.921875 20.015625 65.03125 
Q 15.375 64.15625 9.8125 62.3125 
L 9.8125 71.09375 
Q 15.4375 72.65625 20.34375 73.4375 
Q 25.25 74.21875 29.59375 74.21875 
Q 40.828125 74.21875 47.359375 69.109375 
Q 53.90625 64.015625 53.90625 55.328125 
Q 53.90625 49.265625 50.4375 45.09375 
Q 46.96875 40.921875 40.578125 39.3125 
" id="BitstreamVeraSans-Roman-33"/>
      </defs>
      <g transform="translate(19.769375000000004 348.91125)scale(0.12 -0.12)">
       <use xlink:href="#BitstreamVeraSans-Roman-2212"/>
       <use x="83.7890625" xlink:href="#BitstreamVeraSans-Roman-33"/>
       <use x="147.412109375" xlink:href="#BitstreamVeraSans-Roman-30"/>
       <use x="211.03515625" xlink:href="#BitstreamVeraSans-Roman-30"/>
       <use x="274.658203125" xlink:href="#BitstreamVeraSans-Roman-30"/>
       <use x="338.28125" xlink:href="#BitstreamVeraSans-Roman-30"/>
      </g>
     </g>
    </g>
    <g id="ytick_3">
     <g id="line2d_68">
      <g>
       <use style="stroke:#000000;stroke-width:0.5;" x="72.0" xlink:href="#m82124e14e7" y="302.40000000000003"/>
      </g>
     </g>
     <g id="line2d_69">
      <g>
       <use style="stroke:#000000;stroke-width:0.5;" x="518.4" xlink:href="#mb3e6c9ec21" y="302.40000000000003"/>
      </g>
     </g>
     <g id="text_9">
      <!-- 20000 -->
      <g transform="translate(19.769375000000004 305.71125000000006)scale(0.12 -0.12)">
       <use xlink:href="#BitstreamVeraSans-Roman-2212"/>
       <use x="83.7890625" xlink:href="#BitstreamVeraSans-Roman-32"/>
       <use x="147.412109375" xlink:href="#BitstreamVeraSans-Roman-30"/>
       <use x="211.03515625" xlink:href="#BitstreamVeraSans-Roman-30"/>
       <use x="274.658203125" xlink:href="#BitstreamVeraSans-Roman-30"/>
       <use x="338.28125" xlink:href="#BitstreamVeraSans-Roman-30"/>
      </g>
     </g>
    </g>
    <g id="ytick_4">
     <g id="line2d_70">
      <g>
       <use style="stroke:#000000;stroke-width:0.5;" x="72.0" xlink:href="#m82124e14e7" y="259.2"/>
      </g>
     </g>
     <g id="line2d_71">
      <g>
       <use style="stroke:#000000;stroke-width:0.5;" x="518.4" xlink:href="#mb3e6c9ec21" y="259.2"/>
      </g>
     </g>
     <g id="text_10">
      <!-- 10000 -->
      <g transform="translate(19.769375000000004 262.51125)scale(0.12 -0.12)">
       <use xlink:href="#BitstreamVeraSans-Roman-2212"/>
       <use x="83.7890625" xlink:href="#BitstreamVeraSans-Roman-31"/>
       <use x="147.412109375" xlink:href="#BitstreamVeraSans-Roman-30"/>
       <use x="211.03515625" xlink:href="#BitstreamVeraSans-Roman-30"/>
       <use x="274.658203125" xlink:href="#BitstreamVeraSans-Roman-30"/>
       <use x="338.28125" xlink:href="#BitstreamVeraSans-Roman-30"/>
      </g>
     </g>
    </g>
    <g id="ytick_5">
     <g id="line2d_72">
      <g>
       <use style="stroke:#000000;stroke-width:0.5;" x="72.0" xlink:href="#m82124e14e7" y="216.0"/>
      </g>
     </g>
     <g id="line2d_73">
      <g>
       <use style="stroke:#000000;stroke-width:0.5;" x="518.4" xlink:href="#mb3e6c9ec21" y="216.0"/>
      </g>
     </g>
     <g id="text_11">
      <!-- 0 -->
      <g transform="translate(60.365 219.31125)scale(0.12 -0.12)">
       <use xlink:href="#BitstreamVeraSans-Roman-30"/>
      </g>
     </g>
    </g>
    <g id="ytick_6">
     <g id="line2d_74">
      <g>
       <use style="stroke:#000000;stroke-width:0.5;" x="72.0" xlink:href="#m82124e14e7" y="172.79999999999998"/>
      </g>
     </g>
     <g id="line2d_75">
      <g>
       <use style="stroke:#000000;stroke-width:0.5;" x="518.4" xlink:href="#mb3e6c9ec21" y="172.79999999999998"/>
      </g>
     </g>
     <g id="text_12">
      <!-- 10000 -->
      <g transform="translate(29.825000000000003 176.11125)scale(0.12 -0.12)">
       <use xlink:href="#BitstreamVeraSans-Roman-31"/>
       <use x="63.623046875" xlink:href="#BitstreamVeraSans-Roman-30"/>
       <use x="127.24609375" xlink:href="#BitstreamVeraSans-Roman-30"/>
       <use x="190.869140625" xlink:href="#BitstreamVeraSans-Roman-30"/>
       <use x="254.4921875" xlink:href="#BitstreamVeraSans-Roman-30"/>
      </g>
     </g>
    </g>
    <g id="ytick_7">
     <g id="line2d_76">
      <g>
       <use style="stroke:#000000;stroke-width:0.5;" x="72.0" xlink:href="#m82124e14e7" y="129.59999999999997"/>
      </g>
     </g>
     <g id="line2d_77">
      <g>
       <use style="stroke:#000000;stroke-width:0.5;" x="518.4" xlink:href="#mb3e6c9ec21" y="129.59999999999997"/>
      </g>
     </g>
     <g id="text_13">
      <!-- 20000 -->
      <g transform="translate(29.825000000000003 132.91124999999994)scale(0.12 -0.12)">
       <use xlink:href="#BitstreamVeraSans-Roman-32"/>
       <use x="63.623046875" xlink:href="#BitstreamVeraSans-Roman-30"/>
       <use x="127.24609375" xlink:href="#BitstreamVeraSans-Roman-30"/>
       <use x="190.869140625" xlink:href="#BitstreamVeraSans-Roman-30"/>
       <use x="254.4921875" xlink:href="#BitstreamVeraSans-Roman-30"/>
      </g>
     </g>
    </g>
    <g id="ytick_8">
     <g id="line2d_78">
      <g>
       <use style="stroke:#000000;stroke-width:0.5;" x="72.0" xlink:href="#m82124e14e7" y="86.39999999999998"/>
      </g>
     </g>
     <g id="line2d_79">
      <g>
       <use style="stroke:#000000;stroke-width:0.5;" x="518.4" xlink:href="#mb3e6c9ec21" y="86.39999999999998"/>
      </g>
     </g>
     <g id="text_14">
      <!-- 30000 -->
      <g transform="translate(29.825000000000003 89.71124999999995)scale(0.12 -0.12)">
       <use xlink:href="#BitstreamVeraSans-Roman-33"/>
       <use x="63.623046875" xlink:href="#BitstreamVeraSans-Roman-30"/>
       <use x="127.24609375" xlink:href="#BitstreamVeraSans-Roman-30"/>
       <use x="190.869140625" xlink:href="#BitstreamVeraSans-Roman-30"/>
       <use x="254.4921875" xlink:href="#BitstreamVeraSans-Roman-30"/>
      </g>
     </g>
    </g>
    <g id="ytick_9">
     <g id="line2d_80">
      <g>
       <use style="stroke:#000000;stroke-width:0.5;" x="72.0" xlink:href="#m82124e14e7" y="43.19999999999996"/>
      </g>
     </g>
     <g id="line2d_81">
      <g>
       <use style="stroke:#000000;stroke-width:0.5;" x="518.4" xlink:href="#mb3e6c9ec21" y="43.19999999999996"/>
      </g>
     </g>
     <g id="text_15">
      <!-- 40000 -->
      <g transform="translate(29.825000000000003 46.511249999999905)scale(0.12 -0.12)">
       <use xlink:href="#BitstreamVeraSans-Roman-34"/>
       <use x="63.623046875" xlink:href="#BitstreamVeraSans-Roman-30"/>
       <use x="127.24609375" xlink:href="#BitstreamVeraSans-Roman-30"/>
       <use x="190.869140625" xlink:href="#BitstreamVeraSans-Roman-30"/>
       <use x="254.4921875" xlink:href="#BitstreamVeraSans-Roman-30"/>
      </g>
     </g>
    </g>
   </g>
  </g>
 </g>
 <defs>
  <clipPath id="p6b96258d11">
   <rect height="345.6" width="446.4" x="72.0" y="43.19999999999999"/>
  </clipPath>
 </defs>
</svg>
